M48
;DRILL file {KiCad (2017-02-22 revision 4c83b0a94)-master} date Fri May 12 12:33:25 2017
;FORMAT={-:-/ absolute / metric / decimal}
FMAT,2
METRIC,TZ
T1C0.600
T2C0.700
T3C0.950
T4C1.000
T5C1.016
T6C3.000
%
G90
G05
M71
T1
X126.65Y-85.45
X126.675Y-65.975
X127.747Y-87.065
X131.1Y-105.6
X132.25Y-99.
X132.275Y-92.025
X134.75Y-107.775
X134.8Y-85.425
X135.775Y-84.175
X137.113Y-106.625
X138.325Y-82.8
X139.65Y-75.75
X149.9Y-65.575
X150.269Y-59.594
X150.275Y-61.525
X152.05Y-65.575
X152.275Y-104.
X153.475Y-115.975
X153.725Y-103.975
X154.15Y-68.05
X154.15Y-69.6
X155.5Y-68.05
X155.5Y-69.6
X155.569Y-66.169
X155.6Y-63.725
X155.65Y-88.75
X155.65Y-93.55
X156.95Y-77.8
X156.95Y-91.675
X157.303Y-68.799
X157.5Y-97.
X158.503Y-68.799
X158.625Y-90.625
X158.65Y-61.675
X158.65Y-64.975
X158.675Y-79.675
X160.25Y-89.45
X160.4Y-82.8
X161.75Y-84.2
X161.75Y-89.
X163.45Y-87.075
X164.244Y-112.044
X164.25Y-62.75
X164.275Y-102.825
X165.Y-85.275
X165.Y-88.775
X165.875Y-105.325
X165.925Y-102.825
X166.625Y-84.
X166.625Y-89.525
X168.05Y-102.8
X168.05Y-106.475
X169.15Y-81.25
X169.15Y-90.1
X169.525Y-101.
X169.7Y-107.8
X170.25Y-95.825
X170.675Y-82.75
X170.7Y-75.2
X171.275Y-93.25
X171.325Y-109.05
X171.356Y-91.702
X171.375Y-87.075
X172.5Y-103.175
X172.525Y-94.225
X174.325Y-82.7
X174.325Y-85.2
X174.325Y-90.2
X175.075Y-114.05
X175.1Y-100.05
X177.25Y-84.025
X178.85Y-81.25
X178.875Y-76.875
X180.25Y-82.7
X180.25Y-85.85
X180.45Y-73.45
X183.9Y-100.025
X191.9Y-109.5
X201.1Y-95.4
T2
X157.535Y-109.61
X160.075Y-112.15
X162.615Y-109.61
T3
X179.724Y-109.414
X186.224Y-109.414
T4
X133.245Y-79.875
X135.785Y-79.875
X138.325Y-79.875
X140.865Y-79.875
X143.405Y-79.875
X145.945Y-79.875
X149.425Y-100.3
X156.525Y-100.275
X168.45Y-72.685
X168.45Y-75.225
X168.45Y-77.765
X171.075Y-70.3
X173.615Y-70.3
X175.95Y-72.66
X175.95Y-75.2
X175.95Y-77.74
X186.1Y-65.505
X186.1Y-68.045
X186.1Y-70.585
X186.1Y-73.125
X186.1Y-75.665
X186.1Y-78.205
X186.1Y-80.745
X186.1Y-83.285
X186.1Y-85.825
T5
X130.75Y-68.025
X130.75Y-70.565
X133.29Y-68.025
X133.29Y-70.565
X135.83Y-68.025
X135.83Y-70.565
T6
X127.344Y-59.344
X127.344Y-113.844
X200.844Y-59.344
X200.844Y-113.844
T0
M30
