G04 #@! TF.GenerationSoftware,KiCad,Pcbnew,(2017-02-22 revision 4c83b0a94)-master*
G04 #@! TF.CreationDate,2017-05-08T15:43:26+03:00*
G04 #@! TF.ProjectId,T-AIM,542D41494D2E6B696361645F70636200,rev?*
G04 #@! TF.FileFunction,Other,ECO1*
%FSLAX46Y46*%
G04 Gerber Fmt 4.6, Leading zero omitted, Abs format (unit mm)*
G04 Created by KiCad (PCBNEW (2017-02-22 revision 4c83b0a94)-master) date Mon May  8 15:43:26 2017*
%MOMM*%
%LPD*%
G01*
G04 APERTURE LIST*
%ADD10C,0.100000*%
%ADD11C,0.125000*%
%ADD12C,0.200000*%
%ADD13C,0.250000*%
G04 APERTURE END LIST*
D10*
D11*
X146880022Y-64826190D02*
X147189546Y-64826190D01*
X146999069Y-65016666D01*
X147070498Y-65016666D01*
X147115141Y-65040476D01*
X147135974Y-65064285D01*
X147153831Y-65111904D01*
X147138950Y-65230952D01*
X147109188Y-65278571D01*
X147082403Y-65302380D01*
X147031808Y-65326190D01*
X146888950Y-65326190D01*
X146844308Y-65302380D01*
X146823474Y-65278571D01*
X147332403Y-64826190D02*
X147436569Y-65326190D01*
X147665736Y-64826190D01*
X147793712Y-65326190D02*
X147888950Y-65326190D01*
X147939546Y-65302380D01*
X147966331Y-65278571D01*
X148022879Y-65207142D01*
X148058593Y-65111904D01*
X148082403Y-64921428D01*
X148064546Y-64873809D01*
X148043712Y-64850000D01*
X147999069Y-64826190D01*
X147903831Y-64826190D01*
X147853236Y-64850000D01*
X147826450Y-64873809D01*
X147796688Y-64921428D01*
X147781808Y-65040476D01*
X147799665Y-65088095D01*
X147820498Y-65111904D01*
X147865141Y-65135714D01*
X147960379Y-65135714D01*
X148010974Y-65111904D01*
X148037760Y-65088095D01*
X148067522Y-65040476D01*
X142328831Y-64776190D02*
X142090736Y-64776190D01*
X142037165Y-65014285D01*
X142063950Y-64990476D01*
X142114546Y-64966666D01*
X142233593Y-64966666D01*
X142278236Y-64990476D01*
X142299069Y-65014285D01*
X142316927Y-65061904D01*
X142302046Y-65180952D01*
X142272284Y-65228571D01*
X142245498Y-65252380D01*
X142194903Y-65276190D01*
X142075855Y-65276190D01*
X142031212Y-65252380D01*
X142010379Y-65228571D01*
X142495498Y-64776190D02*
X142599665Y-65276190D01*
X142828831Y-64776190D01*
X157979617Y-103461333D02*
X158217712Y-103461333D01*
X157914141Y-103604190D02*
X158143308Y-103104190D01*
X158247474Y-103604190D01*
X158405212Y-103104190D02*
X158690927Y-103104190D01*
X158485569Y-103604190D02*
X158548069Y-103104190D01*
X158795093Y-103604190D02*
X158836760Y-103270857D01*
X158830808Y-103318476D02*
X158857593Y-103294666D01*
X158908188Y-103270857D01*
X158979617Y-103270857D01*
X159024260Y-103294666D01*
X159042117Y-103342285D01*
X159009379Y-103604190D01*
X159042117Y-103342285D02*
X159071879Y-103294666D01*
X159122474Y-103270857D01*
X159193903Y-103270857D01*
X159238546Y-103294666D01*
X159256403Y-103342285D01*
X159223665Y-103604190D01*
X159655212Y-103580380D02*
X159604617Y-103604190D01*
X159509379Y-103604190D01*
X159464736Y-103580380D01*
X159446879Y-103532761D01*
X159470688Y-103342285D01*
X159500450Y-103294666D01*
X159551046Y-103270857D01*
X159646284Y-103270857D01*
X159690927Y-103294666D01*
X159708784Y-103342285D01*
X159702831Y-103389904D01*
X159458784Y-103437523D01*
X160146284Y-103270857D02*
X160095688Y-103675619D01*
X160065927Y-103723238D01*
X160039141Y-103747047D01*
X159988546Y-103770857D01*
X159917117Y-103770857D01*
X159872474Y-103747047D01*
X160107593Y-103580380D02*
X160056998Y-103604190D01*
X159961760Y-103604190D01*
X159917117Y-103580380D01*
X159896284Y-103556571D01*
X159878427Y-103508952D01*
X159896284Y-103366095D01*
X159926046Y-103318476D01*
X159952831Y-103294666D01*
X160003427Y-103270857D01*
X160098665Y-103270857D01*
X160143308Y-103294666D01*
X160556998Y-103604190D02*
X160589736Y-103342285D01*
X160571879Y-103294666D01*
X160527236Y-103270857D01*
X160431998Y-103270857D01*
X160381403Y-103294666D01*
X160559974Y-103580380D02*
X160509379Y-103604190D01*
X160390331Y-103604190D01*
X160345688Y-103580380D01*
X160327831Y-103532761D01*
X160333784Y-103485142D01*
X160363546Y-103437523D01*
X160414141Y-103413714D01*
X160533188Y-103413714D01*
X160583784Y-103389904D01*
X160809974Y-103104190D02*
X161119498Y-103104190D01*
X160929022Y-103294666D01*
X161000450Y-103294666D01*
X161045093Y-103318476D01*
X161065927Y-103342285D01*
X161083784Y-103389904D01*
X161068903Y-103508952D01*
X161039141Y-103556571D01*
X161012355Y-103580380D01*
X160961760Y-103604190D01*
X160818903Y-103604190D01*
X160774260Y-103580380D01*
X160753427Y-103556571D01*
X161304022Y-103151809D02*
X161330808Y-103128000D01*
X161381403Y-103104190D01*
X161500450Y-103104190D01*
X161545093Y-103128000D01*
X161565927Y-103151809D01*
X161583784Y-103199428D01*
X161577831Y-103247047D01*
X161545093Y-103318476D01*
X161223665Y-103604190D01*
X161533188Y-103604190D01*
X161854617Y-103318476D02*
X161809974Y-103294666D01*
X161789141Y-103270857D01*
X161771284Y-103223238D01*
X161774260Y-103199428D01*
X161804022Y-103151809D01*
X161830808Y-103128000D01*
X161881403Y-103104190D01*
X161976641Y-103104190D01*
X162021284Y-103128000D01*
X162042117Y-103151809D01*
X162059974Y-103199428D01*
X162056998Y-103223238D01*
X162027236Y-103270857D01*
X162000450Y-103294666D01*
X161949855Y-103318476D01*
X161854617Y-103318476D01*
X161804022Y-103342285D01*
X161777236Y-103366095D01*
X161747474Y-103413714D01*
X161735569Y-103508952D01*
X161753427Y-103556571D01*
X161774260Y-103580380D01*
X161818903Y-103604190D01*
X161914141Y-103604190D01*
X161964736Y-103580380D01*
X161991522Y-103556571D01*
X162021284Y-103508952D01*
X162033188Y-103413714D01*
X162015331Y-103366095D01*
X161994498Y-103342285D01*
X161949855Y-103318476D01*
X162223665Y-103604190D02*
X162286165Y-103104190D01*
X162476641Y-103104190D01*
X162521284Y-103128000D01*
X162542117Y-103151809D01*
X162559974Y-103199428D01*
X162551046Y-103270857D01*
X162521284Y-103318476D01*
X162494498Y-103342285D01*
X162443903Y-103366095D01*
X162253427Y-103366095D01*
X121156212Y-93839880D02*
X121224665Y-93863690D01*
X121343712Y-93863690D01*
X121394308Y-93839880D01*
X121421093Y-93816071D01*
X121450855Y-93768452D01*
X121456808Y-93720833D01*
X121438950Y-93673214D01*
X121418117Y-93649404D01*
X121373474Y-93625595D01*
X121281212Y-93601785D01*
X121236569Y-93577976D01*
X121215736Y-93554166D01*
X121197879Y-93506547D01*
X121203831Y-93458928D01*
X121233593Y-93411309D01*
X121260379Y-93387500D01*
X121310974Y-93363690D01*
X121430022Y-93363690D01*
X121498474Y-93387500D01*
X121623474Y-93530357D02*
X121813950Y-93530357D01*
X121715736Y-93363690D02*
X121662165Y-93792261D01*
X121680022Y-93839880D01*
X121724665Y-93863690D01*
X121772284Y-93863690D01*
X122153236Y-93863690D02*
X122185974Y-93601785D01*
X122168117Y-93554166D01*
X122123474Y-93530357D01*
X122028236Y-93530357D01*
X121977641Y-93554166D01*
X122156212Y-93839880D02*
X122105617Y-93863690D01*
X121986569Y-93863690D01*
X121941927Y-93839880D01*
X121924069Y-93792261D01*
X121930022Y-93744642D01*
X121959784Y-93697023D01*
X122010379Y-93673214D01*
X122129427Y-93673214D01*
X122180022Y-93649404D01*
X122361569Y-93530357D02*
X122552046Y-93530357D01*
X122453831Y-93363690D02*
X122400260Y-93792261D01*
X122418117Y-93839880D01*
X122462760Y-93863690D01*
X122510379Y-93863690D01*
X122932998Y-93530357D02*
X122891331Y-93863690D01*
X122718712Y-93530357D02*
X122685974Y-93792261D01*
X122703831Y-93839880D01*
X122748474Y-93863690D01*
X122819903Y-93863690D01*
X122870498Y-93839880D01*
X122897284Y-93816071D01*
X123108593Y-93839880D02*
X123153236Y-93863690D01*
X123248474Y-93863690D01*
X123299069Y-93839880D01*
X123328831Y-93792261D01*
X123331808Y-93768452D01*
X123313950Y-93720833D01*
X123269308Y-93697023D01*
X123197879Y-93697023D01*
X123153236Y-93673214D01*
X123135379Y-93625595D01*
X123138355Y-93601785D01*
X123168117Y-93554166D01*
X123218712Y-93530357D01*
X123290141Y-93530357D01*
X123334784Y-93554166D01*
X121486569Y-94738690D02*
X121248474Y-94738690D01*
X121310974Y-94238690D01*
X121685974Y-94476785D02*
X121852641Y-94476785D01*
X121891331Y-94738690D02*
X121653236Y-94738690D01*
X121715736Y-94238690D01*
X121953831Y-94238690D01*
X122105617Y-94738690D02*
X122168117Y-94238690D01*
X122287165Y-94238690D01*
X122355617Y-94262500D01*
X122397284Y-94310119D01*
X122415141Y-94357738D01*
X122427046Y-94452976D01*
X122418117Y-94524404D01*
X122382403Y-94619642D01*
X122352641Y-94667261D01*
X122299069Y-94714880D01*
X122224665Y-94738690D01*
X122105617Y-94738690D01*
X123019308Y-94286309D02*
X123046093Y-94262500D01*
X123096688Y-94238690D01*
X123215736Y-94238690D01*
X123260379Y-94262500D01*
X123281212Y-94286309D01*
X123299069Y-94333928D01*
X123293117Y-94381547D01*
X123260379Y-94452976D01*
X122938950Y-94738690D01*
X123248474Y-94738690D01*
X121281212Y-87614880D02*
X121349665Y-87638690D01*
X121468712Y-87638690D01*
X121519308Y-87614880D01*
X121546093Y-87591071D01*
X121575855Y-87543452D01*
X121581808Y-87495833D01*
X121563950Y-87448214D01*
X121543117Y-87424404D01*
X121498474Y-87400595D01*
X121406212Y-87376785D01*
X121361569Y-87352976D01*
X121340736Y-87329166D01*
X121322879Y-87281547D01*
X121328831Y-87233928D01*
X121358593Y-87186309D01*
X121385379Y-87162500D01*
X121435974Y-87138690D01*
X121555022Y-87138690D01*
X121623474Y-87162500D01*
X121748474Y-87305357D02*
X121938950Y-87305357D01*
X121840736Y-87138690D02*
X121787165Y-87567261D01*
X121805022Y-87614880D01*
X121849665Y-87638690D01*
X121897284Y-87638690D01*
X122278236Y-87638690D02*
X122310974Y-87376785D01*
X122293117Y-87329166D01*
X122248474Y-87305357D01*
X122153236Y-87305357D01*
X122102641Y-87329166D01*
X122281212Y-87614880D02*
X122230617Y-87638690D01*
X122111569Y-87638690D01*
X122066927Y-87614880D01*
X122049069Y-87567261D01*
X122055022Y-87519642D01*
X122084784Y-87472023D01*
X122135379Y-87448214D01*
X122254427Y-87448214D01*
X122305022Y-87424404D01*
X122486569Y-87305357D02*
X122677046Y-87305357D01*
X122578831Y-87138690D02*
X122525260Y-87567261D01*
X122543117Y-87614880D01*
X122587760Y-87638690D01*
X122635379Y-87638690D01*
X123057998Y-87305357D02*
X123016331Y-87638690D01*
X122843712Y-87305357D02*
X122810974Y-87567261D01*
X122828831Y-87614880D01*
X122873474Y-87638690D01*
X122944903Y-87638690D01*
X122995498Y-87614880D01*
X123022284Y-87591071D01*
X123233593Y-87614880D02*
X123278236Y-87638690D01*
X123373474Y-87638690D01*
X123424069Y-87614880D01*
X123453831Y-87567261D01*
X123456808Y-87543452D01*
X123438950Y-87495833D01*
X123394308Y-87472023D01*
X123322879Y-87472023D01*
X123278236Y-87448214D01*
X123260379Y-87400595D01*
X123263355Y-87376785D01*
X123293117Y-87329166D01*
X123343712Y-87305357D01*
X123415141Y-87305357D01*
X123459784Y-87329166D01*
X121611569Y-88513690D02*
X121373474Y-88513690D01*
X121435974Y-88013690D01*
X121810974Y-88251785D02*
X121977641Y-88251785D01*
X122016331Y-88513690D02*
X121778236Y-88513690D01*
X121840736Y-88013690D01*
X122078831Y-88013690D01*
X122230617Y-88513690D02*
X122293117Y-88013690D01*
X122412165Y-88013690D01*
X122480617Y-88037500D01*
X122522284Y-88085119D01*
X122540141Y-88132738D01*
X122552046Y-88227976D01*
X122543117Y-88299404D01*
X122507403Y-88394642D01*
X122477641Y-88442261D01*
X122424069Y-88489880D01*
X122349665Y-88513690D01*
X122230617Y-88513690D01*
X123373474Y-88513690D02*
X123087760Y-88513690D01*
X123230617Y-88513690D02*
X123293117Y-88013690D01*
X123236569Y-88085119D01*
X123182998Y-88132738D01*
X123132403Y-88156547D01*
D12*
X188245500Y-106646690D02*
G75*
G03X186922878Y-104960885I-5322622J-2814195D01*
G01*
X185758181Y-114666450D02*
G75*
G03X187443986Y-113343828I-2814195J5322622D01*
G01*
X161164575Y-104925381D02*
G75*
G03X158925000Y-104925000I-1120589J-4718447D01*
G01*
X146468986Y-116393828D02*
X147518986Y-116393828D01*
X177700581Y-58398141D02*
X176687192Y-58398141D01*
X177700581Y-59411530D02*
X177700581Y-58398141D01*
D13*
X187605282Y-114416666D02*
X188081473Y-114416666D01*
X187474330Y-114702380D02*
X187932663Y-113702380D01*
X188140997Y-114702380D01*
X188617187Y-114702380D02*
X188527901Y-114654761D01*
X188492187Y-114559523D01*
X188599330Y-113702380D01*
X189426711Y-114702380D02*
X189492187Y-114178571D01*
X189456473Y-114083333D01*
X189367187Y-114035714D01*
X189176711Y-114035714D01*
X189075520Y-114083333D01*
X189432663Y-114654761D02*
X189331473Y-114702380D01*
X189093377Y-114702380D01*
X189004092Y-114654761D01*
X188968377Y-114559523D01*
X188980282Y-114464285D01*
X189039806Y-114369047D01*
X189140997Y-114321428D01*
X189379092Y-114321428D01*
X189480282Y-114273809D01*
X189902901Y-114702380D02*
X189986235Y-114035714D01*
X189962425Y-114226190D02*
X190021949Y-114130952D01*
X190075520Y-114083333D01*
X190176711Y-114035714D01*
X190271949Y-114035714D01*
X190521949Y-114702380D02*
X190605282Y-114035714D01*
X190593377Y-114130952D02*
X190646949Y-114083333D01*
X190748139Y-114035714D01*
X190890997Y-114035714D01*
X190980282Y-114083333D01*
X191015997Y-114178571D01*
X190950520Y-114702380D01*
X191015997Y-114178571D02*
X191075520Y-114083333D01*
X191176711Y-114035714D01*
X191319568Y-114035714D01*
X191408854Y-114083333D01*
X191444568Y-114178571D01*
X191379092Y-114702380D01*
X187635044Y-115928571D02*
X187771949Y-115976190D01*
X187813616Y-116023809D01*
X187849330Y-116119047D01*
X187831473Y-116261904D01*
X187771949Y-116357142D01*
X187718377Y-116404761D01*
X187617187Y-116452380D01*
X187236235Y-116452380D01*
X187361235Y-115452380D01*
X187694568Y-115452380D01*
X187783854Y-115500000D01*
X187825520Y-115547619D01*
X187861235Y-115642857D01*
X187849330Y-115738095D01*
X187789806Y-115833333D01*
X187736235Y-115880952D01*
X187635044Y-115928571D01*
X187301711Y-115928571D01*
X188748139Y-115785714D02*
X188664806Y-116452380D01*
X188319568Y-115785714D02*
X188254092Y-116309523D01*
X188289806Y-116404761D01*
X188379092Y-116452380D01*
X188521949Y-116452380D01*
X188623139Y-116404761D01*
X188676711Y-116357142D01*
X189129092Y-115785714D02*
X189652901Y-115785714D01*
X189045758Y-116452380D01*
X189569568Y-116452380D01*
X189938616Y-115785714D02*
X190462425Y-115785714D01*
X189855282Y-116452380D01*
X190379092Y-116452380D01*
X191146949Y-116404761D02*
X191045758Y-116452380D01*
X190855282Y-116452380D01*
X190765997Y-116404761D01*
X190730282Y-116309523D01*
X190777901Y-115928571D01*
X190837425Y-115833333D01*
X190938616Y-115785714D01*
X191129092Y-115785714D01*
X191218377Y-115833333D01*
X191254092Y-115928571D01*
X191242187Y-116023809D01*
X190754092Y-116119047D01*
X191617187Y-116452380D02*
X191700520Y-115785714D01*
X191676711Y-115976190D02*
X191736235Y-115880952D01*
X191789806Y-115833333D01*
X191890997Y-115785714D01*
X191986235Y-115785714D01*
D12*
X131518986Y-116393828D02*
X132447021Y-116393828D01*
X131518986Y-115393828D02*
X131518986Y-116393828D01*
X201850000Y-64475000D02*
G75*
G03X200850000Y-63475000I-1000000J0D01*
G01*
D10*
X204576553Y-93145018D02*
X204439648Y-92906923D01*
X204290839Y-93145018D02*
X204353339Y-92645018D01*
X204543815Y-92645018D01*
X204588458Y-92668828D01*
X204609291Y-92692637D01*
X204627148Y-92740256D01*
X204618220Y-92811685D01*
X204588458Y-92859304D01*
X204561672Y-92883113D01*
X204511077Y-92906923D01*
X204320601Y-92906923D01*
X204984291Y-93121208D02*
X204933696Y-93145018D01*
X204838458Y-93145018D01*
X204793815Y-93121208D01*
X204775958Y-93073589D01*
X204799767Y-92883113D01*
X204829529Y-92835494D01*
X204880125Y-92811685D01*
X204975363Y-92811685D01*
X205020005Y-92835494D01*
X205037863Y-92883113D01*
X205031910Y-92930732D01*
X204787863Y-92978351D01*
X205198577Y-93121208D02*
X205243220Y-93145018D01*
X205338458Y-93145018D01*
X205389053Y-93121208D01*
X205418815Y-93073589D01*
X205421791Y-93049780D01*
X205403934Y-93002161D01*
X205359291Y-92978351D01*
X205287863Y-92978351D01*
X205243220Y-92954542D01*
X205225363Y-92906923D01*
X205228339Y-92883113D01*
X205258101Y-92835494D01*
X205308696Y-92811685D01*
X205380125Y-92811685D01*
X205424767Y-92835494D01*
X205817625Y-93121208D02*
X205767029Y-93145018D01*
X205671791Y-93145018D01*
X205627148Y-93121208D01*
X205609291Y-93073589D01*
X205633101Y-92883113D01*
X205662863Y-92835494D01*
X205713458Y-92811685D01*
X205808696Y-92811685D01*
X205853339Y-92835494D01*
X205871196Y-92883113D01*
X205865244Y-92930732D01*
X205621196Y-92978351D01*
X206022982Y-92811685D02*
X206213458Y-92811685D01*
X206115244Y-92645018D02*
X206061672Y-93073589D01*
X206079529Y-93121208D01*
X206124172Y-93145018D01*
X206171791Y-93145018D01*
X204299767Y-93733113D02*
X204368220Y-93756923D01*
X204389053Y-93780732D01*
X204406910Y-93828351D01*
X204397982Y-93899780D01*
X204368220Y-93947399D01*
X204341434Y-93971208D01*
X204290839Y-93995018D01*
X204100363Y-93995018D01*
X204162863Y-93495018D01*
X204329529Y-93495018D01*
X204374172Y-93518828D01*
X204395005Y-93542637D01*
X204412863Y-93590256D01*
X204406910Y-93637875D01*
X204377148Y-93685494D01*
X204350363Y-93709304D01*
X204299767Y-93733113D01*
X204133101Y-93733113D01*
X204856315Y-93661685D02*
X204814648Y-93995018D01*
X204642029Y-93661685D02*
X204609291Y-93923589D01*
X204627148Y-93971208D01*
X204671791Y-93995018D01*
X204743220Y-93995018D01*
X204793815Y-93971208D01*
X204820601Y-93947399D01*
X205022982Y-93661685D02*
X205213458Y-93661685D01*
X205115244Y-93495018D02*
X205061672Y-93923589D01*
X205079529Y-93971208D01*
X205124172Y-93995018D01*
X205171791Y-93995018D01*
X205308696Y-93661685D02*
X205499172Y-93661685D01*
X205400958Y-93495018D02*
X205347386Y-93923589D01*
X205365244Y-93971208D01*
X205409886Y-93995018D01*
X205457505Y-93995018D01*
X205695601Y-93995018D02*
X205650958Y-93971208D01*
X205630125Y-93947399D01*
X205612267Y-93899780D01*
X205630125Y-93756923D01*
X205659886Y-93709304D01*
X205686672Y-93685494D01*
X205737267Y-93661685D01*
X205808696Y-93661685D01*
X205853339Y-93685494D01*
X205874172Y-93709304D01*
X205892029Y-93756923D01*
X205874172Y-93899780D01*
X205844410Y-93947399D01*
X205817625Y-93971208D01*
X205767029Y-93995018D01*
X205695601Y-93995018D01*
X206118220Y-93661685D02*
X206076553Y-93995018D01*
X206112267Y-93709304D02*
X206139053Y-93685494D01*
X206189648Y-93661685D01*
X206261077Y-93661685D01*
X206305720Y-93685494D01*
X206323577Y-93733113D01*
X206290839Y-93995018D01*
X204558696Y-103214571D02*
X204531910Y-103238380D01*
X204457505Y-103262190D01*
X204409886Y-103262190D01*
X204341434Y-103238380D01*
X204299767Y-103190761D01*
X204281910Y-103143142D01*
X204270005Y-103047904D01*
X204278934Y-102976476D01*
X204314648Y-102881238D01*
X204344410Y-102833619D01*
X204397982Y-102786000D01*
X204472386Y-102762190D01*
X204520005Y-102762190D01*
X204588458Y-102786000D01*
X204609291Y-102809809D01*
X204838458Y-103262190D02*
X204793815Y-103238380D01*
X204772982Y-103214571D01*
X204755125Y-103166952D01*
X204772982Y-103024095D01*
X204802744Y-102976476D01*
X204829529Y-102952666D01*
X204880125Y-102928857D01*
X204951553Y-102928857D01*
X204996196Y-102952666D01*
X205017029Y-102976476D01*
X205034886Y-103024095D01*
X205017029Y-103166952D01*
X204987267Y-103214571D01*
X204960482Y-103238380D01*
X204909886Y-103262190D01*
X204838458Y-103262190D01*
X205261077Y-102928857D02*
X205219410Y-103262190D01*
X205255125Y-102976476D02*
X205281910Y-102952666D01*
X205332505Y-102928857D01*
X205403934Y-102928857D01*
X205448577Y-102952666D01*
X205466434Y-103000285D01*
X205433696Y-103262190D01*
X205713458Y-102928857D02*
X205671791Y-103262190D01*
X205707505Y-102976476D02*
X205734291Y-102952666D01*
X205784886Y-102928857D01*
X205856315Y-102928857D01*
X205900958Y-102952666D01*
X205918815Y-103000285D01*
X205886077Y-103262190D01*
X206130125Y-103214571D02*
X206150958Y-103238380D01*
X206124172Y-103262190D01*
X206103339Y-103238380D01*
X206130125Y-103214571D01*
X206124172Y-103262190D01*
X204362267Y-104112190D02*
X204424767Y-103612190D01*
X204546791Y-103969333D01*
X204758101Y-103612190D01*
X204695601Y-104112190D01*
X205005125Y-104112190D02*
X204960482Y-104088380D01*
X204939648Y-104064571D01*
X204921791Y-104016952D01*
X204939648Y-103874095D01*
X204969410Y-103826476D01*
X204996196Y-103802666D01*
X205046791Y-103778857D01*
X205118220Y-103778857D01*
X205162863Y-103802666D01*
X205183696Y-103826476D01*
X205201553Y-103874095D01*
X205183696Y-104016952D01*
X205153934Y-104064571D01*
X205127148Y-104088380D01*
X205076553Y-104112190D01*
X205005125Y-104112190D01*
X205600363Y-104112190D02*
X205662863Y-103612190D01*
X205603339Y-104088380D02*
X205552744Y-104112190D01*
X205457505Y-104112190D01*
X205412863Y-104088380D01*
X205392029Y-104064571D01*
X205374172Y-104016952D01*
X205392029Y-103874095D01*
X205421791Y-103826476D01*
X205448577Y-103802666D01*
X205499172Y-103778857D01*
X205594410Y-103778857D01*
X205639053Y-103802666D01*
X206031910Y-104088380D02*
X205981315Y-104112190D01*
X205886077Y-104112190D01*
X205841434Y-104088380D01*
X205823577Y-104040761D01*
X205847386Y-103850285D01*
X205877148Y-103802666D01*
X205927744Y-103778857D01*
X206022982Y-103778857D01*
X206067625Y-103802666D01*
X206085482Y-103850285D01*
X206079529Y-103897904D01*
X205835482Y-103945523D01*
X204299767Y-104700285D02*
X204368220Y-104724095D01*
X204389053Y-104747904D01*
X204406910Y-104795523D01*
X204397982Y-104866952D01*
X204368220Y-104914571D01*
X204341434Y-104938380D01*
X204290839Y-104962190D01*
X204100363Y-104962190D01*
X204162863Y-104462190D01*
X204329529Y-104462190D01*
X204374172Y-104486000D01*
X204395005Y-104509809D01*
X204412863Y-104557428D01*
X204406910Y-104605047D01*
X204377148Y-104652666D01*
X204350363Y-104676476D01*
X204299767Y-104700285D01*
X204133101Y-104700285D01*
X204856315Y-104628857D02*
X204814648Y-104962190D01*
X204642029Y-104628857D02*
X204609291Y-104890761D01*
X204627148Y-104938380D01*
X204671791Y-104962190D01*
X204743220Y-104962190D01*
X204793815Y-104938380D01*
X204820601Y-104914571D01*
X205022982Y-104628857D02*
X205213458Y-104628857D01*
X205115244Y-104462190D02*
X205061672Y-104890761D01*
X205079529Y-104938380D01*
X205124172Y-104962190D01*
X205171791Y-104962190D01*
X205308696Y-104628857D02*
X205499172Y-104628857D01*
X205400958Y-104462190D02*
X205347386Y-104890761D01*
X205365244Y-104938380D01*
X205409886Y-104962190D01*
X205457505Y-104962190D01*
X205695601Y-104962190D02*
X205650958Y-104938380D01*
X205630125Y-104914571D01*
X205612267Y-104866952D01*
X205630125Y-104724095D01*
X205659886Y-104676476D01*
X205686672Y-104652666D01*
X205737267Y-104628857D01*
X205808696Y-104628857D01*
X205853339Y-104652666D01*
X205874172Y-104676476D01*
X205892029Y-104724095D01*
X205874172Y-104866952D01*
X205844410Y-104914571D01*
X205817625Y-104938380D01*
X205767029Y-104962190D01*
X205695601Y-104962190D01*
X206118220Y-104628857D02*
X206076553Y-104962190D01*
X206112267Y-104676476D02*
X206139053Y-104652666D01*
X206189648Y-104628857D01*
X206261077Y-104628857D01*
X206305720Y-104652666D01*
X206323577Y-104700285D01*
X206290839Y-104962190D01*
D13*
X156087363Y-117546380D02*
X156212363Y-116546380D01*
X156593316Y-116546380D01*
X156682602Y-116594000D01*
X156724268Y-116641619D01*
X156759983Y-116736857D01*
X156742125Y-116879714D01*
X156682602Y-116974952D01*
X156629030Y-117022571D01*
X156527840Y-117070190D01*
X156146887Y-117070190D01*
X157087363Y-117546380D02*
X157212363Y-116546380D01*
X158134983Y-117546380D02*
X157861173Y-117070190D01*
X157563554Y-117546380D02*
X157688554Y-116546380D01*
X158069506Y-116546380D01*
X158158792Y-116594000D01*
X158200459Y-116641619D01*
X158236173Y-116736857D01*
X158218316Y-116879714D01*
X158158792Y-116974952D01*
X158105221Y-117022571D01*
X158004030Y-117070190D01*
X157623078Y-117070190D01*
X159283792Y-117498761D02*
X159420697Y-117546380D01*
X159658792Y-117546380D01*
X159759983Y-117498761D01*
X159813554Y-117451142D01*
X159873078Y-117355904D01*
X159884983Y-117260666D01*
X159849268Y-117165428D01*
X159807602Y-117117809D01*
X159718316Y-117070190D01*
X159533792Y-117022571D01*
X159444506Y-116974952D01*
X159402840Y-116927333D01*
X159367125Y-116832095D01*
X159379030Y-116736857D01*
X159438554Y-116641619D01*
X159492125Y-116594000D01*
X159593316Y-116546380D01*
X159831411Y-116546380D01*
X159968316Y-116594000D01*
X160664744Y-117498761D02*
X160563554Y-117546380D01*
X160373078Y-117546380D01*
X160283792Y-117498761D01*
X160248078Y-117403523D01*
X160295697Y-117022571D01*
X160355221Y-116927333D01*
X160456411Y-116879714D01*
X160646887Y-116879714D01*
X160736173Y-116927333D01*
X160771887Y-117022571D01*
X160759983Y-117117809D01*
X160271887Y-117213047D01*
X161218316Y-116879714D02*
X161134983Y-117546380D01*
X161206411Y-116974952D02*
X161259983Y-116927333D01*
X161361173Y-116879714D01*
X161504030Y-116879714D01*
X161593316Y-116927333D01*
X161629030Y-117022571D01*
X161563554Y-117546380D01*
X161998078Y-117498761D02*
X162087363Y-117546380D01*
X162277840Y-117546380D01*
X162379030Y-117498761D01*
X162438554Y-117403523D01*
X162444506Y-117355904D01*
X162408792Y-117260666D01*
X162319506Y-117213047D01*
X162176649Y-117213047D01*
X162087363Y-117165428D01*
X162051649Y-117070190D01*
X162057602Y-117022571D01*
X162117125Y-116927333D01*
X162218316Y-116879714D01*
X162361173Y-116879714D01*
X162450459Y-116927333D01*
X162992125Y-117546380D02*
X162902840Y-117498761D01*
X162861173Y-117451142D01*
X162825459Y-117355904D01*
X162861173Y-117070190D01*
X162920697Y-116974952D01*
X162974268Y-116927333D01*
X163075459Y-116879714D01*
X163218316Y-116879714D01*
X163307602Y-116927333D01*
X163349268Y-116974952D01*
X163384983Y-117070190D01*
X163349268Y-117355904D01*
X163289744Y-117451142D01*
X163236173Y-117498761D01*
X163134983Y-117546380D01*
X162992125Y-117546380D01*
X163754030Y-117546380D02*
X163837363Y-116879714D01*
X163813554Y-117070190D02*
X163873078Y-116974952D01*
X163926649Y-116927333D01*
X164027840Y-116879714D01*
X164123078Y-116879714D01*
X190882602Y-75260494D02*
X191358792Y-75260494D01*
X190751649Y-75546208D02*
X191209983Y-74546208D01*
X191418316Y-75546208D01*
X192186173Y-75498589D02*
X192084983Y-75546208D01*
X191894506Y-75546208D01*
X191805221Y-75498589D01*
X191763554Y-75450970D01*
X191727840Y-75355732D01*
X191763554Y-75070018D01*
X191823078Y-74974780D01*
X191876649Y-74927161D01*
X191977840Y-74879542D01*
X192168316Y-74879542D01*
X192257602Y-74927161D01*
X193043316Y-75498589D02*
X192942125Y-75546208D01*
X192751649Y-75546208D01*
X192662363Y-75498589D01*
X192620697Y-75450970D01*
X192584983Y-75355732D01*
X192620697Y-75070018D01*
X192680221Y-74974780D01*
X192733792Y-74927161D01*
X192834983Y-74879542D01*
X193025459Y-74879542D01*
X193114744Y-74927161D01*
X193852840Y-75498589D02*
X193751649Y-75546208D01*
X193561173Y-75546208D01*
X193471887Y-75498589D01*
X193436173Y-75403351D01*
X193483792Y-75022399D01*
X193543316Y-74927161D01*
X193644506Y-74879542D01*
X193834983Y-74879542D01*
X193924268Y-74927161D01*
X193959983Y-75022399D01*
X193948078Y-75117637D01*
X193459983Y-75212875D01*
X194465935Y-75546208D02*
X194376649Y-75498589D01*
X194340935Y-75403351D01*
X194448078Y-74546208D01*
X195233792Y-75498589D02*
X195132602Y-75546208D01*
X194942125Y-75546208D01*
X194852840Y-75498589D01*
X194817125Y-75403351D01*
X194864744Y-75022399D01*
X194924268Y-74927161D01*
X195025459Y-74879542D01*
X195215935Y-74879542D01*
X195305221Y-74927161D01*
X195340935Y-75022399D01*
X195329030Y-75117637D01*
X194840935Y-75212875D01*
X195704030Y-75546208D02*
X195787363Y-74879542D01*
X195763554Y-75070018D02*
X195823078Y-74974780D01*
X195876649Y-74927161D01*
X195977840Y-74879542D01*
X196073078Y-74879542D01*
X196465935Y-75546208D02*
X196376649Y-75498589D01*
X196334983Y-75450970D01*
X196299268Y-75355732D01*
X196334983Y-75070018D01*
X196394506Y-74974780D01*
X196448078Y-74927161D01*
X196549268Y-74879542D01*
X196692125Y-74879542D01*
X196781411Y-74927161D01*
X196823078Y-74974780D01*
X196858792Y-75070018D01*
X196823078Y-75355732D01*
X196763554Y-75450970D01*
X196709983Y-75498589D01*
X196608792Y-75546208D01*
X196465935Y-75546208D01*
X197227840Y-75546208D02*
X197311173Y-74879542D01*
X197299268Y-74974780D02*
X197352840Y-74927161D01*
X197454030Y-74879542D01*
X197596887Y-74879542D01*
X197686173Y-74927161D01*
X197721887Y-75022399D01*
X197656411Y-75546208D01*
X197721887Y-75022399D02*
X197781411Y-74927161D01*
X197882602Y-74879542D01*
X198025459Y-74879542D01*
X198114744Y-74927161D01*
X198150459Y-75022399D01*
X198084983Y-75546208D01*
X198948078Y-75498589D02*
X198846887Y-75546208D01*
X198656411Y-75546208D01*
X198567125Y-75498589D01*
X198531411Y-75403351D01*
X198579030Y-75022399D01*
X198638554Y-74927161D01*
X198739744Y-74879542D01*
X198930221Y-74879542D01*
X199019506Y-74927161D01*
X199055221Y-75022399D01*
X199043316Y-75117637D01*
X198555221Y-75212875D01*
X199358792Y-74879542D02*
X199739744Y-74879542D01*
X199543316Y-74546208D02*
X199436173Y-75403351D01*
X199471887Y-75498589D01*
X199561173Y-75546208D01*
X199656411Y-75546208D01*
X200376649Y-75498589D02*
X200275459Y-75546208D01*
X200084983Y-75546208D01*
X199995697Y-75498589D01*
X199959983Y-75403351D01*
X200007602Y-75022399D01*
X200067125Y-74927161D01*
X200168316Y-74879542D01*
X200358792Y-74879542D01*
X200448078Y-74927161D01*
X200483792Y-75022399D01*
X200471887Y-75117637D01*
X199983792Y-75212875D01*
X200846887Y-75546208D02*
X200930221Y-74879542D01*
X200906411Y-75070018D02*
X200965935Y-74974780D01*
X201019506Y-74927161D01*
X201120697Y-74879542D01*
X201215935Y-74879542D01*
X192930221Y-77010494D02*
X193406411Y-77010494D01*
X192799268Y-77296208D02*
X193257602Y-76296208D01*
X193465935Y-77296208D01*
X193799268Y-77296208D02*
X193924268Y-76296208D01*
X194162363Y-76296208D01*
X194299268Y-76343828D01*
X194382602Y-76439066D01*
X194418316Y-76534304D01*
X194442125Y-76724780D01*
X194424268Y-76867637D01*
X194352840Y-77058113D01*
X194293316Y-77153351D01*
X194186173Y-77248589D01*
X194037363Y-77296208D01*
X193799268Y-77296208D01*
X194829030Y-76296208D02*
X195370697Y-77296208D01*
X195495697Y-76296208D02*
X194704030Y-77296208D01*
X196227840Y-77296208D02*
X195751649Y-77296208D01*
X195876649Y-76296208D01*
X196590935Y-76296208D02*
X197209983Y-76296208D01*
X196829030Y-76677161D01*
X196971887Y-76677161D01*
X197061173Y-76724780D01*
X197102840Y-76772399D01*
X197138554Y-76867637D01*
X197108792Y-77105732D01*
X197049268Y-77200970D01*
X196995697Y-77248589D01*
X196894506Y-77296208D01*
X196608792Y-77296208D01*
X196519506Y-77248589D01*
X196477840Y-77200970D01*
X198025459Y-76629542D02*
X197942125Y-77296208D01*
X197834983Y-76248589D02*
X197507602Y-76962875D01*
X198126649Y-76962875D01*
X199067125Y-76296208D02*
X198590935Y-76296208D01*
X198483792Y-76772399D01*
X198537363Y-76724780D01*
X198638554Y-76677161D01*
X198876649Y-76677161D01*
X198965935Y-76724780D01*
X199007602Y-76772399D01*
X199043316Y-76867637D01*
X199013554Y-77105732D01*
X198954030Y-77200970D01*
X198900459Y-77248589D01*
X198799268Y-77296208D01*
X198561173Y-77296208D01*
X198471887Y-77248589D01*
X198430221Y-77200970D01*
X204484041Y-113843828D02*
G75*
G03X204484041Y-113843828I-3640055J0D01*
G01*
X130984041Y-113843828D02*
G75*
G03X130984041Y-113843828I-3640055J0D01*
G01*
X130984041Y-59343828D02*
G75*
G03X130984041Y-59343828I-3640055J0D01*
G01*
X204484041Y-59343828D02*
G75*
G03X204484041Y-59343828I-3640055J0D01*
G01*
D10*
X160561904Y-102526190D02*
X160561904Y-102026190D01*
X161085714Y-102478571D02*
X161061904Y-102502380D01*
X160990476Y-102526190D01*
X160942857Y-102526190D01*
X160871428Y-102502380D01*
X160823809Y-102454761D01*
X160800000Y-102407142D01*
X160776190Y-102311904D01*
X160776190Y-102240476D01*
X160800000Y-102145238D01*
X160823809Y-102097619D01*
X160871428Y-102050000D01*
X160942857Y-102026190D01*
X160990476Y-102026190D01*
X161061904Y-102050000D01*
X161085714Y-102073809D01*
X161561904Y-102526190D02*
X161276190Y-102526190D01*
X161419047Y-102526190D02*
X161419047Y-102026190D01*
X161371428Y-102097619D01*
X161323809Y-102145238D01*
X161276190Y-102169047D01*
X157059333Y-104374190D02*
X157059333Y-104731333D01*
X157035523Y-104802761D01*
X156987904Y-104850380D01*
X156916476Y-104874190D01*
X156868857Y-104874190D01*
X157535523Y-104374190D02*
X157297428Y-104374190D01*
X157273619Y-104612285D01*
X157297428Y-104588476D01*
X157345047Y-104564666D01*
X157464095Y-104564666D01*
X157511714Y-104588476D01*
X157535523Y-104612285D01*
X157559333Y-104659904D01*
X157559333Y-104778952D01*
X157535523Y-104826571D01*
X157511714Y-104850380D01*
X157464095Y-104874190D01*
X157345047Y-104874190D01*
X157297428Y-104850380D01*
X157273619Y-104826571D01*
X155919047Y-101926190D02*
X156204761Y-101926190D01*
X156061904Y-102426190D02*
X156061904Y-101926190D01*
X156371428Y-102426190D02*
X156371428Y-101926190D01*
X156561904Y-101926190D01*
X156609523Y-101950000D01*
X156633333Y-101973809D01*
X156657142Y-102021428D01*
X156657142Y-102092857D01*
X156633333Y-102140476D01*
X156609523Y-102164285D01*
X156561904Y-102188095D01*
X156371428Y-102188095D01*
X156847619Y-101973809D02*
X156871428Y-101950000D01*
X156919047Y-101926190D01*
X157038095Y-101926190D01*
X157085714Y-101950000D01*
X157109523Y-101973809D01*
X157133333Y-102021428D01*
X157133333Y-102069047D01*
X157109523Y-102140476D01*
X156823809Y-102426190D01*
X157133333Y-102426190D01*
X148241666Y-61776190D02*
X148075000Y-61538095D01*
X147955952Y-61776190D02*
X147955952Y-61276190D01*
X148146428Y-61276190D01*
X148194047Y-61300000D01*
X148217857Y-61323809D01*
X148241666Y-61371428D01*
X148241666Y-61442857D01*
X148217857Y-61490476D01*
X148194047Y-61514285D01*
X148146428Y-61538095D01*
X147955952Y-61538095D01*
X148408333Y-61276190D02*
X148717857Y-61276190D01*
X148551190Y-61466666D01*
X148622619Y-61466666D01*
X148670238Y-61490476D01*
X148694047Y-61514285D01*
X148717857Y-61561904D01*
X148717857Y-61680952D01*
X148694047Y-61728571D01*
X148670238Y-61752380D01*
X148622619Y-61776190D01*
X148479761Y-61776190D01*
X148432142Y-61752380D01*
X148408333Y-61728571D01*
X183709523Y-106178113D02*
X183780952Y-106201923D01*
X183804761Y-106225732D01*
X183828571Y-106273351D01*
X183828571Y-106344780D01*
X183804761Y-106392399D01*
X183780952Y-106416208D01*
X183733333Y-106440018D01*
X183542857Y-106440018D01*
X183542857Y-105940018D01*
X183709523Y-105940018D01*
X183757142Y-105963828D01*
X183780952Y-105987637D01*
X183804761Y-106035256D01*
X183804761Y-106082875D01*
X183780952Y-106130494D01*
X183757142Y-106154304D01*
X183709523Y-106178113D01*
X183542857Y-106178113D01*
X183995238Y-105940018D02*
X184328571Y-105940018D01*
X183995238Y-106440018D01*
X184328571Y-106440018D01*
X184780952Y-106440018D02*
X184495238Y-106440018D01*
X184638095Y-106440018D02*
X184638095Y-105940018D01*
X184590476Y-106011447D01*
X184542857Y-106059066D01*
X184495238Y-106082875D01*
X185983509Y-107849542D02*
X186364462Y-107849542D01*
X143103571Y-63777380D02*
X143175000Y-63801190D01*
X143294047Y-63801190D01*
X143341666Y-63777380D01*
X143365476Y-63753571D01*
X143389285Y-63705952D01*
X143389285Y-63658333D01*
X143365476Y-63610714D01*
X143341666Y-63586904D01*
X143294047Y-63563095D01*
X143198809Y-63539285D01*
X143151190Y-63515476D01*
X143127380Y-63491666D01*
X143103571Y-63444047D01*
X143103571Y-63396428D01*
X143127380Y-63348809D01*
X143151190Y-63325000D01*
X143198809Y-63301190D01*
X143317857Y-63301190D01*
X143389285Y-63325000D01*
X143746428Y-63301190D02*
X143746428Y-63658333D01*
X143722619Y-63729761D01*
X143675000Y-63777380D01*
X143603571Y-63801190D01*
X143555952Y-63801190D01*
X144246428Y-63801190D02*
X143960714Y-63801190D01*
X144103571Y-63801190D02*
X144103571Y-63301190D01*
X144055952Y-63372619D01*
X144008333Y-63420238D01*
X143960714Y-63444047D01*
X155291666Y-103153571D02*
X155267857Y-103177380D01*
X155196428Y-103201190D01*
X155148809Y-103201190D01*
X155077380Y-103177380D01*
X155029761Y-103129761D01*
X155005952Y-103082142D01*
X154982142Y-102986904D01*
X154982142Y-102915476D01*
X155005952Y-102820238D01*
X155029761Y-102772619D01*
X155077380Y-102725000D01*
X155148809Y-102701190D01*
X155196428Y-102701190D01*
X155267857Y-102725000D01*
X155291666Y-102748809D01*
X155458333Y-102701190D02*
X155791666Y-102701190D01*
X155577380Y-103201190D01*
X122930952Y-89551190D02*
X122930952Y-89051190D01*
X123050000Y-89051190D01*
X123121428Y-89075000D01*
X123169047Y-89122619D01*
X123192857Y-89170238D01*
X123216666Y-89265476D01*
X123216666Y-89336904D01*
X123192857Y-89432142D01*
X123169047Y-89479761D01*
X123121428Y-89527380D01*
X123050000Y-89551190D01*
X122930952Y-89551190D01*
X123692857Y-89551190D02*
X123407142Y-89551190D01*
X123550000Y-89551190D02*
X123550000Y-89051190D01*
X123502380Y-89122619D01*
X123454761Y-89170238D01*
X123407142Y-89194047D01*
X122855952Y-95526190D02*
X122855952Y-95026190D01*
X122975000Y-95026190D01*
X123046428Y-95050000D01*
X123094047Y-95097619D01*
X123117857Y-95145238D01*
X123141666Y-95240476D01*
X123141666Y-95311904D01*
X123117857Y-95407142D01*
X123094047Y-95454761D01*
X123046428Y-95502380D01*
X122975000Y-95526190D01*
X122855952Y-95526190D01*
X123332142Y-95073809D02*
X123355952Y-95050000D01*
X123403571Y-95026190D01*
X123522619Y-95026190D01*
X123570238Y-95050000D01*
X123594047Y-95073809D01*
X123617857Y-95121428D01*
X123617857Y-95169047D01*
X123594047Y-95240476D01*
X123308333Y-95526190D01*
X123617857Y-95526190D01*
X148241666Y-59826190D02*
X148075000Y-59588095D01*
X147955952Y-59826190D02*
X147955952Y-59326190D01*
X148146428Y-59326190D01*
X148194047Y-59350000D01*
X148217857Y-59373809D01*
X148241666Y-59421428D01*
X148241666Y-59492857D01*
X148217857Y-59540476D01*
X148194047Y-59564285D01*
X148146428Y-59588095D01*
X147955952Y-59588095D01*
X148432142Y-59373809D02*
X148455952Y-59350000D01*
X148503571Y-59326190D01*
X148622619Y-59326190D01*
X148670238Y-59350000D01*
X148694047Y-59373809D01*
X148717857Y-59421428D01*
X148717857Y-59469047D01*
X148694047Y-59540476D01*
X148408333Y-59826190D01*
X148717857Y-59826190D01*
X123241666Y-92201190D02*
X123075000Y-91963095D01*
X122955952Y-92201190D02*
X122955952Y-91701190D01*
X123146428Y-91701190D01*
X123194047Y-91725000D01*
X123217857Y-91748809D01*
X123241666Y-91796428D01*
X123241666Y-91867857D01*
X123217857Y-91915476D01*
X123194047Y-91939285D01*
X123146428Y-91963095D01*
X122955952Y-91963095D01*
X123479761Y-92201190D02*
X123575000Y-92201190D01*
X123622619Y-92177380D01*
X123646428Y-92153571D01*
X123694047Y-92082142D01*
X123717857Y-91986904D01*
X123717857Y-91796428D01*
X123694047Y-91748809D01*
X123670238Y-91725000D01*
X123622619Y-91701190D01*
X123527380Y-91701190D01*
X123479761Y-91725000D01*
X123455952Y-91748809D01*
X123432142Y-91796428D01*
X123432142Y-91915476D01*
X123455952Y-91963095D01*
X123479761Y-91986904D01*
X123527380Y-92010714D01*
X123622619Y-92010714D01*
X123670238Y-91986904D01*
X123694047Y-91963095D01*
X123717857Y-91915476D01*
X122728571Y-99201190D02*
X122561904Y-98963095D01*
X122442857Y-99201190D02*
X122442857Y-98701190D01*
X122633333Y-98701190D01*
X122680952Y-98725000D01*
X122704761Y-98748809D01*
X122728571Y-98796428D01*
X122728571Y-98867857D01*
X122704761Y-98915476D01*
X122680952Y-98939285D01*
X122633333Y-98963095D01*
X122442857Y-98963095D01*
X123204761Y-99201190D02*
X122919047Y-99201190D01*
X123061904Y-99201190D02*
X123061904Y-98701190D01*
X123014285Y-98772619D01*
X122966666Y-98820238D01*
X122919047Y-98844047D01*
X123514285Y-98701190D02*
X123561904Y-98701190D01*
X123609523Y-98725000D01*
X123633333Y-98748809D01*
X123657142Y-98796428D01*
X123680952Y-98891666D01*
X123680952Y-99010714D01*
X123657142Y-99105952D01*
X123633333Y-99153571D01*
X123609523Y-99177380D01*
X123561904Y-99201190D01*
X123514285Y-99201190D01*
X123466666Y-99177380D01*
X123442857Y-99153571D01*
X123419047Y-99105952D01*
X123395238Y-99010714D01*
X123395238Y-98891666D01*
X123419047Y-98796428D01*
X123442857Y-98748809D01*
X123466666Y-98725000D01*
X123514285Y-98701190D01*
X190276190Y-105496428D02*
X190038095Y-105663095D01*
X190276190Y-105782142D02*
X189776190Y-105782142D01*
X189776190Y-105591666D01*
X189800000Y-105544047D01*
X189823809Y-105520238D01*
X189871428Y-105496428D01*
X189942857Y-105496428D01*
X189990476Y-105520238D01*
X190014285Y-105544047D01*
X190038095Y-105591666D01*
X190038095Y-105782142D01*
X190276190Y-105020238D02*
X190276190Y-105305952D01*
X190276190Y-105163095D02*
X189776190Y-105163095D01*
X189847619Y-105210714D01*
X189895238Y-105258333D01*
X189919047Y-105305952D01*
X190276190Y-104544047D02*
X190276190Y-104829761D01*
X190276190Y-104686904D02*
X189776190Y-104686904D01*
X189847619Y-104734523D01*
X189895238Y-104782142D01*
X189919047Y-104829761D01*
M02*
