G04 #@! TF.GenerationSoftware,KiCad,Pcbnew,(2017-02-22 revision 4c83b0a94)-master*
G04 #@! TF.CreationDate,2017-05-12T13:52:34+03:00*
G04 #@! TF.ProjectId,T-AIM,542D41494D2E6B696361645F70636200,rev?*
G04 #@! TF.FileFunction,Copper,L2,Bot,Signal*
G04 #@! TF.FilePolarity,Positive*
%FSLAX46Y46*%
G04 Gerber Fmt 4.6, Leading zero omitted, Abs format (unit mm)*
G04 Created by KiCad (PCBNEW (2017-02-22 revision 4c83b0a94)-master) date Fri May 12 13:52:34 2017*
%MOMM*%
%LPD*%
G01*
G04 APERTURE LIST*
%ADD10C,0.100000*%
%ADD11O,1.200000X1.200000*%
%ADD12O,1.600000X1.200000*%
%ADD13C,1.879600*%
%ADD14R,1.700000X1.700000*%
%ADD15O,1.700000X1.700000*%
%ADD16C,1.450000*%
%ADD17C,0.700000*%
%ADD18C,1.300000*%
%ADD19C,0.250000*%
%ADD20C,0.254000*%
%ADD97C,0.100000*%
%ADD98C,0.250000*%
%ADD99C,0.300000*%
G04 APERTURE END LIST*
D10*
D11*
X162615000Y-109610000D03*
X160075000Y-112150000D03*
D12*
X157535000Y-109610000D03*
D13*
X135830000Y-68025000D03*
X135830000Y-70565000D03*
X133290000Y-68025000D03*
X133290000Y-70565000D03*
X130750000Y-68025000D03*
X130750000Y-70565000D03*
D14*
X156525000Y-100275000D03*
X168450000Y-72685000D03*
D15*
X168450000Y-75225000D03*
X168450000Y-77765000D03*
D16*
X179723986Y-109413828D03*
X186223986Y-109413828D03*
D17*
X157302534Y-68798946D03*
X158502534Y-68798946D03*
D15*
X175950000Y-72660000D03*
X175950000Y-75200000D03*
D14*
X175950000Y-77740000D03*
D15*
X186100000Y-85825000D03*
X186100000Y-83285000D03*
X186100000Y-80745000D03*
X186100000Y-78205000D03*
X186100000Y-75665000D03*
X186100000Y-73125000D03*
X186100000Y-70585000D03*
X186100000Y-68045000D03*
D14*
X186100000Y-65505000D03*
D15*
X133245000Y-79875000D03*
X135785000Y-79875000D03*
X138325000Y-79875000D03*
X140865000Y-79875000D03*
X143405000Y-79875000D03*
D14*
X145945000Y-79875000D03*
X149425000Y-100300000D03*
D15*
X171075000Y-70300000D03*
D14*
X173615000Y-70300000D03*
D18*
X153725000Y-103975000D03*
X152275000Y-104000000D03*
X170249990Y-95825002D03*
X175075000Y-114050000D03*
X183900000Y-100025006D03*
X164250000Y-62750000D03*
X180450000Y-73450000D03*
X150275000Y-61525000D03*
X152050000Y-65575000D03*
X149900000Y-65575000D03*
X153475000Y-115975000D03*
X139650000Y-75750000D03*
X175100000Y-100050000D03*
X132250000Y-99000000D03*
X150268986Y-59593828D03*
X191900000Y-109500000D03*
X132275000Y-92025000D03*
X201100000Y-95400000D03*
X157500000Y-97000000D03*
X154150000Y-69600000D03*
X154150000Y-68050004D03*
X155500000Y-69600000D03*
X155500000Y-68050000D03*
X170700000Y-75200000D03*
X174325002Y-90200000D03*
X165000000Y-85275000D03*
X165000000Y-88775000D03*
X174324999Y-82700000D03*
X174325000Y-85200000D03*
X180250000Y-82700000D03*
X180250000Y-85850000D03*
X170675000Y-82750000D03*
X158650000Y-64975000D03*
X158650000Y-61675000D03*
X155650000Y-88750000D03*
X155650000Y-93550000D03*
X169150000Y-81250000D03*
X178875000Y-76875000D03*
X178850000Y-81250000D03*
X169150000Y-90100000D03*
X138325000Y-82800000D03*
X160250000Y-89450000D03*
X160400000Y-82800002D03*
X135774996Y-84175000D03*
X161750000Y-84200000D03*
X161750000Y-89000000D03*
X166625000Y-84000000D03*
X177250000Y-84025000D03*
X166625000Y-89525000D03*
X164275000Y-102825000D03*
X164243986Y-112043828D03*
X156950000Y-77800000D03*
X156950000Y-91675000D03*
X158675000Y-79675000D03*
X158625000Y-90625000D03*
X155600000Y-63725000D03*
X155568986Y-66168828D03*
X171325002Y-109050000D03*
X171275000Y-93250000D03*
X172500000Y-103175000D03*
X172525000Y-94225000D03*
X165925000Y-102824998D03*
X165875000Y-105325000D03*
X131100000Y-105600000D03*
X168050000Y-102800002D03*
X168050000Y-106475000D03*
X137112689Y-106625010D03*
X134800000Y-85425000D03*
X126650000Y-85450000D03*
X134750000Y-107775000D03*
X169699998Y-107800000D03*
X169525000Y-101000000D03*
X126675000Y-65975000D03*
X127746824Y-87064577D03*
X171356466Y-91702131D03*
X171375000Y-87075000D03*
X163449998Y-87075000D03*
D19*
X170675000Y-82750000D02*
X170675000Y-75225000D01*
X170675000Y-75225000D02*
X170700000Y-75200000D01*
X174325000Y-90199998D02*
X174325002Y-90200000D01*
X174325000Y-85200000D02*
X174325000Y-90199998D01*
X165000000Y-88775000D02*
X165000000Y-85275000D01*
X174324999Y-83619238D02*
X174324999Y-82700000D01*
X174325000Y-85200000D02*
X174324999Y-83619238D01*
X180250000Y-85850000D02*
X180250000Y-82700000D01*
X158650000Y-61675000D02*
X158650000Y-64975000D01*
X155650000Y-93550000D02*
X155650000Y-88750000D01*
X169150000Y-90100000D02*
X169150000Y-81250000D01*
X178850000Y-76900000D02*
X178875000Y-76875000D01*
X178850000Y-81250000D02*
X178850000Y-76900000D01*
X138325000Y-79875000D02*
X138325000Y-82800000D01*
X160400000Y-89300000D02*
X160250000Y-89450000D01*
X160400000Y-82800002D02*
X160400000Y-89300000D01*
X138275000Y-79899842D02*
X138268986Y-79893828D01*
X135799994Y-84150002D02*
X135774996Y-84175000D01*
X135785000Y-79875000D02*
X135785000Y-84164996D01*
X135785000Y-84164996D02*
X135774996Y-84175000D01*
X161750000Y-89000000D02*
X161750000Y-84200000D01*
X177250000Y-84025000D02*
X177250000Y-73960000D01*
X177250000Y-73960000D02*
X175950000Y-72660000D01*
X166625000Y-89525000D02*
X166625000Y-84000000D01*
X164243986Y-102856014D02*
X164275000Y-102825000D01*
X164243986Y-112043828D02*
X164243986Y-102856014D01*
X156950000Y-91675000D02*
X156950000Y-77800000D01*
X158625000Y-90625000D02*
X158625000Y-79725000D01*
X158625000Y-79725000D02*
X158675000Y-79675000D01*
X171275000Y-108875000D02*
X171275000Y-108999998D01*
X171275000Y-108999998D02*
X171325002Y-109050000D01*
X171275000Y-93250000D02*
X171275000Y-108875000D01*
X172525000Y-94225000D02*
X172525000Y-103150000D01*
X172525000Y-103150000D02*
X172500000Y-103175000D01*
X165875000Y-102874998D02*
X165925000Y-102824998D01*
X165875000Y-105325000D02*
X165875000Y-102874998D01*
X131100000Y-104680762D02*
X131100000Y-105600000D01*
X131100000Y-72755000D02*
X131100000Y-104680762D01*
X133290000Y-70565000D02*
X131100000Y-72755000D01*
X168050000Y-106475000D02*
X168050000Y-102800002D01*
X137112689Y-105705772D02*
X137112689Y-106625010D01*
X137074996Y-105668079D02*
X137112689Y-105705772D01*
X137144801Y-71196105D02*
X137074996Y-71265910D01*
X135830000Y-68025000D02*
X137144801Y-69339801D01*
X137074996Y-71265910D02*
X137074996Y-105668079D01*
X137144801Y-69339801D02*
X137144801Y-71196105D01*
X134750000Y-85475000D02*
X134800000Y-85425000D01*
X134750000Y-107775000D02*
X134750000Y-85475000D01*
X126675000Y-85425000D02*
X126650000Y-85450000D01*
X126675000Y-65975000D02*
X126675000Y-85425000D01*
X169525000Y-107625002D02*
X169699998Y-107800000D01*
X169525000Y-101000000D02*
X169525000Y-107625002D01*
X127800000Y-86925000D02*
X127746824Y-86978176D01*
X130750000Y-68025000D02*
X127750001Y-71024999D01*
X127746824Y-86978176D02*
X127746824Y-87064577D01*
X127750001Y-71024999D02*
X127750001Y-86142162D01*
X127750001Y-86142162D02*
X127746824Y-86145339D01*
X127746824Y-86145339D02*
X127746824Y-87064577D01*
X171375000Y-91683597D02*
X171356466Y-91702131D01*
X171375000Y-87075000D02*
X171375000Y-91683597D01*
D20*
G36*
X170078986Y-55318828D02*
X170127703Y-55563745D01*
X170266438Y-55771376D01*
X170474069Y-55910111D01*
X170718986Y-55958828D01*
X173718986Y-55958828D01*
X173963903Y-55910111D01*
X174171534Y-55771376D01*
X174310269Y-55563745D01*
X174358986Y-55318828D01*
X174358986Y-52903828D01*
X202780949Y-52903828D01*
X204538304Y-53253388D01*
X205974674Y-54213140D01*
X206934427Y-55649512D01*
X207283986Y-57406865D01*
X207283986Y-115780791D01*
X206934427Y-117538144D01*
X205974674Y-118974516D01*
X204538304Y-119934268D01*
X202780949Y-120283828D01*
X125407023Y-120283828D01*
X123649670Y-119934269D01*
X122213298Y-118974516D01*
X121253546Y-117538146D01*
X120903986Y-115780791D01*
X120903986Y-114266643D01*
X125208616Y-114266643D01*
X125532966Y-115051628D01*
X126133027Y-115652737D01*
X126917445Y-115978456D01*
X127766801Y-115979198D01*
X128551786Y-115654848D01*
X129152895Y-115054787D01*
X129478614Y-114270369D01*
X129478617Y-114266643D01*
X198708616Y-114266643D01*
X199032966Y-115051628D01*
X199633027Y-115652737D01*
X200417445Y-115978456D01*
X201266801Y-115979198D01*
X202051786Y-115654848D01*
X202652895Y-115054787D01*
X202978614Y-114270369D01*
X202979356Y-113421013D01*
X202655006Y-112636028D01*
X202054945Y-112034919D01*
X201270527Y-111709200D01*
X200421171Y-111708458D01*
X199636186Y-112032808D01*
X199035077Y-112632869D01*
X198709358Y-113417287D01*
X198708616Y-114266643D01*
X129478617Y-114266643D01*
X129479356Y-113421013D01*
X129155006Y-112636028D01*
X128669826Y-112150000D01*
X158815805Y-112150000D01*
X158909814Y-112622614D01*
X159177528Y-113023277D01*
X159578191Y-113290991D01*
X160050805Y-113385000D01*
X160099195Y-113385000D01*
X160571809Y-113290991D01*
X160972472Y-113023277D01*
X161240186Y-112622614D01*
X161334195Y-112150000D01*
X161240186Y-111677386D01*
X160972472Y-111276723D01*
X160571809Y-111009009D01*
X160099195Y-110915000D01*
X160050805Y-110915000D01*
X159578191Y-111009009D01*
X159177528Y-111276723D01*
X158909814Y-111677386D01*
X158815805Y-112150000D01*
X128669826Y-112150000D01*
X128554945Y-112034919D01*
X127770527Y-111709200D01*
X126921171Y-111708458D01*
X126136186Y-112032808D01*
X125535077Y-112632869D01*
X125209358Y-113417287D01*
X125208616Y-114266643D01*
X120903986Y-114266643D01*
X120903986Y-109610000D01*
X156071887Y-109610000D01*
X156165896Y-110082614D01*
X156433610Y-110483277D01*
X156834273Y-110750991D01*
X157306887Y-110845000D01*
X157763113Y-110845000D01*
X158235727Y-110750991D01*
X158636390Y-110483277D01*
X158904104Y-110082614D01*
X158934936Y-109927609D01*
X161421538Y-109927609D01*
X161546503Y-110229327D01*
X161864844Y-110591080D01*
X162297389Y-110803472D01*
X162488000Y-110679714D01*
X162488000Y-109737000D01*
X161546269Y-109737000D01*
X161421538Y-109927609D01*
X158934936Y-109927609D01*
X158998113Y-109610000D01*
X158934937Y-109292391D01*
X161421538Y-109292391D01*
X161546269Y-109483000D01*
X162488000Y-109483000D01*
X162488000Y-108540286D01*
X162742000Y-108540286D01*
X162742000Y-109483000D01*
X162762000Y-109483000D01*
X162762000Y-109737000D01*
X162742000Y-109737000D01*
X162742000Y-110679714D01*
X162932611Y-110803472D01*
X163365156Y-110591080D01*
X163483986Y-110456045D01*
X163483986Y-110986822D01*
X163155251Y-111314983D01*
X162959209Y-111787104D01*
X162958763Y-112298309D01*
X163153981Y-112770771D01*
X163515141Y-113132563D01*
X163987262Y-113328605D01*
X164498467Y-113329051D01*
X164970929Y-113133833D01*
X165332721Y-112772673D01*
X165528763Y-112300552D01*
X165529209Y-111789347D01*
X165333991Y-111316885D01*
X165003986Y-110986303D01*
X165003986Y-106271317D01*
X165146155Y-106413735D01*
X165618276Y-106609777D01*
X166129481Y-106610223D01*
X166601943Y-106415005D01*
X166765194Y-106252040D01*
X166764777Y-106729481D01*
X166959995Y-107201943D01*
X167321155Y-107563735D01*
X167793276Y-107759777D01*
X168304481Y-107760223D01*
X168415072Y-107714528D01*
X168414775Y-108054481D01*
X168609993Y-108526943D01*
X168971153Y-108888735D01*
X169443274Y-109084777D01*
X169954479Y-109085223D01*
X170040001Y-109049886D01*
X170039779Y-109304481D01*
X170234997Y-109776943D01*
X170596157Y-110138735D01*
X171068278Y-110334777D01*
X171579483Y-110335223D01*
X172051945Y-110140005D01*
X172413737Y-109778845D01*
X172453468Y-109683162D01*
X178363750Y-109683162D01*
X178570362Y-110183200D01*
X178952602Y-110566108D01*
X179452278Y-110773591D01*
X179993320Y-110774064D01*
X180493358Y-110567452D01*
X180693933Y-110367226D01*
X185450193Y-110367226D01*
X185515108Y-110605581D01*
X186025132Y-110786140D01*
X186565430Y-110757777D01*
X186932864Y-110605581D01*
X186997779Y-110367226D01*
X186223986Y-109593433D01*
X185450193Y-110367226D01*
X180693933Y-110367226D01*
X180876266Y-110185212D01*
X181083749Y-109685536D01*
X181084160Y-109214974D01*
X184851674Y-109214974D01*
X184880037Y-109755272D01*
X185032233Y-110122706D01*
X185270588Y-110187621D01*
X186044381Y-109413828D01*
X186403591Y-109413828D01*
X187177384Y-110187621D01*
X187415739Y-110122706D01*
X187596298Y-109612682D01*
X187567935Y-109072384D01*
X187415739Y-108704950D01*
X187177384Y-108640035D01*
X186403591Y-109413828D01*
X186044381Y-109413828D01*
X185270588Y-108640035D01*
X185032233Y-108704950D01*
X184851674Y-109214974D01*
X181084160Y-109214974D01*
X181084222Y-109144494D01*
X180877610Y-108644456D01*
X180693906Y-108460430D01*
X185450193Y-108460430D01*
X186223986Y-109234223D01*
X186997779Y-108460430D01*
X186932864Y-108222075D01*
X186422840Y-108041516D01*
X185882542Y-108069879D01*
X185515108Y-108222075D01*
X185450193Y-108460430D01*
X180693906Y-108460430D01*
X180495370Y-108261548D01*
X179995694Y-108054065D01*
X179454652Y-108053592D01*
X178954614Y-108260204D01*
X178571706Y-108642444D01*
X178364223Y-109142120D01*
X178363750Y-109683162D01*
X172453468Y-109683162D01*
X172609779Y-109306724D01*
X172610225Y-108795519D01*
X172415007Y-108323057D01*
X172053847Y-107961265D01*
X172035000Y-107953439D01*
X172035000Y-104373293D01*
X172243276Y-104459777D01*
X172754481Y-104460223D01*
X173226943Y-104265005D01*
X173588735Y-103903845D01*
X173784777Y-103431724D01*
X173785223Y-102920519D01*
X173590005Y-102448057D01*
X173285000Y-102142518D01*
X173285000Y-95282006D01*
X173613735Y-94953845D01*
X173809777Y-94481724D01*
X173810223Y-93970519D01*
X173615005Y-93498057D01*
X173253845Y-93136265D01*
X172781724Y-92940223D01*
X172537287Y-92940010D01*
X172365005Y-92523057D01*
X172358992Y-92517034D01*
X172445201Y-92430976D01*
X172641243Y-91958855D01*
X172641689Y-91447650D01*
X172446471Y-90975188D01*
X172135000Y-90663172D01*
X172135000Y-88132006D01*
X172463735Y-87803845D01*
X172659777Y-87331724D01*
X172660223Y-86820519D01*
X172465005Y-86348057D01*
X172103845Y-85986265D01*
X171631724Y-85790223D01*
X171120519Y-85789777D01*
X170648057Y-85984995D01*
X170286265Y-86346155D01*
X170090223Y-86818276D01*
X170089777Y-87329481D01*
X170284995Y-87801943D01*
X170615000Y-88132525D01*
X170615000Y-90626624D01*
X170267731Y-90973286D01*
X170071689Y-91445407D01*
X170071243Y-91956612D01*
X170266461Y-92429074D01*
X170272474Y-92435097D01*
X170186265Y-92521155D01*
X169990223Y-92993276D01*
X169989777Y-93504481D01*
X170184995Y-93976943D01*
X170515000Y-94307525D01*
X170515000Y-100172877D01*
X170253845Y-99911265D01*
X169781724Y-99715223D01*
X169270519Y-99714777D01*
X168798057Y-99909995D01*
X168436265Y-100271155D01*
X168240223Y-100743276D01*
X168239777Y-101254481D01*
X168355963Y-101535671D01*
X168306724Y-101515225D01*
X167795519Y-101514779D01*
X167323057Y-101709997D01*
X166974733Y-102057713D01*
X166653845Y-101736263D01*
X166181724Y-101540221D01*
X165670519Y-101539775D01*
X165198057Y-101734993D01*
X165100145Y-101832734D01*
X165003845Y-101736265D01*
X164531724Y-101540223D01*
X164020519Y-101539777D01*
X163548057Y-101734995D01*
X163186265Y-102096155D01*
X162990223Y-102568276D01*
X162989777Y-103079481D01*
X163184995Y-103551943D01*
X163483986Y-103851457D01*
X163483986Y-108763955D01*
X163365156Y-108628920D01*
X162932611Y-108416528D01*
X162742000Y-108540286D01*
X162488000Y-108540286D01*
X162297389Y-108416528D01*
X161864844Y-108628920D01*
X161546503Y-108990673D01*
X161421538Y-109292391D01*
X158934937Y-109292391D01*
X158904104Y-109137386D01*
X158636390Y-108736723D01*
X158235727Y-108469009D01*
X157763113Y-108375000D01*
X157306887Y-108375000D01*
X156834273Y-108469009D01*
X156433610Y-108736723D01*
X156165896Y-109137386D01*
X156071887Y-109610000D01*
X120903986Y-109610000D01*
X120903986Y-85704481D01*
X125364777Y-85704481D01*
X125559995Y-86176943D01*
X125921155Y-86538735D01*
X126393276Y-86734777D01*
X126492355Y-86734863D01*
X126462047Y-86807853D01*
X126461601Y-87319058D01*
X126656819Y-87791520D01*
X127017979Y-88153312D01*
X127490100Y-88349354D01*
X128001305Y-88349800D01*
X128473767Y-88154582D01*
X128835559Y-87793422D01*
X129031601Y-87321301D01*
X129032047Y-86810096D01*
X128836829Y-86337634D01*
X128510001Y-86010234D01*
X128510001Y-71339801D01*
X129178201Y-70671601D01*
X129188951Y-70940828D01*
X129380420Y-71403077D01*
X129641032Y-71494363D01*
X130570395Y-70565000D01*
X130556253Y-70550858D01*
X130735858Y-70371253D01*
X130750000Y-70385395D01*
X131679363Y-69456032D01*
X131644687Y-69357036D01*
X132020273Y-68982104D01*
X132332896Y-69295273D01*
X131957399Y-69670115D01*
X131858968Y-69635637D01*
X130929605Y-70565000D01*
X130943748Y-70579143D01*
X130764143Y-70758748D01*
X130750000Y-70744605D01*
X129820637Y-71673968D01*
X129911923Y-71934580D01*
X130499833Y-72151045D01*
X130634532Y-72145666D01*
X130562599Y-72217599D01*
X130397852Y-72464161D01*
X130340000Y-72755000D01*
X130340000Y-104542994D01*
X130011265Y-104871155D01*
X129815223Y-105343276D01*
X129814777Y-105854481D01*
X130009995Y-106326943D01*
X130371155Y-106688735D01*
X130843276Y-106884777D01*
X131354481Y-106885223D01*
X131826943Y-106690005D01*
X132188735Y-106328845D01*
X132384777Y-105856724D01*
X132385223Y-105345519D01*
X132190005Y-104873057D01*
X131860000Y-104542475D01*
X131860000Y-80406827D01*
X131873039Y-80472378D01*
X132194946Y-80954147D01*
X132676715Y-81276054D01*
X133245000Y-81389093D01*
X133813285Y-81276054D01*
X134295054Y-80954147D01*
X134515000Y-80624974D01*
X134734946Y-80954147D01*
X135025000Y-81147954D01*
X135025000Y-83108008D01*
X134686261Y-83446155D01*
X134490219Y-83918276D01*
X134490006Y-84162715D01*
X134073057Y-84334995D01*
X133711265Y-84696155D01*
X133515223Y-85168276D01*
X133514777Y-85679481D01*
X133709995Y-86151943D01*
X133990000Y-86432438D01*
X133990000Y-106717994D01*
X133661265Y-107046155D01*
X133465223Y-107518276D01*
X133464777Y-108029481D01*
X133659995Y-108501943D01*
X134021155Y-108863735D01*
X134493276Y-109059777D01*
X135004481Y-109060223D01*
X135476943Y-108865005D01*
X135838735Y-108503845D01*
X136034777Y-108031724D01*
X136035223Y-107520519D01*
X135840005Y-107048057D01*
X135510000Y-106717475D01*
X135510000Y-86522006D01*
X135526943Y-86515005D01*
X135888735Y-86153845D01*
X136084777Y-85681724D01*
X136084990Y-85437285D01*
X136314996Y-85342249D01*
X136314996Y-105605631D01*
X136023954Y-105896165D01*
X135827912Y-106368286D01*
X135827466Y-106879491D01*
X136022684Y-107351953D01*
X136383844Y-107713745D01*
X136855965Y-107909787D01*
X137367170Y-107910233D01*
X137839632Y-107715015D01*
X138201424Y-107353855D01*
X138397466Y-106881734D01*
X138397912Y-106370529D01*
X138202694Y-105898067D01*
X137841534Y-105536275D01*
X137838743Y-105535116D01*
X137834996Y-105516278D01*
X137834996Y-99450000D01*
X147927560Y-99450000D01*
X147927560Y-101150000D01*
X147976843Y-101397765D01*
X148117191Y-101607809D01*
X148327235Y-101748157D01*
X148575000Y-101797440D01*
X150275000Y-101797440D01*
X150522765Y-101748157D01*
X150732809Y-101607809D01*
X150873157Y-101397765D01*
X150922440Y-101150000D01*
X150922440Y-99450000D01*
X150917468Y-99425000D01*
X155027560Y-99425000D01*
X155027560Y-101125000D01*
X155076843Y-101372765D01*
X155217191Y-101582809D01*
X155427235Y-101723157D01*
X155675000Y-101772440D01*
X157375000Y-101772440D01*
X157622765Y-101723157D01*
X157832809Y-101582809D01*
X157973157Y-101372765D01*
X158022440Y-101125000D01*
X158022440Y-99425000D01*
X157973157Y-99177235D01*
X157832809Y-98967191D01*
X157622765Y-98826843D01*
X157375000Y-98777560D01*
X155675000Y-98777560D01*
X155427235Y-98826843D01*
X155217191Y-98967191D01*
X155076843Y-99177235D01*
X155027560Y-99425000D01*
X150917468Y-99425000D01*
X150873157Y-99202235D01*
X150732809Y-98992191D01*
X150522765Y-98851843D01*
X150275000Y-98802560D01*
X148575000Y-98802560D01*
X148327235Y-98851843D01*
X148117191Y-98992191D01*
X147976843Y-99202235D01*
X147927560Y-99450000D01*
X137834996Y-99450000D01*
X137834996Y-89004481D01*
X154364777Y-89004481D01*
X154559995Y-89476943D01*
X154890000Y-89807525D01*
X154890000Y-92492994D01*
X154561265Y-92821155D01*
X154365223Y-93293276D01*
X154364777Y-93804481D01*
X154559995Y-94276943D01*
X154921155Y-94638735D01*
X155393276Y-94834777D01*
X155904481Y-94835223D01*
X156376943Y-94640005D01*
X156738735Y-94278845D01*
X156934777Y-93806724D01*
X156935223Y-93295519D01*
X156796534Y-92959867D01*
X157204481Y-92960223D01*
X157676943Y-92765005D01*
X158038735Y-92403845D01*
X158234777Y-91931724D01*
X158234844Y-91854371D01*
X158368276Y-91909777D01*
X158879481Y-91910223D01*
X159351943Y-91715005D01*
X159713735Y-91353845D01*
X159909777Y-90881724D01*
X159909935Y-90700171D01*
X159993276Y-90734777D01*
X160504481Y-90735223D01*
X160976943Y-90540005D01*
X161309190Y-90208338D01*
X161493276Y-90284777D01*
X162004481Y-90285223D01*
X162476943Y-90090005D01*
X162838735Y-89728845D01*
X163034777Y-89256724D01*
X163035223Y-88745519D01*
X162840005Y-88273057D01*
X162737756Y-88170629D01*
X163193274Y-88359777D01*
X163704479Y-88360223D01*
X163796670Y-88322130D01*
X163715223Y-88518276D01*
X163714777Y-89029481D01*
X163909995Y-89501943D01*
X164271155Y-89863735D01*
X164743276Y-90059777D01*
X165254481Y-90060223D01*
X165426422Y-89989178D01*
X165534995Y-90251943D01*
X165896155Y-90613735D01*
X166368276Y-90809777D01*
X166879481Y-90810223D01*
X167351943Y-90615005D01*
X167713735Y-90253845D01*
X167865183Y-89889118D01*
X167864777Y-90354481D01*
X168059995Y-90826943D01*
X168421155Y-91188735D01*
X168893276Y-91384777D01*
X169404481Y-91385223D01*
X169876943Y-91190005D01*
X170238735Y-90828845D01*
X170434777Y-90356724D01*
X170435223Y-89845519D01*
X170240005Y-89373057D01*
X169910000Y-89042475D01*
X169910000Y-83802517D01*
X169946155Y-83838735D01*
X170418276Y-84034777D01*
X170929481Y-84035223D01*
X171401943Y-83840005D01*
X171763735Y-83478845D01*
X171959777Y-83006724D01*
X171959822Y-82954481D01*
X173039776Y-82954481D01*
X173234994Y-83426943D01*
X173564999Y-83757526D01*
X173564999Y-84142995D01*
X173236265Y-84471155D01*
X173040223Y-84943276D01*
X173039777Y-85454481D01*
X173234995Y-85926943D01*
X173565000Y-86257525D01*
X173565000Y-89142996D01*
X173236267Y-89471155D01*
X173040225Y-89943276D01*
X173039779Y-90454481D01*
X173234997Y-90926943D01*
X173596157Y-91288735D01*
X174068278Y-91484777D01*
X174579483Y-91485223D01*
X175051945Y-91290005D01*
X175413737Y-90928845D01*
X175609779Y-90456724D01*
X175610225Y-89945519D01*
X175415007Y-89473057D01*
X175085000Y-89142473D01*
X175085000Y-86257006D01*
X175413735Y-85928845D01*
X175609777Y-85456724D01*
X175610223Y-84945519D01*
X175415005Y-84473057D01*
X175084999Y-84142474D01*
X175084999Y-83757006D01*
X175413734Y-83428845D01*
X175609776Y-82956724D01*
X175610222Y-82445519D01*
X175415004Y-81973057D01*
X175053844Y-81611265D01*
X174581723Y-81415223D01*
X174070518Y-81414777D01*
X173598056Y-81609995D01*
X173236264Y-81971155D01*
X173040222Y-82443276D01*
X173039776Y-82954481D01*
X171959822Y-82954481D01*
X171960223Y-82495519D01*
X171765005Y-82023057D01*
X171435000Y-81692475D01*
X171435000Y-76281962D01*
X171788735Y-75928845D01*
X171984777Y-75456724D01*
X171985223Y-74945519D01*
X171790005Y-74473057D01*
X171428845Y-74111265D01*
X170956724Y-73915223D01*
X170445519Y-73914777D01*
X169973057Y-74109995D01*
X169675305Y-74407227D01*
X169444292Y-74153739D01*
X169547765Y-74133157D01*
X169757809Y-73992809D01*
X169898157Y-73782765D01*
X169947440Y-73535000D01*
X169947440Y-71835000D01*
X169898157Y-71587235D01*
X169757809Y-71377191D01*
X169547765Y-71236843D01*
X169300000Y-71187560D01*
X167600000Y-71187560D01*
X167352235Y-71236843D01*
X167142191Y-71377191D01*
X167001843Y-71587235D01*
X166952560Y-71835000D01*
X166952560Y-73535000D01*
X167001843Y-73782765D01*
X167142191Y-73992809D01*
X167352235Y-74133157D01*
X167455708Y-74153739D01*
X167178355Y-74458076D01*
X167008524Y-74868110D01*
X167129845Y-75098000D01*
X168323000Y-75098000D01*
X168323000Y-75078000D01*
X168577000Y-75078000D01*
X168577000Y-75098000D01*
X168597000Y-75098000D01*
X168597000Y-75352000D01*
X168577000Y-75352000D01*
X168577000Y-75372000D01*
X168323000Y-75372000D01*
X168323000Y-75352000D01*
X167129845Y-75352000D01*
X167008524Y-75581890D01*
X167178355Y-75991924D01*
X167568642Y-76420183D01*
X167711553Y-76487298D01*
X167370853Y-76714946D01*
X167048946Y-77196715D01*
X166935907Y-77765000D01*
X167048946Y-78333285D01*
X167370853Y-78815054D01*
X167852622Y-79136961D01*
X168420907Y-79250000D01*
X168479093Y-79250000D01*
X169047378Y-79136961D01*
X169529147Y-78815054D01*
X169851054Y-78333285D01*
X169915000Y-78011807D01*
X169915000Y-80197483D01*
X169878845Y-80161265D01*
X169406724Y-79965223D01*
X168895519Y-79964777D01*
X168423057Y-80159995D01*
X168061265Y-80521155D01*
X167865223Y-80993276D01*
X167864777Y-81504481D01*
X168059995Y-81976943D01*
X168390000Y-82307525D01*
X168390000Y-89042994D01*
X168061265Y-89371155D01*
X167909817Y-89735882D01*
X167910223Y-89270519D01*
X167715005Y-88798057D01*
X167385000Y-88467475D01*
X167385000Y-85057006D01*
X167713735Y-84728845D01*
X167909777Y-84256724D01*
X167910223Y-83745519D01*
X167715005Y-83273057D01*
X167353845Y-82911265D01*
X166881724Y-82715223D01*
X166370519Y-82714777D01*
X165898057Y-82909995D01*
X165536265Y-83271155D01*
X165340223Y-83743276D01*
X165339977Y-84024793D01*
X165256724Y-83990223D01*
X164745519Y-83989777D01*
X164273057Y-84184995D01*
X163911265Y-84546155D01*
X163715223Y-85018276D01*
X163714777Y-85529481D01*
X163846495Y-85848262D01*
X163706722Y-85790223D01*
X163195517Y-85789777D01*
X162723055Y-85984995D01*
X162510000Y-86197678D01*
X162510000Y-85257006D01*
X162838735Y-84928845D01*
X163034777Y-84456724D01*
X163035223Y-83945519D01*
X162840005Y-83473057D01*
X162478845Y-83111265D01*
X162006724Y-82915223D01*
X161684901Y-82914942D01*
X161685223Y-82545521D01*
X161490005Y-82073059D01*
X161128845Y-81711267D01*
X160656724Y-81515225D01*
X160145519Y-81514779D01*
X159673057Y-81709997D01*
X159385000Y-81997551D01*
X159385000Y-80772006D01*
X159401943Y-80765005D01*
X159763735Y-80403845D01*
X159959777Y-79931724D01*
X159960223Y-79420519D01*
X159765005Y-78948057D01*
X159403845Y-78586265D01*
X158931724Y-78390223D01*
X158420519Y-78389777D01*
X158006802Y-78560722D01*
X158038735Y-78528845D01*
X158234777Y-78056724D01*
X158235223Y-77545519D01*
X158040005Y-77073057D01*
X157678845Y-76711265D01*
X157206724Y-76515223D01*
X156695519Y-76514777D01*
X156223057Y-76709995D01*
X155861265Y-77071155D01*
X155665223Y-77543276D01*
X155664777Y-78054481D01*
X155859995Y-78526943D01*
X156190000Y-78857525D01*
X156190000Y-87582850D01*
X155906724Y-87465223D01*
X155395519Y-87464777D01*
X154923057Y-87659995D01*
X154561265Y-88021155D01*
X154365223Y-88493276D01*
X154364777Y-89004481D01*
X137834996Y-89004481D01*
X137834996Y-83987911D01*
X138068276Y-84084777D01*
X138579481Y-84085223D01*
X139051943Y-83890005D01*
X139413735Y-83528845D01*
X139609777Y-83056724D01*
X139610223Y-82545519D01*
X139415005Y-82073057D01*
X139085000Y-81742475D01*
X139085000Y-81147954D01*
X139375054Y-80954147D01*
X139602702Y-80613447D01*
X139669817Y-80756358D01*
X140098076Y-81146645D01*
X140508110Y-81316476D01*
X140738000Y-81195155D01*
X140738000Y-80002000D01*
X140718000Y-80002000D01*
X140718000Y-79748000D01*
X140738000Y-79748000D01*
X140738000Y-78554845D01*
X140992000Y-78554845D01*
X140992000Y-79748000D01*
X141012000Y-79748000D01*
X141012000Y-80002000D01*
X140992000Y-80002000D01*
X140992000Y-81195155D01*
X141221890Y-81316476D01*
X141631924Y-81146645D01*
X142060183Y-80756358D01*
X142127298Y-80613447D01*
X142354946Y-80954147D01*
X142836715Y-81276054D01*
X143405000Y-81389093D01*
X143973285Y-81276054D01*
X144455054Y-80954147D01*
X144484403Y-80910223D01*
X144496843Y-80972765D01*
X144637191Y-81182809D01*
X144847235Y-81323157D01*
X145095000Y-81372440D01*
X146795000Y-81372440D01*
X147042765Y-81323157D01*
X147252809Y-81182809D01*
X147393157Y-80972765D01*
X147442440Y-80725000D01*
X147442440Y-79025000D01*
X147393157Y-78777235D01*
X147252809Y-78567191D01*
X147042765Y-78426843D01*
X146795000Y-78377560D01*
X145095000Y-78377560D01*
X144847235Y-78426843D01*
X144637191Y-78567191D01*
X144496843Y-78777235D01*
X144484403Y-78839777D01*
X144455054Y-78795853D01*
X143973285Y-78473946D01*
X143405000Y-78360907D01*
X142836715Y-78473946D01*
X142354946Y-78795853D01*
X142127298Y-79136553D01*
X142060183Y-78993642D01*
X141631924Y-78603355D01*
X141221890Y-78433524D01*
X140992000Y-78554845D01*
X140738000Y-78554845D01*
X140508110Y-78433524D01*
X140098076Y-78603355D01*
X139669817Y-78993642D01*
X139602702Y-79136553D01*
X139375054Y-78795853D01*
X138893285Y-78473946D01*
X138325000Y-78360907D01*
X137834996Y-78458375D01*
X137834996Y-71504834D01*
X137846949Y-71486945D01*
X137904801Y-71196105D01*
X137904801Y-70656892D01*
X169633514Y-70656892D01*
X169879817Y-71181358D01*
X170308076Y-71571645D01*
X170718110Y-71741476D01*
X170948000Y-71620155D01*
X170948000Y-70427000D01*
X169754181Y-70427000D01*
X169633514Y-70656892D01*
X137904801Y-70656892D01*
X137904801Y-69943108D01*
X169633514Y-69943108D01*
X169754181Y-70173000D01*
X170948000Y-70173000D01*
X170948000Y-68979845D01*
X171202000Y-68979845D01*
X171202000Y-70173000D01*
X171222000Y-70173000D01*
X171222000Y-70427000D01*
X171202000Y-70427000D01*
X171202000Y-71620155D01*
X171431890Y-71741476D01*
X171841924Y-71571645D01*
X172146261Y-71294292D01*
X172166843Y-71397765D01*
X172307191Y-71607809D01*
X172517235Y-71748157D01*
X172765000Y-71797440D01*
X174465000Y-71797440D01*
X174712765Y-71748157D01*
X174831526Y-71668803D01*
X174548946Y-72091715D01*
X174435907Y-72660000D01*
X174548946Y-73228285D01*
X174870853Y-73710054D01*
X175200026Y-73930000D01*
X174870853Y-74149946D01*
X174548946Y-74631715D01*
X174435907Y-75200000D01*
X174548946Y-75768285D01*
X174870853Y-76250054D01*
X174914777Y-76279403D01*
X174852235Y-76291843D01*
X174642191Y-76432191D01*
X174501843Y-76642235D01*
X174452560Y-76890000D01*
X174452560Y-78590000D01*
X174501843Y-78837765D01*
X174642191Y-79047809D01*
X174852235Y-79188157D01*
X175100000Y-79237440D01*
X176490000Y-79237440D01*
X176490000Y-82967994D01*
X176161265Y-83296155D01*
X175965223Y-83768276D01*
X175964777Y-84279481D01*
X176159995Y-84751943D01*
X176521155Y-85113735D01*
X176993276Y-85309777D01*
X177504481Y-85310223D01*
X177976943Y-85115005D01*
X178338735Y-84753845D01*
X178534777Y-84281724D01*
X178535223Y-83770519D01*
X178340005Y-83298057D01*
X178010000Y-82967475D01*
X178010000Y-82227385D01*
X178121155Y-82338735D01*
X178593276Y-82534777D01*
X178965143Y-82535101D01*
X178964777Y-82954481D01*
X179159995Y-83426943D01*
X179490000Y-83757525D01*
X179490000Y-84792994D01*
X179161265Y-85121155D01*
X178965223Y-85593276D01*
X178964777Y-86104481D01*
X179159995Y-86576943D01*
X179521155Y-86938735D01*
X179993276Y-87134777D01*
X180504481Y-87135223D01*
X180976943Y-86940005D01*
X181338735Y-86578845D01*
X181534777Y-86106724D01*
X181535223Y-85595519D01*
X181340005Y-85123057D01*
X181010000Y-84792475D01*
X181010000Y-83757006D01*
X181338735Y-83428845D01*
X181534777Y-82956724D01*
X181535223Y-82445519D01*
X181340005Y-81973057D01*
X180978845Y-81611265D01*
X180506724Y-81415223D01*
X180134857Y-81414899D01*
X180135223Y-80995519D01*
X179940005Y-80523057D01*
X179610000Y-80192475D01*
X179610000Y-77956962D01*
X179963735Y-77603845D01*
X180159777Y-77131724D01*
X180160223Y-76620519D01*
X179965005Y-76148057D01*
X179603845Y-75786265D01*
X179131724Y-75590223D01*
X178620519Y-75589777D01*
X178148057Y-75784995D01*
X178010000Y-75922811D01*
X178010000Y-73960000D01*
X177952148Y-73669161D01*
X177787401Y-73422599D01*
X177489802Y-73125000D01*
X184585907Y-73125000D01*
X184698946Y-73693285D01*
X185020853Y-74175054D01*
X185350026Y-74395000D01*
X185020853Y-74614946D01*
X184698946Y-75096715D01*
X184585907Y-75665000D01*
X184698946Y-76233285D01*
X185020853Y-76715054D01*
X185350026Y-76935000D01*
X185020853Y-77154946D01*
X184698946Y-77636715D01*
X184585907Y-78205000D01*
X184698946Y-78773285D01*
X185020853Y-79255054D01*
X185350026Y-79475000D01*
X185020853Y-79694946D01*
X184698946Y-80176715D01*
X184585907Y-80745000D01*
X184698946Y-81313285D01*
X185020853Y-81795054D01*
X185350026Y-82015000D01*
X185020853Y-82234946D01*
X184698946Y-82716715D01*
X184585907Y-83285000D01*
X184698946Y-83853285D01*
X185020853Y-84335054D01*
X185350026Y-84555000D01*
X185020853Y-84774946D01*
X184698946Y-85256715D01*
X184585907Y-85825000D01*
X184698946Y-86393285D01*
X185020853Y-86875054D01*
X185502622Y-87196961D01*
X186070907Y-87310000D01*
X186129093Y-87310000D01*
X186697378Y-87196961D01*
X187179147Y-86875054D01*
X187501054Y-86393285D01*
X187614093Y-85825000D01*
X187501054Y-85256715D01*
X187179147Y-84774946D01*
X186849974Y-84555000D01*
X187179147Y-84335054D01*
X187501054Y-83853285D01*
X187614093Y-83285000D01*
X187501054Y-82716715D01*
X187179147Y-82234946D01*
X186849974Y-82015000D01*
X187179147Y-81795054D01*
X187501054Y-81313285D01*
X187614093Y-80745000D01*
X187501054Y-80176715D01*
X187179147Y-79694946D01*
X186849974Y-79475000D01*
X187179147Y-79255054D01*
X187501054Y-78773285D01*
X187614093Y-78205000D01*
X187501054Y-77636715D01*
X187179147Y-77154946D01*
X186849974Y-76935000D01*
X187179147Y-76715054D01*
X187501054Y-76233285D01*
X187614093Y-75665000D01*
X187501054Y-75096715D01*
X187179147Y-74614946D01*
X186849974Y-74395000D01*
X187179147Y-74175054D01*
X187501054Y-73693285D01*
X187614093Y-73125000D01*
X187501054Y-72556715D01*
X187179147Y-72074946D01*
X186838447Y-71847298D01*
X186981358Y-71780183D01*
X187371645Y-71351924D01*
X187541476Y-70941890D01*
X187420155Y-70712000D01*
X186227000Y-70712000D01*
X186227000Y-70732000D01*
X185973000Y-70732000D01*
X185973000Y-70712000D01*
X184779845Y-70712000D01*
X184658524Y-70941890D01*
X184828355Y-71351924D01*
X185218642Y-71780183D01*
X185361553Y-71847298D01*
X185020853Y-72074946D01*
X184698946Y-72556715D01*
X184585907Y-73125000D01*
X177489802Y-73125000D01*
X177391210Y-73026408D01*
X177464093Y-72660000D01*
X177351054Y-72091715D01*
X177029147Y-71609946D01*
X176547378Y-71288039D01*
X175979093Y-71175000D01*
X175920907Y-71175000D01*
X175352622Y-71288039D01*
X174962136Y-71548953D01*
X175063157Y-71397765D01*
X175112440Y-71150000D01*
X175112440Y-69450000D01*
X175063157Y-69202235D01*
X174922809Y-68992191D01*
X174712765Y-68851843D01*
X174465000Y-68802560D01*
X172765000Y-68802560D01*
X172517235Y-68851843D01*
X172307191Y-68992191D01*
X172166843Y-69202235D01*
X172146261Y-69305708D01*
X171841924Y-69028355D01*
X171431890Y-68858524D01*
X171202000Y-68979845D01*
X170948000Y-68979845D01*
X170718110Y-68858524D01*
X170308076Y-69028355D01*
X169879817Y-69418642D01*
X169633514Y-69943108D01*
X137904801Y-69943108D01*
X137904801Y-69339801D01*
X137846949Y-69048962D01*
X137846949Y-69048961D01*
X137682202Y-68802400D01*
X137350216Y-68470414D01*
X137404526Y-68339621D01*
X137404783Y-68045000D01*
X184585907Y-68045000D01*
X184698946Y-68613285D01*
X185020853Y-69095054D01*
X185361553Y-69322702D01*
X185218642Y-69389817D01*
X184828355Y-69818076D01*
X184658524Y-70228110D01*
X184779845Y-70458000D01*
X185973000Y-70458000D01*
X185973000Y-70438000D01*
X186227000Y-70438000D01*
X186227000Y-70458000D01*
X187420155Y-70458000D01*
X187541476Y-70228110D01*
X187371645Y-69818076D01*
X186981358Y-69389817D01*
X186838447Y-69322702D01*
X187179147Y-69095054D01*
X187501054Y-68613285D01*
X187614093Y-68045000D01*
X187501054Y-67476715D01*
X187179147Y-66994946D01*
X187135223Y-66965597D01*
X187197765Y-66953157D01*
X187407809Y-66812809D01*
X187548157Y-66602765D01*
X187597440Y-66355000D01*
X187597440Y-64655000D01*
X187548157Y-64407235D01*
X187407809Y-64197191D01*
X187197765Y-64056843D01*
X186950000Y-64007560D01*
X185250000Y-64007560D01*
X185002235Y-64056843D01*
X184792191Y-64197191D01*
X184651843Y-64407235D01*
X184602560Y-64655000D01*
X184602560Y-66355000D01*
X184651843Y-66602765D01*
X184792191Y-66812809D01*
X185002235Y-66953157D01*
X185064777Y-66965597D01*
X185020853Y-66994946D01*
X184698946Y-67476715D01*
X184585907Y-68045000D01*
X137404783Y-68045000D01*
X137405073Y-67713127D01*
X137165829Y-67134113D01*
X136723217Y-66690728D01*
X136144621Y-66450474D01*
X135518127Y-66449927D01*
X134939113Y-66689171D01*
X134559727Y-67067896D01*
X134183217Y-66690728D01*
X133604621Y-66450474D01*
X132978127Y-66449927D01*
X132399113Y-66689171D01*
X132019727Y-67067896D01*
X131643217Y-66690728D01*
X131064621Y-66450474D01*
X130438127Y-66449927D01*
X129859113Y-66689171D01*
X129415728Y-67131783D01*
X129175474Y-67710379D01*
X129174927Y-68336873D01*
X129230011Y-68470187D01*
X127435000Y-70265198D01*
X127435000Y-67032006D01*
X127763735Y-66703845D01*
X127880223Y-66423309D01*
X154283763Y-66423309D01*
X154478981Y-66895771D01*
X154840141Y-67257563D01*
X155312262Y-67453605D01*
X155823467Y-67454051D01*
X156295929Y-67258833D01*
X156657721Y-66897673D01*
X156853763Y-66425552D01*
X156854209Y-65914347D01*
X156658991Y-65441885D01*
X156297831Y-65080093D01*
X155992363Y-64953251D01*
X156326943Y-64815005D01*
X156688735Y-64453845D01*
X156884777Y-63981724D01*
X156885223Y-63470519D01*
X156690005Y-62998057D01*
X156328845Y-62636265D01*
X155856724Y-62440223D01*
X155345519Y-62439777D01*
X154873057Y-62634995D01*
X154511265Y-62996155D01*
X154315223Y-63468276D01*
X154314777Y-63979481D01*
X154509995Y-64451943D01*
X154871155Y-64813735D01*
X155176623Y-64940577D01*
X154842043Y-65078823D01*
X154480251Y-65439983D01*
X154284209Y-65912104D01*
X154283763Y-66423309D01*
X127880223Y-66423309D01*
X127959777Y-66231724D01*
X127960223Y-65720519D01*
X127765005Y-65248057D01*
X127403845Y-64886265D01*
X126931724Y-64690223D01*
X126420519Y-64689777D01*
X125948057Y-64884995D01*
X125586265Y-65246155D01*
X125390223Y-65718276D01*
X125389777Y-66229481D01*
X125584995Y-66701943D01*
X125915000Y-67032525D01*
X125915000Y-84368038D01*
X125561265Y-84721155D01*
X125365223Y-85193276D01*
X125364777Y-85704481D01*
X120903986Y-85704481D01*
X120903986Y-61929481D01*
X157364777Y-61929481D01*
X157559995Y-62401943D01*
X157890000Y-62732525D01*
X157890000Y-63917994D01*
X157561265Y-64246155D01*
X157365223Y-64718276D01*
X157364777Y-65229481D01*
X157559995Y-65701943D01*
X157921155Y-66063735D01*
X158393276Y-66259777D01*
X158904481Y-66260223D01*
X159376943Y-66065005D01*
X159738735Y-65703845D01*
X159934777Y-65231724D01*
X159935223Y-64720519D01*
X159740005Y-64248057D01*
X159410000Y-63917475D01*
X159410000Y-62732006D01*
X159738735Y-62403845D01*
X159934777Y-61931724D01*
X159935223Y-61420519D01*
X159740005Y-60948057D01*
X159378845Y-60586265D01*
X158906724Y-60390223D01*
X158395519Y-60389777D01*
X157923057Y-60584995D01*
X157561265Y-60946155D01*
X157365223Y-61418276D01*
X157364777Y-61929481D01*
X120903986Y-61929481D01*
X120903986Y-59766643D01*
X125208616Y-59766643D01*
X125532966Y-60551628D01*
X126133027Y-61152737D01*
X126917445Y-61478456D01*
X127766801Y-61479198D01*
X128551786Y-61154848D01*
X129152895Y-60554787D01*
X129478614Y-59770369D01*
X129478617Y-59766643D01*
X198708616Y-59766643D01*
X199032966Y-60551628D01*
X199633027Y-61152737D01*
X200417445Y-61478456D01*
X201266801Y-61479198D01*
X202051786Y-61154848D01*
X202652895Y-60554787D01*
X202978614Y-59770369D01*
X202979356Y-58921013D01*
X202655006Y-58136028D01*
X202054945Y-57534919D01*
X201270527Y-57209200D01*
X200421171Y-57208458D01*
X199636186Y-57532808D01*
X199035077Y-58132869D01*
X198709358Y-58917287D01*
X198708616Y-59766643D01*
X129478617Y-59766643D01*
X129479356Y-58921013D01*
X129155006Y-58136028D01*
X128554945Y-57534919D01*
X127770527Y-57209200D01*
X126921171Y-57208458D01*
X126136186Y-57532808D01*
X125535077Y-58132869D01*
X125209358Y-58917287D01*
X125208616Y-59766643D01*
X120903986Y-59766643D01*
X120903986Y-57406865D01*
X121253546Y-55649510D01*
X122213298Y-54213140D01*
X123649670Y-53253387D01*
X125407023Y-52903828D01*
X170078986Y-52903828D01*
X170078986Y-55318828D01*
X170078986Y-55318828D01*
G37*
X170078986Y-55318828D02*
X170127703Y-55563745D01*
X170266438Y-55771376D01*
X170474069Y-55910111D01*
X170718986Y-55958828D01*
X173718986Y-55958828D01*
X173963903Y-55910111D01*
X174171534Y-55771376D01*
X174310269Y-55563745D01*
X174358986Y-55318828D01*
X174358986Y-52903828D01*
X202780949Y-52903828D01*
X204538304Y-53253388D01*
X205974674Y-54213140D01*
X206934427Y-55649512D01*
X207283986Y-57406865D01*
X207283986Y-115780791D01*
X206934427Y-117538144D01*
X205974674Y-118974516D01*
X204538304Y-119934268D01*
X202780949Y-120283828D01*
X125407023Y-120283828D01*
X123649670Y-119934269D01*
X122213298Y-118974516D01*
X121253546Y-117538146D01*
X120903986Y-115780791D01*
X120903986Y-114266643D01*
X125208616Y-114266643D01*
X125532966Y-115051628D01*
X126133027Y-115652737D01*
X126917445Y-115978456D01*
X127766801Y-115979198D01*
X128551786Y-115654848D01*
X129152895Y-115054787D01*
X129478614Y-114270369D01*
X129478617Y-114266643D01*
X198708616Y-114266643D01*
X199032966Y-115051628D01*
X199633027Y-115652737D01*
X200417445Y-115978456D01*
X201266801Y-115979198D01*
X202051786Y-115654848D01*
X202652895Y-115054787D01*
X202978614Y-114270369D01*
X202979356Y-113421013D01*
X202655006Y-112636028D01*
X202054945Y-112034919D01*
X201270527Y-111709200D01*
X200421171Y-111708458D01*
X199636186Y-112032808D01*
X199035077Y-112632869D01*
X198709358Y-113417287D01*
X198708616Y-114266643D01*
X129478617Y-114266643D01*
X129479356Y-113421013D01*
X129155006Y-112636028D01*
X128669826Y-112150000D01*
X158815805Y-112150000D01*
X158909814Y-112622614D01*
X159177528Y-113023277D01*
X159578191Y-113290991D01*
X160050805Y-113385000D01*
X160099195Y-113385000D01*
X160571809Y-113290991D01*
X160972472Y-113023277D01*
X161240186Y-112622614D01*
X161334195Y-112150000D01*
X161240186Y-111677386D01*
X160972472Y-111276723D01*
X160571809Y-111009009D01*
X160099195Y-110915000D01*
X160050805Y-110915000D01*
X159578191Y-111009009D01*
X159177528Y-111276723D01*
X158909814Y-111677386D01*
X158815805Y-112150000D01*
X128669826Y-112150000D01*
X128554945Y-112034919D01*
X127770527Y-111709200D01*
X126921171Y-111708458D01*
X126136186Y-112032808D01*
X125535077Y-112632869D01*
X125209358Y-113417287D01*
X125208616Y-114266643D01*
X120903986Y-114266643D01*
X120903986Y-109610000D01*
X156071887Y-109610000D01*
X156165896Y-110082614D01*
X156433610Y-110483277D01*
X156834273Y-110750991D01*
X157306887Y-110845000D01*
X157763113Y-110845000D01*
X158235727Y-110750991D01*
X158636390Y-110483277D01*
X158904104Y-110082614D01*
X158934936Y-109927609D01*
X161421538Y-109927609D01*
X161546503Y-110229327D01*
X161864844Y-110591080D01*
X162297389Y-110803472D01*
X162488000Y-110679714D01*
X162488000Y-109737000D01*
X161546269Y-109737000D01*
X161421538Y-109927609D01*
X158934936Y-109927609D01*
X158998113Y-109610000D01*
X158934937Y-109292391D01*
X161421538Y-109292391D01*
X161546269Y-109483000D01*
X162488000Y-109483000D01*
X162488000Y-108540286D01*
X162742000Y-108540286D01*
X162742000Y-109483000D01*
X162762000Y-109483000D01*
X162762000Y-109737000D01*
X162742000Y-109737000D01*
X162742000Y-110679714D01*
X162932611Y-110803472D01*
X163365156Y-110591080D01*
X163483986Y-110456045D01*
X163483986Y-110986822D01*
X163155251Y-111314983D01*
X162959209Y-111787104D01*
X162958763Y-112298309D01*
X163153981Y-112770771D01*
X163515141Y-113132563D01*
X163987262Y-113328605D01*
X164498467Y-113329051D01*
X164970929Y-113133833D01*
X165332721Y-112772673D01*
X165528763Y-112300552D01*
X165529209Y-111789347D01*
X165333991Y-111316885D01*
X165003986Y-110986303D01*
X165003986Y-106271317D01*
X165146155Y-106413735D01*
X165618276Y-106609777D01*
X166129481Y-106610223D01*
X166601943Y-106415005D01*
X166765194Y-106252040D01*
X166764777Y-106729481D01*
X166959995Y-107201943D01*
X167321155Y-107563735D01*
X167793276Y-107759777D01*
X168304481Y-107760223D01*
X168415072Y-107714528D01*
X168414775Y-108054481D01*
X168609993Y-108526943D01*
X168971153Y-108888735D01*
X169443274Y-109084777D01*
X169954479Y-109085223D01*
X170040001Y-109049886D01*
X170039779Y-109304481D01*
X170234997Y-109776943D01*
X170596157Y-110138735D01*
X171068278Y-110334777D01*
X171579483Y-110335223D01*
X172051945Y-110140005D01*
X172413737Y-109778845D01*
X172453468Y-109683162D01*
X178363750Y-109683162D01*
X178570362Y-110183200D01*
X178952602Y-110566108D01*
X179452278Y-110773591D01*
X179993320Y-110774064D01*
X180493358Y-110567452D01*
X180693933Y-110367226D01*
X185450193Y-110367226D01*
X185515108Y-110605581D01*
X186025132Y-110786140D01*
X186565430Y-110757777D01*
X186932864Y-110605581D01*
X186997779Y-110367226D01*
X186223986Y-109593433D01*
X185450193Y-110367226D01*
X180693933Y-110367226D01*
X180876266Y-110185212D01*
X181083749Y-109685536D01*
X181084160Y-109214974D01*
X184851674Y-109214974D01*
X184880037Y-109755272D01*
X185032233Y-110122706D01*
X185270588Y-110187621D01*
X186044381Y-109413828D01*
X186403591Y-109413828D01*
X187177384Y-110187621D01*
X187415739Y-110122706D01*
X187596298Y-109612682D01*
X187567935Y-109072384D01*
X187415739Y-108704950D01*
X187177384Y-108640035D01*
X186403591Y-109413828D01*
X186044381Y-109413828D01*
X185270588Y-108640035D01*
X185032233Y-108704950D01*
X184851674Y-109214974D01*
X181084160Y-109214974D01*
X181084222Y-109144494D01*
X180877610Y-108644456D01*
X180693906Y-108460430D01*
X185450193Y-108460430D01*
X186223986Y-109234223D01*
X186997779Y-108460430D01*
X186932864Y-108222075D01*
X186422840Y-108041516D01*
X185882542Y-108069879D01*
X185515108Y-108222075D01*
X185450193Y-108460430D01*
X180693906Y-108460430D01*
X180495370Y-108261548D01*
X179995694Y-108054065D01*
X179454652Y-108053592D01*
X178954614Y-108260204D01*
X178571706Y-108642444D01*
X178364223Y-109142120D01*
X178363750Y-109683162D01*
X172453468Y-109683162D01*
X172609779Y-109306724D01*
X172610225Y-108795519D01*
X172415007Y-108323057D01*
X172053847Y-107961265D01*
X172035000Y-107953439D01*
X172035000Y-104373293D01*
X172243276Y-104459777D01*
X172754481Y-104460223D01*
X173226943Y-104265005D01*
X173588735Y-103903845D01*
X173784777Y-103431724D01*
X173785223Y-102920519D01*
X173590005Y-102448057D01*
X173285000Y-102142518D01*
X173285000Y-95282006D01*
X173613735Y-94953845D01*
X173809777Y-94481724D01*
X173810223Y-93970519D01*
X173615005Y-93498057D01*
X173253845Y-93136265D01*
X172781724Y-92940223D01*
X172537287Y-92940010D01*
X172365005Y-92523057D01*
X172358992Y-92517034D01*
X172445201Y-92430976D01*
X172641243Y-91958855D01*
X172641689Y-91447650D01*
X172446471Y-90975188D01*
X172135000Y-90663172D01*
X172135000Y-88132006D01*
X172463735Y-87803845D01*
X172659777Y-87331724D01*
X172660223Y-86820519D01*
X172465005Y-86348057D01*
X172103845Y-85986265D01*
X171631724Y-85790223D01*
X171120519Y-85789777D01*
X170648057Y-85984995D01*
X170286265Y-86346155D01*
X170090223Y-86818276D01*
X170089777Y-87329481D01*
X170284995Y-87801943D01*
X170615000Y-88132525D01*
X170615000Y-90626624D01*
X170267731Y-90973286D01*
X170071689Y-91445407D01*
X170071243Y-91956612D01*
X170266461Y-92429074D01*
X170272474Y-92435097D01*
X170186265Y-92521155D01*
X169990223Y-92993276D01*
X169989777Y-93504481D01*
X170184995Y-93976943D01*
X170515000Y-94307525D01*
X170515000Y-100172877D01*
X170253845Y-99911265D01*
X169781724Y-99715223D01*
X169270519Y-99714777D01*
X168798057Y-99909995D01*
X168436265Y-100271155D01*
X168240223Y-100743276D01*
X168239777Y-101254481D01*
X168355963Y-101535671D01*
X168306724Y-101515225D01*
X167795519Y-101514779D01*
X167323057Y-101709997D01*
X166974733Y-102057713D01*
X166653845Y-101736263D01*
X166181724Y-101540221D01*
X165670519Y-101539775D01*
X165198057Y-101734993D01*
X165100145Y-101832734D01*
X165003845Y-101736265D01*
X164531724Y-101540223D01*
X164020519Y-101539777D01*
X163548057Y-101734995D01*
X163186265Y-102096155D01*
X162990223Y-102568276D01*
X162989777Y-103079481D01*
X163184995Y-103551943D01*
X163483986Y-103851457D01*
X163483986Y-108763955D01*
X163365156Y-108628920D01*
X162932611Y-108416528D01*
X162742000Y-108540286D01*
X162488000Y-108540286D01*
X162297389Y-108416528D01*
X161864844Y-108628920D01*
X161546503Y-108990673D01*
X161421538Y-109292391D01*
X158934937Y-109292391D01*
X158904104Y-109137386D01*
X158636390Y-108736723D01*
X158235727Y-108469009D01*
X157763113Y-108375000D01*
X157306887Y-108375000D01*
X156834273Y-108469009D01*
X156433610Y-108736723D01*
X156165896Y-109137386D01*
X156071887Y-109610000D01*
X120903986Y-109610000D01*
X120903986Y-85704481D01*
X125364777Y-85704481D01*
X125559995Y-86176943D01*
X125921155Y-86538735D01*
X126393276Y-86734777D01*
X126492355Y-86734863D01*
X126462047Y-86807853D01*
X126461601Y-87319058D01*
X126656819Y-87791520D01*
X127017979Y-88153312D01*
X127490100Y-88349354D01*
X128001305Y-88349800D01*
X128473767Y-88154582D01*
X128835559Y-87793422D01*
X129031601Y-87321301D01*
X129032047Y-86810096D01*
X128836829Y-86337634D01*
X128510001Y-86010234D01*
X128510001Y-71339801D01*
X129178201Y-70671601D01*
X129188951Y-70940828D01*
X129380420Y-71403077D01*
X129641032Y-71494363D01*
X130570395Y-70565000D01*
X130556253Y-70550858D01*
X130735858Y-70371253D01*
X130750000Y-70385395D01*
X131679363Y-69456032D01*
X131644687Y-69357036D01*
X132020273Y-68982104D01*
X132332896Y-69295273D01*
X131957399Y-69670115D01*
X131858968Y-69635637D01*
X130929605Y-70565000D01*
X130943748Y-70579143D01*
X130764143Y-70758748D01*
X130750000Y-70744605D01*
X129820637Y-71673968D01*
X129911923Y-71934580D01*
X130499833Y-72151045D01*
X130634532Y-72145666D01*
X130562599Y-72217599D01*
X130397852Y-72464161D01*
X130340000Y-72755000D01*
X130340000Y-104542994D01*
X130011265Y-104871155D01*
X129815223Y-105343276D01*
X129814777Y-105854481D01*
X130009995Y-106326943D01*
X130371155Y-106688735D01*
X130843276Y-106884777D01*
X131354481Y-106885223D01*
X131826943Y-106690005D01*
X132188735Y-106328845D01*
X132384777Y-105856724D01*
X132385223Y-105345519D01*
X132190005Y-104873057D01*
X131860000Y-104542475D01*
X131860000Y-80406827D01*
X131873039Y-80472378D01*
X132194946Y-80954147D01*
X132676715Y-81276054D01*
X133245000Y-81389093D01*
X133813285Y-81276054D01*
X134295054Y-80954147D01*
X134515000Y-80624974D01*
X134734946Y-80954147D01*
X135025000Y-81147954D01*
X135025000Y-83108008D01*
X134686261Y-83446155D01*
X134490219Y-83918276D01*
X134490006Y-84162715D01*
X134073057Y-84334995D01*
X133711265Y-84696155D01*
X133515223Y-85168276D01*
X133514777Y-85679481D01*
X133709995Y-86151943D01*
X133990000Y-86432438D01*
X133990000Y-106717994D01*
X133661265Y-107046155D01*
X133465223Y-107518276D01*
X133464777Y-108029481D01*
X133659995Y-108501943D01*
X134021155Y-108863735D01*
X134493276Y-109059777D01*
X135004481Y-109060223D01*
X135476943Y-108865005D01*
X135838735Y-108503845D01*
X136034777Y-108031724D01*
X136035223Y-107520519D01*
X135840005Y-107048057D01*
X135510000Y-106717475D01*
X135510000Y-86522006D01*
X135526943Y-86515005D01*
X135888735Y-86153845D01*
X136084777Y-85681724D01*
X136084990Y-85437285D01*
X136314996Y-85342249D01*
X136314996Y-105605631D01*
X136023954Y-105896165D01*
X135827912Y-106368286D01*
X135827466Y-106879491D01*
X136022684Y-107351953D01*
X136383844Y-107713745D01*
X136855965Y-107909787D01*
X137367170Y-107910233D01*
X137839632Y-107715015D01*
X138201424Y-107353855D01*
X138397466Y-106881734D01*
X138397912Y-106370529D01*
X138202694Y-105898067D01*
X137841534Y-105536275D01*
X137838743Y-105535116D01*
X137834996Y-105516278D01*
X137834996Y-99450000D01*
X147927560Y-99450000D01*
X147927560Y-101150000D01*
X147976843Y-101397765D01*
X148117191Y-101607809D01*
X148327235Y-101748157D01*
X148575000Y-101797440D01*
X150275000Y-101797440D01*
X150522765Y-101748157D01*
X150732809Y-101607809D01*
X150873157Y-101397765D01*
X150922440Y-101150000D01*
X150922440Y-99450000D01*
X150917468Y-99425000D01*
X155027560Y-99425000D01*
X155027560Y-101125000D01*
X155076843Y-101372765D01*
X155217191Y-101582809D01*
X155427235Y-101723157D01*
X155675000Y-101772440D01*
X157375000Y-101772440D01*
X157622765Y-101723157D01*
X157832809Y-101582809D01*
X157973157Y-101372765D01*
X158022440Y-101125000D01*
X158022440Y-99425000D01*
X157973157Y-99177235D01*
X157832809Y-98967191D01*
X157622765Y-98826843D01*
X157375000Y-98777560D01*
X155675000Y-98777560D01*
X155427235Y-98826843D01*
X155217191Y-98967191D01*
X155076843Y-99177235D01*
X155027560Y-99425000D01*
X150917468Y-99425000D01*
X150873157Y-99202235D01*
X150732809Y-98992191D01*
X150522765Y-98851843D01*
X150275000Y-98802560D01*
X148575000Y-98802560D01*
X148327235Y-98851843D01*
X148117191Y-98992191D01*
X147976843Y-99202235D01*
X147927560Y-99450000D01*
X137834996Y-99450000D01*
X137834996Y-89004481D01*
X154364777Y-89004481D01*
X154559995Y-89476943D01*
X154890000Y-89807525D01*
X154890000Y-92492994D01*
X154561265Y-92821155D01*
X154365223Y-93293276D01*
X154364777Y-93804481D01*
X154559995Y-94276943D01*
X154921155Y-94638735D01*
X155393276Y-94834777D01*
X155904481Y-94835223D01*
X156376943Y-94640005D01*
X156738735Y-94278845D01*
X156934777Y-93806724D01*
X156935223Y-93295519D01*
X156796534Y-92959867D01*
X157204481Y-92960223D01*
X157676943Y-92765005D01*
X158038735Y-92403845D01*
X158234777Y-91931724D01*
X158234844Y-91854371D01*
X158368276Y-91909777D01*
X158879481Y-91910223D01*
X159351943Y-91715005D01*
X159713735Y-91353845D01*
X159909777Y-90881724D01*
X159909935Y-90700171D01*
X159993276Y-90734777D01*
X160504481Y-90735223D01*
X160976943Y-90540005D01*
X161309190Y-90208338D01*
X161493276Y-90284777D01*
X162004481Y-90285223D01*
X162476943Y-90090005D01*
X162838735Y-89728845D01*
X163034777Y-89256724D01*
X163035223Y-88745519D01*
X162840005Y-88273057D01*
X162737756Y-88170629D01*
X163193274Y-88359777D01*
X163704479Y-88360223D01*
X163796670Y-88322130D01*
X163715223Y-88518276D01*
X163714777Y-89029481D01*
X163909995Y-89501943D01*
X164271155Y-89863735D01*
X164743276Y-90059777D01*
X165254481Y-90060223D01*
X165426422Y-89989178D01*
X165534995Y-90251943D01*
X165896155Y-90613735D01*
X166368276Y-90809777D01*
X166879481Y-90810223D01*
X167351943Y-90615005D01*
X167713735Y-90253845D01*
X167865183Y-89889118D01*
X167864777Y-90354481D01*
X168059995Y-90826943D01*
X168421155Y-91188735D01*
X168893276Y-91384777D01*
X169404481Y-91385223D01*
X169876943Y-91190005D01*
X170238735Y-90828845D01*
X170434777Y-90356724D01*
X170435223Y-89845519D01*
X170240005Y-89373057D01*
X169910000Y-89042475D01*
X169910000Y-83802517D01*
X169946155Y-83838735D01*
X170418276Y-84034777D01*
X170929481Y-84035223D01*
X171401943Y-83840005D01*
X171763735Y-83478845D01*
X171959777Y-83006724D01*
X171959822Y-82954481D01*
X173039776Y-82954481D01*
X173234994Y-83426943D01*
X173564999Y-83757526D01*
X173564999Y-84142995D01*
X173236265Y-84471155D01*
X173040223Y-84943276D01*
X173039777Y-85454481D01*
X173234995Y-85926943D01*
X173565000Y-86257525D01*
X173565000Y-89142996D01*
X173236267Y-89471155D01*
X173040225Y-89943276D01*
X173039779Y-90454481D01*
X173234997Y-90926943D01*
X173596157Y-91288735D01*
X174068278Y-91484777D01*
X174579483Y-91485223D01*
X175051945Y-91290005D01*
X175413737Y-90928845D01*
X175609779Y-90456724D01*
X175610225Y-89945519D01*
X175415007Y-89473057D01*
X175085000Y-89142473D01*
X175085000Y-86257006D01*
X175413735Y-85928845D01*
X175609777Y-85456724D01*
X175610223Y-84945519D01*
X175415005Y-84473057D01*
X175084999Y-84142474D01*
X175084999Y-83757006D01*
X175413734Y-83428845D01*
X175609776Y-82956724D01*
X175610222Y-82445519D01*
X175415004Y-81973057D01*
X175053844Y-81611265D01*
X174581723Y-81415223D01*
X174070518Y-81414777D01*
X173598056Y-81609995D01*
X173236264Y-81971155D01*
X173040222Y-82443276D01*
X173039776Y-82954481D01*
X171959822Y-82954481D01*
X171960223Y-82495519D01*
X171765005Y-82023057D01*
X171435000Y-81692475D01*
X171435000Y-76281962D01*
X171788735Y-75928845D01*
X171984777Y-75456724D01*
X171985223Y-74945519D01*
X171790005Y-74473057D01*
X171428845Y-74111265D01*
X170956724Y-73915223D01*
X170445519Y-73914777D01*
X169973057Y-74109995D01*
X169675305Y-74407227D01*
X169444292Y-74153739D01*
X169547765Y-74133157D01*
X169757809Y-73992809D01*
X169898157Y-73782765D01*
X169947440Y-73535000D01*
X169947440Y-71835000D01*
X169898157Y-71587235D01*
X169757809Y-71377191D01*
X169547765Y-71236843D01*
X169300000Y-71187560D01*
X167600000Y-71187560D01*
X167352235Y-71236843D01*
X167142191Y-71377191D01*
X167001843Y-71587235D01*
X166952560Y-71835000D01*
X166952560Y-73535000D01*
X167001843Y-73782765D01*
X167142191Y-73992809D01*
X167352235Y-74133157D01*
X167455708Y-74153739D01*
X167178355Y-74458076D01*
X167008524Y-74868110D01*
X167129845Y-75098000D01*
X168323000Y-75098000D01*
X168323000Y-75078000D01*
X168577000Y-75078000D01*
X168577000Y-75098000D01*
X168597000Y-75098000D01*
X168597000Y-75352000D01*
X168577000Y-75352000D01*
X168577000Y-75372000D01*
X168323000Y-75372000D01*
X168323000Y-75352000D01*
X167129845Y-75352000D01*
X167008524Y-75581890D01*
X167178355Y-75991924D01*
X167568642Y-76420183D01*
X167711553Y-76487298D01*
X167370853Y-76714946D01*
X167048946Y-77196715D01*
X166935907Y-77765000D01*
X167048946Y-78333285D01*
X167370853Y-78815054D01*
X167852622Y-79136961D01*
X168420907Y-79250000D01*
X168479093Y-79250000D01*
X169047378Y-79136961D01*
X169529147Y-78815054D01*
X169851054Y-78333285D01*
X169915000Y-78011807D01*
X169915000Y-80197483D01*
X169878845Y-80161265D01*
X169406724Y-79965223D01*
X168895519Y-79964777D01*
X168423057Y-80159995D01*
X168061265Y-80521155D01*
X167865223Y-80993276D01*
X167864777Y-81504481D01*
X168059995Y-81976943D01*
X168390000Y-82307525D01*
X168390000Y-89042994D01*
X168061265Y-89371155D01*
X167909817Y-89735882D01*
X167910223Y-89270519D01*
X167715005Y-88798057D01*
X167385000Y-88467475D01*
X167385000Y-85057006D01*
X167713735Y-84728845D01*
X167909777Y-84256724D01*
X167910223Y-83745519D01*
X167715005Y-83273057D01*
X167353845Y-82911265D01*
X166881724Y-82715223D01*
X166370519Y-82714777D01*
X165898057Y-82909995D01*
X165536265Y-83271155D01*
X165340223Y-83743276D01*
X165339977Y-84024793D01*
X165256724Y-83990223D01*
X164745519Y-83989777D01*
X164273057Y-84184995D01*
X163911265Y-84546155D01*
X163715223Y-85018276D01*
X163714777Y-85529481D01*
X163846495Y-85848262D01*
X163706722Y-85790223D01*
X163195517Y-85789777D01*
X162723055Y-85984995D01*
X162510000Y-86197678D01*
X162510000Y-85257006D01*
X162838735Y-84928845D01*
X163034777Y-84456724D01*
X163035223Y-83945519D01*
X162840005Y-83473057D01*
X162478845Y-83111265D01*
X162006724Y-82915223D01*
X161684901Y-82914942D01*
X161685223Y-82545521D01*
X161490005Y-82073059D01*
X161128845Y-81711267D01*
X160656724Y-81515225D01*
X160145519Y-81514779D01*
X159673057Y-81709997D01*
X159385000Y-81997551D01*
X159385000Y-80772006D01*
X159401943Y-80765005D01*
X159763735Y-80403845D01*
X159959777Y-79931724D01*
X159960223Y-79420519D01*
X159765005Y-78948057D01*
X159403845Y-78586265D01*
X158931724Y-78390223D01*
X158420519Y-78389777D01*
X158006802Y-78560722D01*
X158038735Y-78528845D01*
X158234777Y-78056724D01*
X158235223Y-77545519D01*
X158040005Y-77073057D01*
X157678845Y-76711265D01*
X157206724Y-76515223D01*
X156695519Y-76514777D01*
X156223057Y-76709995D01*
X155861265Y-77071155D01*
X155665223Y-77543276D01*
X155664777Y-78054481D01*
X155859995Y-78526943D01*
X156190000Y-78857525D01*
X156190000Y-87582850D01*
X155906724Y-87465223D01*
X155395519Y-87464777D01*
X154923057Y-87659995D01*
X154561265Y-88021155D01*
X154365223Y-88493276D01*
X154364777Y-89004481D01*
X137834996Y-89004481D01*
X137834996Y-83987911D01*
X138068276Y-84084777D01*
X138579481Y-84085223D01*
X139051943Y-83890005D01*
X139413735Y-83528845D01*
X139609777Y-83056724D01*
X139610223Y-82545519D01*
X139415005Y-82073057D01*
X139085000Y-81742475D01*
X139085000Y-81147954D01*
X139375054Y-80954147D01*
X139602702Y-80613447D01*
X139669817Y-80756358D01*
X140098076Y-81146645D01*
X140508110Y-81316476D01*
X140738000Y-81195155D01*
X140738000Y-80002000D01*
X140718000Y-80002000D01*
X140718000Y-79748000D01*
X140738000Y-79748000D01*
X140738000Y-78554845D01*
X140992000Y-78554845D01*
X140992000Y-79748000D01*
X141012000Y-79748000D01*
X141012000Y-80002000D01*
X140992000Y-80002000D01*
X140992000Y-81195155D01*
X141221890Y-81316476D01*
X141631924Y-81146645D01*
X142060183Y-80756358D01*
X142127298Y-80613447D01*
X142354946Y-80954147D01*
X142836715Y-81276054D01*
X143405000Y-81389093D01*
X143973285Y-81276054D01*
X144455054Y-80954147D01*
X144484403Y-80910223D01*
X144496843Y-80972765D01*
X144637191Y-81182809D01*
X144847235Y-81323157D01*
X145095000Y-81372440D01*
X146795000Y-81372440D01*
X147042765Y-81323157D01*
X147252809Y-81182809D01*
X147393157Y-80972765D01*
X147442440Y-80725000D01*
X147442440Y-79025000D01*
X147393157Y-78777235D01*
X147252809Y-78567191D01*
X147042765Y-78426843D01*
X146795000Y-78377560D01*
X145095000Y-78377560D01*
X144847235Y-78426843D01*
X144637191Y-78567191D01*
X144496843Y-78777235D01*
X144484403Y-78839777D01*
X144455054Y-78795853D01*
X143973285Y-78473946D01*
X143405000Y-78360907D01*
X142836715Y-78473946D01*
X142354946Y-78795853D01*
X142127298Y-79136553D01*
X142060183Y-78993642D01*
X141631924Y-78603355D01*
X141221890Y-78433524D01*
X140992000Y-78554845D01*
X140738000Y-78554845D01*
X140508110Y-78433524D01*
X140098076Y-78603355D01*
X139669817Y-78993642D01*
X139602702Y-79136553D01*
X139375054Y-78795853D01*
X138893285Y-78473946D01*
X138325000Y-78360907D01*
X137834996Y-78458375D01*
X137834996Y-71504834D01*
X137846949Y-71486945D01*
X137904801Y-71196105D01*
X137904801Y-70656892D01*
X169633514Y-70656892D01*
X169879817Y-71181358D01*
X170308076Y-71571645D01*
X170718110Y-71741476D01*
X170948000Y-71620155D01*
X170948000Y-70427000D01*
X169754181Y-70427000D01*
X169633514Y-70656892D01*
X137904801Y-70656892D01*
X137904801Y-69943108D01*
X169633514Y-69943108D01*
X169754181Y-70173000D01*
X170948000Y-70173000D01*
X170948000Y-68979845D01*
X171202000Y-68979845D01*
X171202000Y-70173000D01*
X171222000Y-70173000D01*
X171222000Y-70427000D01*
X171202000Y-70427000D01*
X171202000Y-71620155D01*
X171431890Y-71741476D01*
X171841924Y-71571645D01*
X172146261Y-71294292D01*
X172166843Y-71397765D01*
X172307191Y-71607809D01*
X172517235Y-71748157D01*
X172765000Y-71797440D01*
X174465000Y-71797440D01*
X174712765Y-71748157D01*
X174831526Y-71668803D01*
X174548946Y-72091715D01*
X174435907Y-72660000D01*
X174548946Y-73228285D01*
X174870853Y-73710054D01*
X175200026Y-73930000D01*
X174870853Y-74149946D01*
X174548946Y-74631715D01*
X174435907Y-75200000D01*
X174548946Y-75768285D01*
X174870853Y-76250054D01*
X174914777Y-76279403D01*
X174852235Y-76291843D01*
X174642191Y-76432191D01*
X174501843Y-76642235D01*
X174452560Y-76890000D01*
X174452560Y-78590000D01*
X174501843Y-78837765D01*
X174642191Y-79047809D01*
X174852235Y-79188157D01*
X175100000Y-79237440D01*
X176490000Y-79237440D01*
X176490000Y-82967994D01*
X176161265Y-83296155D01*
X175965223Y-83768276D01*
X175964777Y-84279481D01*
X176159995Y-84751943D01*
X176521155Y-85113735D01*
X176993276Y-85309777D01*
X177504481Y-85310223D01*
X177976943Y-85115005D01*
X178338735Y-84753845D01*
X178534777Y-84281724D01*
X178535223Y-83770519D01*
X178340005Y-83298057D01*
X178010000Y-82967475D01*
X178010000Y-82227385D01*
X178121155Y-82338735D01*
X178593276Y-82534777D01*
X178965143Y-82535101D01*
X178964777Y-82954481D01*
X179159995Y-83426943D01*
X179490000Y-83757525D01*
X179490000Y-84792994D01*
X179161265Y-85121155D01*
X178965223Y-85593276D01*
X178964777Y-86104481D01*
X179159995Y-86576943D01*
X179521155Y-86938735D01*
X179993276Y-87134777D01*
X180504481Y-87135223D01*
X180976943Y-86940005D01*
X181338735Y-86578845D01*
X181534777Y-86106724D01*
X181535223Y-85595519D01*
X181340005Y-85123057D01*
X181010000Y-84792475D01*
X181010000Y-83757006D01*
X181338735Y-83428845D01*
X181534777Y-82956724D01*
X181535223Y-82445519D01*
X181340005Y-81973057D01*
X180978845Y-81611265D01*
X180506724Y-81415223D01*
X180134857Y-81414899D01*
X180135223Y-80995519D01*
X179940005Y-80523057D01*
X179610000Y-80192475D01*
X179610000Y-77956962D01*
X179963735Y-77603845D01*
X180159777Y-77131724D01*
X180160223Y-76620519D01*
X179965005Y-76148057D01*
X179603845Y-75786265D01*
X179131724Y-75590223D01*
X178620519Y-75589777D01*
X178148057Y-75784995D01*
X178010000Y-75922811D01*
X178010000Y-73960000D01*
X177952148Y-73669161D01*
X177787401Y-73422599D01*
X177489802Y-73125000D01*
X184585907Y-73125000D01*
X184698946Y-73693285D01*
X185020853Y-74175054D01*
X185350026Y-74395000D01*
X185020853Y-74614946D01*
X184698946Y-75096715D01*
X184585907Y-75665000D01*
X184698946Y-76233285D01*
X185020853Y-76715054D01*
X185350026Y-76935000D01*
X185020853Y-77154946D01*
X184698946Y-77636715D01*
X184585907Y-78205000D01*
X184698946Y-78773285D01*
X185020853Y-79255054D01*
X185350026Y-79475000D01*
X185020853Y-79694946D01*
X184698946Y-80176715D01*
X184585907Y-80745000D01*
X184698946Y-81313285D01*
X185020853Y-81795054D01*
X185350026Y-82015000D01*
X185020853Y-82234946D01*
X184698946Y-82716715D01*
X184585907Y-83285000D01*
X184698946Y-83853285D01*
X185020853Y-84335054D01*
X185350026Y-84555000D01*
X185020853Y-84774946D01*
X184698946Y-85256715D01*
X184585907Y-85825000D01*
X184698946Y-86393285D01*
X185020853Y-86875054D01*
X185502622Y-87196961D01*
X186070907Y-87310000D01*
X186129093Y-87310000D01*
X186697378Y-87196961D01*
X187179147Y-86875054D01*
X187501054Y-86393285D01*
X187614093Y-85825000D01*
X187501054Y-85256715D01*
X187179147Y-84774946D01*
X186849974Y-84555000D01*
X187179147Y-84335054D01*
X187501054Y-83853285D01*
X187614093Y-83285000D01*
X187501054Y-82716715D01*
X187179147Y-82234946D01*
X186849974Y-82015000D01*
X187179147Y-81795054D01*
X187501054Y-81313285D01*
X187614093Y-80745000D01*
X187501054Y-80176715D01*
X187179147Y-79694946D01*
X186849974Y-79475000D01*
X187179147Y-79255054D01*
X187501054Y-78773285D01*
X187614093Y-78205000D01*
X187501054Y-77636715D01*
X187179147Y-77154946D01*
X186849974Y-76935000D01*
X187179147Y-76715054D01*
X187501054Y-76233285D01*
X187614093Y-75665000D01*
X187501054Y-75096715D01*
X187179147Y-74614946D01*
X186849974Y-74395000D01*
X187179147Y-74175054D01*
X187501054Y-73693285D01*
X187614093Y-73125000D01*
X187501054Y-72556715D01*
X187179147Y-72074946D01*
X186838447Y-71847298D01*
X186981358Y-71780183D01*
X187371645Y-71351924D01*
X187541476Y-70941890D01*
X187420155Y-70712000D01*
X186227000Y-70712000D01*
X186227000Y-70732000D01*
X185973000Y-70732000D01*
X185973000Y-70712000D01*
X184779845Y-70712000D01*
X184658524Y-70941890D01*
X184828355Y-71351924D01*
X185218642Y-71780183D01*
X185361553Y-71847298D01*
X185020853Y-72074946D01*
X184698946Y-72556715D01*
X184585907Y-73125000D01*
X177489802Y-73125000D01*
X177391210Y-73026408D01*
X177464093Y-72660000D01*
X177351054Y-72091715D01*
X177029147Y-71609946D01*
X176547378Y-71288039D01*
X175979093Y-71175000D01*
X175920907Y-71175000D01*
X175352622Y-71288039D01*
X174962136Y-71548953D01*
X175063157Y-71397765D01*
X175112440Y-71150000D01*
X175112440Y-69450000D01*
X175063157Y-69202235D01*
X174922809Y-68992191D01*
X174712765Y-68851843D01*
X174465000Y-68802560D01*
X172765000Y-68802560D01*
X172517235Y-68851843D01*
X172307191Y-68992191D01*
X172166843Y-69202235D01*
X172146261Y-69305708D01*
X171841924Y-69028355D01*
X171431890Y-68858524D01*
X171202000Y-68979845D01*
X170948000Y-68979845D01*
X170718110Y-68858524D01*
X170308076Y-69028355D01*
X169879817Y-69418642D01*
X169633514Y-69943108D01*
X137904801Y-69943108D01*
X137904801Y-69339801D01*
X137846949Y-69048962D01*
X137846949Y-69048961D01*
X137682202Y-68802400D01*
X137350216Y-68470414D01*
X137404526Y-68339621D01*
X137404783Y-68045000D01*
X184585907Y-68045000D01*
X184698946Y-68613285D01*
X185020853Y-69095054D01*
X185361553Y-69322702D01*
X185218642Y-69389817D01*
X184828355Y-69818076D01*
X184658524Y-70228110D01*
X184779845Y-70458000D01*
X185973000Y-70458000D01*
X185973000Y-70438000D01*
X186227000Y-70438000D01*
X186227000Y-70458000D01*
X187420155Y-70458000D01*
X187541476Y-70228110D01*
X187371645Y-69818076D01*
X186981358Y-69389817D01*
X186838447Y-69322702D01*
X187179147Y-69095054D01*
X187501054Y-68613285D01*
X187614093Y-68045000D01*
X187501054Y-67476715D01*
X187179147Y-66994946D01*
X187135223Y-66965597D01*
X187197765Y-66953157D01*
X187407809Y-66812809D01*
X187548157Y-66602765D01*
X187597440Y-66355000D01*
X187597440Y-64655000D01*
X187548157Y-64407235D01*
X187407809Y-64197191D01*
X187197765Y-64056843D01*
X186950000Y-64007560D01*
X185250000Y-64007560D01*
X185002235Y-64056843D01*
X184792191Y-64197191D01*
X184651843Y-64407235D01*
X184602560Y-64655000D01*
X184602560Y-66355000D01*
X184651843Y-66602765D01*
X184792191Y-66812809D01*
X185002235Y-66953157D01*
X185064777Y-66965597D01*
X185020853Y-66994946D01*
X184698946Y-67476715D01*
X184585907Y-68045000D01*
X137404783Y-68045000D01*
X137405073Y-67713127D01*
X137165829Y-67134113D01*
X136723217Y-66690728D01*
X136144621Y-66450474D01*
X135518127Y-66449927D01*
X134939113Y-66689171D01*
X134559727Y-67067896D01*
X134183217Y-66690728D01*
X133604621Y-66450474D01*
X132978127Y-66449927D01*
X132399113Y-66689171D01*
X132019727Y-67067896D01*
X131643217Y-66690728D01*
X131064621Y-66450474D01*
X130438127Y-66449927D01*
X129859113Y-66689171D01*
X129415728Y-67131783D01*
X129175474Y-67710379D01*
X129174927Y-68336873D01*
X129230011Y-68470187D01*
X127435000Y-70265198D01*
X127435000Y-67032006D01*
X127763735Y-66703845D01*
X127880223Y-66423309D01*
X154283763Y-66423309D01*
X154478981Y-66895771D01*
X154840141Y-67257563D01*
X155312262Y-67453605D01*
X155823467Y-67454051D01*
X156295929Y-67258833D01*
X156657721Y-66897673D01*
X156853763Y-66425552D01*
X156854209Y-65914347D01*
X156658991Y-65441885D01*
X156297831Y-65080093D01*
X155992363Y-64953251D01*
X156326943Y-64815005D01*
X156688735Y-64453845D01*
X156884777Y-63981724D01*
X156885223Y-63470519D01*
X156690005Y-62998057D01*
X156328845Y-62636265D01*
X155856724Y-62440223D01*
X155345519Y-62439777D01*
X154873057Y-62634995D01*
X154511265Y-62996155D01*
X154315223Y-63468276D01*
X154314777Y-63979481D01*
X154509995Y-64451943D01*
X154871155Y-64813735D01*
X155176623Y-64940577D01*
X154842043Y-65078823D01*
X154480251Y-65439983D01*
X154284209Y-65912104D01*
X154283763Y-66423309D01*
X127880223Y-66423309D01*
X127959777Y-66231724D01*
X127960223Y-65720519D01*
X127765005Y-65248057D01*
X127403845Y-64886265D01*
X126931724Y-64690223D01*
X126420519Y-64689777D01*
X125948057Y-64884995D01*
X125586265Y-65246155D01*
X125390223Y-65718276D01*
X125389777Y-66229481D01*
X125584995Y-66701943D01*
X125915000Y-67032525D01*
X125915000Y-84368038D01*
X125561265Y-84721155D01*
X125365223Y-85193276D01*
X125364777Y-85704481D01*
X120903986Y-85704481D01*
X120903986Y-61929481D01*
X157364777Y-61929481D01*
X157559995Y-62401943D01*
X157890000Y-62732525D01*
X157890000Y-63917994D01*
X157561265Y-64246155D01*
X157365223Y-64718276D01*
X157364777Y-65229481D01*
X157559995Y-65701943D01*
X157921155Y-66063735D01*
X158393276Y-66259777D01*
X158904481Y-66260223D01*
X159376943Y-66065005D01*
X159738735Y-65703845D01*
X159934777Y-65231724D01*
X159935223Y-64720519D01*
X159740005Y-64248057D01*
X159410000Y-63917475D01*
X159410000Y-62732006D01*
X159738735Y-62403845D01*
X159934777Y-61931724D01*
X159935223Y-61420519D01*
X159740005Y-60948057D01*
X159378845Y-60586265D01*
X158906724Y-60390223D01*
X158395519Y-60389777D01*
X157923057Y-60584995D01*
X157561265Y-60946155D01*
X157365223Y-61418276D01*
X157364777Y-61929481D01*
X120903986Y-61929481D01*
X120903986Y-59766643D01*
X125208616Y-59766643D01*
X125532966Y-60551628D01*
X126133027Y-61152737D01*
X126917445Y-61478456D01*
X127766801Y-61479198D01*
X128551786Y-61154848D01*
X129152895Y-60554787D01*
X129478614Y-59770369D01*
X129478617Y-59766643D01*
X198708616Y-59766643D01*
X199032966Y-60551628D01*
X199633027Y-61152737D01*
X200417445Y-61478456D01*
X201266801Y-61479198D01*
X202051786Y-61154848D01*
X202652895Y-60554787D01*
X202978614Y-59770369D01*
X202979356Y-58921013D01*
X202655006Y-58136028D01*
X202054945Y-57534919D01*
X201270527Y-57209200D01*
X200421171Y-57208458D01*
X199636186Y-57532808D01*
X199035077Y-58132869D01*
X198709358Y-58917287D01*
X198708616Y-59766643D01*
X129478617Y-59766643D01*
X129479356Y-58921013D01*
X129155006Y-58136028D01*
X128554945Y-57534919D01*
X127770527Y-57209200D01*
X126921171Y-57208458D01*
X126136186Y-57532808D01*
X125535077Y-58132869D01*
X125209358Y-58917287D01*
X125208616Y-59766643D01*
X120903986Y-59766643D01*
X120903986Y-57406865D01*
X121253546Y-55649510D01*
X122213298Y-54213140D01*
X123649670Y-53253387D01*
X125407023Y-52903828D01*
X170078986Y-52903828D01*
X170078986Y-55318828D01*
%LPC*%
D97*
D98*
X148361309Y-58677380D02*
X147789880Y-58677380D01*
X148200595Y-59677380D02*
X148075595Y-58677380D01*
X147194642Y-59629761D02*
X147295833Y-59677380D01*
X147486309Y-59677380D01*
X147575595Y-59629761D01*
X147611309Y-59534523D01*
X147563690Y-59153571D01*
X147504166Y-59058333D01*
X147402976Y-59010714D01*
X147212500Y-59010714D01*
X147123214Y-59058333D01*
X147087500Y-59153571D01*
X147099404Y-59248809D01*
X147587500Y-59344047D01*
X146641071Y-59010714D02*
X146724404Y-59677380D01*
X146652976Y-59105952D02*
X146599404Y-59058333D01*
X146498214Y-59010714D01*
X146355357Y-59010714D01*
X146266071Y-59058333D01*
X146230357Y-59153571D01*
X146295833Y-59677380D01*
X145391071Y-59677380D02*
X145325595Y-59153571D01*
X145361309Y-59058333D01*
X145450595Y-59010714D01*
X145641071Y-59010714D01*
X145742261Y-59058333D01*
X145385119Y-59629761D02*
X145486309Y-59677380D01*
X145724404Y-59677380D01*
X145813690Y-59629761D01*
X145849404Y-59534523D01*
X145837500Y-59439285D01*
X145777976Y-59344047D01*
X145676785Y-59296428D01*
X145438690Y-59296428D01*
X145337500Y-59248809D01*
X144402976Y-59010714D02*
X144504166Y-59820238D01*
X144563690Y-59915476D01*
X144617261Y-59963095D01*
X144718452Y-60010714D01*
X144861309Y-60010714D01*
X144950595Y-59963095D01*
X144480357Y-59629761D02*
X144581547Y-59677380D01*
X144772023Y-59677380D01*
X144861309Y-59629761D01*
X144902976Y-59582142D01*
X144938690Y-59486904D01*
X144902976Y-59201190D01*
X144843452Y-59105952D01*
X144789880Y-59058333D01*
X144688690Y-59010714D01*
X144498214Y-59010714D01*
X144408928Y-59058333D01*
X143623214Y-59629761D02*
X143724404Y-59677380D01*
X143914880Y-59677380D01*
X144004166Y-59629761D01*
X144039880Y-59534523D01*
X143992261Y-59153571D01*
X143932738Y-59058333D01*
X143831547Y-59010714D01*
X143641071Y-59010714D01*
X143551785Y-59058333D01*
X143516071Y-59153571D01*
X143527976Y-59248809D01*
X144016071Y-59344047D01*
X143152976Y-59677380D02*
X143069642Y-59010714D01*
X143093452Y-59201190D02*
X143033928Y-59105952D01*
X142980357Y-59058333D01*
X142879166Y-59010714D01*
X142783928Y-59010714D01*
X141772023Y-59677380D02*
X141647023Y-58677380D01*
X141402976Y-59391666D01*
X140980357Y-58677380D01*
X141105357Y-59677380D01*
X140242261Y-59629761D02*
X140343452Y-59677380D01*
X140533928Y-59677380D01*
X140623214Y-59629761D01*
X140658928Y-59534523D01*
X140611309Y-59153571D01*
X140551785Y-59058333D01*
X140450595Y-59010714D01*
X140260119Y-59010714D01*
X140170833Y-59058333D01*
X140135119Y-59153571D01*
X140147023Y-59248809D01*
X140635119Y-59344047D01*
X139772023Y-59677380D02*
X139647023Y-58677380D01*
X139629166Y-59296428D02*
X139391071Y-59677380D01*
X139307738Y-59010714D02*
X139736309Y-59391666D01*
X138819642Y-59677380D02*
X138908928Y-59629761D01*
X138950595Y-59582142D01*
X138986309Y-59486904D01*
X138950595Y-59201190D01*
X138891071Y-59105952D01*
X138837500Y-59058333D01*
X138736309Y-59010714D01*
X138593452Y-59010714D01*
X138504166Y-59058333D01*
X138462500Y-59105952D01*
X138426785Y-59201190D01*
X138462500Y-59486904D01*
X138522023Y-59582142D01*
X138575595Y-59629761D01*
X138676785Y-59677380D01*
X138819642Y-59677380D01*
X137974404Y-59010714D02*
X138057738Y-59677380D01*
X137986309Y-59105952D02*
X137932738Y-59058333D01*
X137831547Y-59010714D01*
X137688690Y-59010714D01*
X137599404Y-59058333D01*
X137563690Y-59153571D01*
X137629166Y-59677380D01*
X137069642Y-59010714D02*
X137152976Y-59677380D01*
X137081547Y-59105952D02*
X137027976Y-59058333D01*
X136926785Y-59010714D01*
X136783928Y-59010714D01*
X136694642Y-59058333D01*
X136658928Y-59153571D01*
X136724404Y-59677380D01*
X135861309Y-59629761D02*
X135962500Y-59677380D01*
X136152976Y-59677380D01*
X136242261Y-59629761D01*
X136277976Y-59534523D01*
X136230357Y-59153571D01*
X136170833Y-59058333D01*
X136069642Y-59010714D01*
X135879166Y-59010714D01*
X135789880Y-59058333D01*
X135754166Y-59153571D01*
X135766071Y-59248809D01*
X136254166Y-59344047D01*
X135307738Y-59010714D02*
X135391071Y-59677380D01*
X135319642Y-59105952D02*
X135266071Y-59058333D01*
X135164880Y-59010714D01*
X135022023Y-59010714D01*
X134932738Y-59058333D01*
X134897023Y-59153571D01*
X134962500Y-59677380D01*
X132914880Y-59677380D02*
X132962500Y-59677380D01*
X133051785Y-59629761D01*
X133176785Y-59486904D01*
X133379166Y-59201190D01*
X133456547Y-59058333D01*
X133486309Y-58915476D01*
X133474404Y-58820238D01*
X133414880Y-58725000D01*
X133313690Y-58677380D01*
X133266071Y-58677380D01*
X133176785Y-58725000D01*
X133141071Y-58820238D01*
X133147023Y-58867857D01*
X133206547Y-58963095D01*
X133260119Y-59010714D01*
X133569642Y-59201190D01*
X133623214Y-59248809D01*
X133682738Y-59344047D01*
X133700595Y-59486904D01*
X133664880Y-59582142D01*
X133623214Y-59629761D01*
X133533928Y-59677380D01*
X133391071Y-59677380D01*
X133289880Y-59629761D01*
X133236309Y-59582142D01*
X133069642Y-59391666D01*
X133004166Y-59248809D01*
X132992261Y-59153571D01*
X147932738Y-60427380D02*
X148022023Y-61141666D01*
X148087500Y-61284523D01*
X148194642Y-61379761D01*
X148343452Y-61427380D01*
X148438690Y-61427380D01*
X147152976Y-61427380D02*
X147087500Y-60903571D01*
X147123214Y-60808333D01*
X147212500Y-60760714D01*
X147402976Y-60760714D01*
X147504166Y-60808333D01*
X147147023Y-61379761D02*
X147248214Y-61427380D01*
X147486309Y-61427380D01*
X147575595Y-61379761D01*
X147611309Y-61284523D01*
X147599404Y-61189285D01*
X147539880Y-61094047D01*
X147438690Y-61046428D01*
X147200595Y-61046428D01*
X147099404Y-60998809D01*
X146593452Y-60760714D02*
X146676785Y-61427380D01*
X146605357Y-60855952D02*
X146551785Y-60808333D01*
X146450595Y-60760714D01*
X146307738Y-60760714D01*
X146218452Y-60808333D01*
X146182738Y-60903571D01*
X146248214Y-61427380D01*
X145772023Y-61427380D02*
X145688690Y-60760714D01*
X145647023Y-60427380D02*
X145700595Y-60475000D01*
X145658928Y-60522619D01*
X145605357Y-60475000D01*
X145647023Y-60427380D01*
X145658928Y-60522619D01*
X144551785Y-60427380D02*
X144343452Y-61427380D01*
X143885119Y-60427380D01*
X143248214Y-61427380D02*
X143182738Y-60903571D01*
X143218452Y-60808333D01*
X143307738Y-60760714D01*
X143498214Y-60760714D01*
X143599404Y-60808333D01*
X143242261Y-61379761D02*
X143343452Y-61427380D01*
X143581547Y-61427380D01*
X143670833Y-61379761D01*
X143706547Y-61284523D01*
X143694642Y-61189285D01*
X143635119Y-61094047D01*
X143533928Y-61046428D01*
X143295833Y-61046428D01*
X143194642Y-60998809D01*
X143551785Y-60427380D02*
X143510119Y-60475000D01*
X143563690Y-60522619D01*
X143605357Y-60475000D01*
X143551785Y-60427380D01*
X143563690Y-60522619D01*
X143170833Y-60427380D02*
X143129166Y-60475000D01*
X143182738Y-60522619D01*
X143224404Y-60475000D01*
X143170833Y-60427380D01*
X143182738Y-60522619D01*
X142783928Y-60760714D02*
X142629166Y-61427380D01*
X142307738Y-60760714D02*
X142629166Y-61427380D01*
X142754166Y-61665476D01*
X142807738Y-61713095D01*
X142908928Y-61760714D01*
X142010119Y-61427380D02*
X141926785Y-60760714D01*
X141950595Y-60951190D02*
X141891071Y-60855952D01*
X141837500Y-60808333D01*
X141736309Y-60760714D01*
X141641071Y-60760714D01*
X141402976Y-60760714D02*
X141248214Y-61427380D01*
X140926785Y-60760714D02*
X141248214Y-61427380D01*
X141373214Y-61665476D01*
X141426785Y-61713095D01*
X141527976Y-61760714D01*
X140545833Y-60760714D02*
X140629166Y-61427380D01*
X140557738Y-60855952D02*
X140504166Y-60808333D01*
X140402976Y-60760714D01*
X140260119Y-60760714D01*
X140170833Y-60808333D01*
X140135119Y-60903571D01*
X140200595Y-61427380D01*
X139337500Y-61379761D02*
X139438690Y-61427380D01*
X139629166Y-61427380D01*
X139718452Y-61379761D01*
X139754166Y-61284523D01*
X139706547Y-60903571D01*
X139647023Y-60808333D01*
X139545833Y-60760714D01*
X139355357Y-60760714D01*
X139266071Y-60808333D01*
X139230357Y-60903571D01*
X139242261Y-60998809D01*
X139730357Y-61094047D01*
X138783928Y-60760714D02*
X138867261Y-61427380D01*
X138795833Y-60855952D02*
X138742261Y-60808333D01*
X138641071Y-60760714D01*
X138498214Y-60760714D01*
X138408928Y-60808333D01*
X138373214Y-60903571D01*
X138438690Y-61427380D01*
D99*
X148190714Y-56253571D02*
X147333571Y-56253571D01*
X147949642Y-57753571D02*
X147762142Y-56253571D01*
X146949642Y-57182142D02*
X145806785Y-57182142D01*
X145181785Y-57325000D02*
X144467500Y-57325000D01*
X145378214Y-57753571D02*
X144690714Y-56253571D01*
X144378214Y-57753571D01*
X143878214Y-57753571D02*
X143690714Y-56253571D01*
X143163928Y-57753571D02*
X142976428Y-56253571D01*
X142610357Y-57325000D01*
X141976428Y-56253571D01*
X142163928Y-57753571D01*
X140324642Y-56753571D02*
X140092500Y-57753571D01*
X139610357Y-56753571D01*
X138690714Y-56253571D02*
X138547857Y-56253571D01*
X138413928Y-56325000D01*
X138351428Y-56396428D01*
X138297857Y-56539285D01*
X138262142Y-56825000D01*
X138306785Y-57182142D01*
X138413928Y-57467857D01*
X138503214Y-57610714D01*
X138583571Y-57682142D01*
X138735357Y-57753571D01*
X138878214Y-57753571D01*
X139012142Y-57682142D01*
X139074642Y-57610714D01*
X139128214Y-57467857D01*
X139163928Y-57182142D01*
X139119285Y-56825000D01*
X139012142Y-56539285D01*
X138922857Y-56396428D01*
X138842500Y-56325000D01*
X138690714Y-56253571D01*
X137717500Y-57610714D02*
X137655000Y-57682142D01*
X137735357Y-57753571D01*
X137797857Y-57682142D01*
X137717500Y-57610714D01*
X137735357Y-57753571D01*
X136976428Y-56253571D02*
X136047857Y-56253571D01*
X136619285Y-56825000D01*
X136405000Y-56825000D01*
X136271071Y-56896428D01*
X136208571Y-56967857D01*
X136155000Y-57110714D01*
X136199642Y-57467857D01*
X136288928Y-57610714D01*
X136369285Y-57682142D01*
X136521071Y-57753571D01*
X136949642Y-57753571D01*
X137083571Y-57682142D01*
X137146071Y-57610714D01*
M02*
