G04 #@! TF.GenerationSoftware,KiCad,Pcbnew,(2017-02-22 revision 4c83b0a94)-master*
G04 #@! TF.CreationDate,2017-05-12T13:52:34+03:00*
G04 #@! TF.ProjectId,T-AIM,542D41494D2E6B696361645F70636200,rev?*
G04 #@! TF.FileFunction,Glue,Bot*
G04 #@! TF.FilePolarity,Positive*
%FSLAX46Y46*%
G04 Gerber Fmt 4.6, Leading zero omitted, Abs format (unit mm)*
G04 Created by KiCad (PCBNEW (2017-02-22 revision 4c83b0a94)-master) date Fri May 12 13:52:34 2017*
%MOMM*%
%LPD*%
G01*
G04 APERTURE LIST*
%ADD10C,0.100000*%
%ADD11C,0.250000*%
%ADD12C,0.300000*%
G04 APERTURE END LIST*
D10*
D11*
X148361309Y-58677380D02*
X147789880Y-58677380D01*
X148200595Y-59677380D02*
X148075595Y-58677380D01*
X147194642Y-59629761D02*
X147295833Y-59677380D01*
X147486309Y-59677380D01*
X147575595Y-59629761D01*
X147611309Y-59534523D01*
X147563690Y-59153571D01*
X147504166Y-59058333D01*
X147402976Y-59010714D01*
X147212500Y-59010714D01*
X147123214Y-59058333D01*
X147087500Y-59153571D01*
X147099404Y-59248809D01*
X147587500Y-59344047D01*
X146641071Y-59010714D02*
X146724404Y-59677380D01*
X146652976Y-59105952D02*
X146599404Y-59058333D01*
X146498214Y-59010714D01*
X146355357Y-59010714D01*
X146266071Y-59058333D01*
X146230357Y-59153571D01*
X146295833Y-59677380D01*
X145391071Y-59677380D02*
X145325595Y-59153571D01*
X145361309Y-59058333D01*
X145450595Y-59010714D01*
X145641071Y-59010714D01*
X145742261Y-59058333D01*
X145385119Y-59629761D02*
X145486309Y-59677380D01*
X145724404Y-59677380D01*
X145813690Y-59629761D01*
X145849404Y-59534523D01*
X145837500Y-59439285D01*
X145777976Y-59344047D01*
X145676785Y-59296428D01*
X145438690Y-59296428D01*
X145337500Y-59248809D01*
X144402976Y-59010714D02*
X144504166Y-59820238D01*
X144563690Y-59915476D01*
X144617261Y-59963095D01*
X144718452Y-60010714D01*
X144861309Y-60010714D01*
X144950595Y-59963095D01*
X144480357Y-59629761D02*
X144581547Y-59677380D01*
X144772023Y-59677380D01*
X144861309Y-59629761D01*
X144902976Y-59582142D01*
X144938690Y-59486904D01*
X144902976Y-59201190D01*
X144843452Y-59105952D01*
X144789880Y-59058333D01*
X144688690Y-59010714D01*
X144498214Y-59010714D01*
X144408928Y-59058333D01*
X143623214Y-59629761D02*
X143724404Y-59677380D01*
X143914880Y-59677380D01*
X144004166Y-59629761D01*
X144039880Y-59534523D01*
X143992261Y-59153571D01*
X143932738Y-59058333D01*
X143831547Y-59010714D01*
X143641071Y-59010714D01*
X143551785Y-59058333D01*
X143516071Y-59153571D01*
X143527976Y-59248809D01*
X144016071Y-59344047D01*
X143152976Y-59677380D02*
X143069642Y-59010714D01*
X143093452Y-59201190D02*
X143033928Y-59105952D01*
X142980357Y-59058333D01*
X142879166Y-59010714D01*
X142783928Y-59010714D01*
X141772023Y-59677380D02*
X141647023Y-58677380D01*
X141402976Y-59391666D01*
X140980357Y-58677380D01*
X141105357Y-59677380D01*
X140242261Y-59629761D02*
X140343452Y-59677380D01*
X140533928Y-59677380D01*
X140623214Y-59629761D01*
X140658928Y-59534523D01*
X140611309Y-59153571D01*
X140551785Y-59058333D01*
X140450595Y-59010714D01*
X140260119Y-59010714D01*
X140170833Y-59058333D01*
X140135119Y-59153571D01*
X140147023Y-59248809D01*
X140635119Y-59344047D01*
X139772023Y-59677380D02*
X139647023Y-58677380D01*
X139629166Y-59296428D02*
X139391071Y-59677380D01*
X139307738Y-59010714D02*
X139736309Y-59391666D01*
X138819642Y-59677380D02*
X138908928Y-59629761D01*
X138950595Y-59582142D01*
X138986309Y-59486904D01*
X138950595Y-59201190D01*
X138891071Y-59105952D01*
X138837500Y-59058333D01*
X138736309Y-59010714D01*
X138593452Y-59010714D01*
X138504166Y-59058333D01*
X138462500Y-59105952D01*
X138426785Y-59201190D01*
X138462500Y-59486904D01*
X138522023Y-59582142D01*
X138575595Y-59629761D01*
X138676785Y-59677380D01*
X138819642Y-59677380D01*
X137974404Y-59010714D02*
X138057738Y-59677380D01*
X137986309Y-59105952D02*
X137932738Y-59058333D01*
X137831547Y-59010714D01*
X137688690Y-59010714D01*
X137599404Y-59058333D01*
X137563690Y-59153571D01*
X137629166Y-59677380D01*
X137069642Y-59010714D02*
X137152976Y-59677380D01*
X137081547Y-59105952D02*
X137027976Y-59058333D01*
X136926785Y-59010714D01*
X136783928Y-59010714D01*
X136694642Y-59058333D01*
X136658928Y-59153571D01*
X136724404Y-59677380D01*
X135861309Y-59629761D02*
X135962500Y-59677380D01*
X136152976Y-59677380D01*
X136242261Y-59629761D01*
X136277976Y-59534523D01*
X136230357Y-59153571D01*
X136170833Y-59058333D01*
X136069642Y-59010714D01*
X135879166Y-59010714D01*
X135789880Y-59058333D01*
X135754166Y-59153571D01*
X135766071Y-59248809D01*
X136254166Y-59344047D01*
X135307738Y-59010714D02*
X135391071Y-59677380D01*
X135319642Y-59105952D02*
X135266071Y-59058333D01*
X135164880Y-59010714D01*
X135022023Y-59010714D01*
X134932738Y-59058333D01*
X134897023Y-59153571D01*
X134962500Y-59677380D01*
X132914880Y-59677380D02*
X132962500Y-59677380D01*
X133051785Y-59629761D01*
X133176785Y-59486904D01*
X133379166Y-59201190D01*
X133456547Y-59058333D01*
X133486309Y-58915476D01*
X133474404Y-58820238D01*
X133414880Y-58725000D01*
X133313690Y-58677380D01*
X133266071Y-58677380D01*
X133176785Y-58725000D01*
X133141071Y-58820238D01*
X133147023Y-58867857D01*
X133206547Y-58963095D01*
X133260119Y-59010714D01*
X133569642Y-59201190D01*
X133623214Y-59248809D01*
X133682738Y-59344047D01*
X133700595Y-59486904D01*
X133664880Y-59582142D01*
X133623214Y-59629761D01*
X133533928Y-59677380D01*
X133391071Y-59677380D01*
X133289880Y-59629761D01*
X133236309Y-59582142D01*
X133069642Y-59391666D01*
X133004166Y-59248809D01*
X132992261Y-59153571D01*
X147932738Y-60427380D02*
X148022023Y-61141666D01*
X148087500Y-61284523D01*
X148194642Y-61379761D01*
X148343452Y-61427380D01*
X148438690Y-61427380D01*
X147152976Y-61427380D02*
X147087500Y-60903571D01*
X147123214Y-60808333D01*
X147212500Y-60760714D01*
X147402976Y-60760714D01*
X147504166Y-60808333D01*
X147147023Y-61379761D02*
X147248214Y-61427380D01*
X147486309Y-61427380D01*
X147575595Y-61379761D01*
X147611309Y-61284523D01*
X147599404Y-61189285D01*
X147539880Y-61094047D01*
X147438690Y-61046428D01*
X147200595Y-61046428D01*
X147099404Y-60998809D01*
X146593452Y-60760714D02*
X146676785Y-61427380D01*
X146605357Y-60855952D02*
X146551785Y-60808333D01*
X146450595Y-60760714D01*
X146307738Y-60760714D01*
X146218452Y-60808333D01*
X146182738Y-60903571D01*
X146248214Y-61427380D01*
X145772023Y-61427380D02*
X145688690Y-60760714D01*
X145647023Y-60427380D02*
X145700595Y-60475000D01*
X145658928Y-60522619D01*
X145605357Y-60475000D01*
X145647023Y-60427380D01*
X145658928Y-60522619D01*
X144551785Y-60427380D02*
X144343452Y-61427380D01*
X143885119Y-60427380D01*
X143248214Y-61427380D02*
X143182738Y-60903571D01*
X143218452Y-60808333D01*
X143307738Y-60760714D01*
X143498214Y-60760714D01*
X143599404Y-60808333D01*
X143242261Y-61379761D02*
X143343452Y-61427380D01*
X143581547Y-61427380D01*
X143670833Y-61379761D01*
X143706547Y-61284523D01*
X143694642Y-61189285D01*
X143635119Y-61094047D01*
X143533928Y-61046428D01*
X143295833Y-61046428D01*
X143194642Y-60998809D01*
X143551785Y-60427380D02*
X143510119Y-60475000D01*
X143563690Y-60522619D01*
X143605357Y-60475000D01*
X143551785Y-60427380D01*
X143563690Y-60522619D01*
X143170833Y-60427380D02*
X143129166Y-60475000D01*
X143182738Y-60522619D01*
X143224404Y-60475000D01*
X143170833Y-60427380D01*
X143182738Y-60522619D01*
X142783928Y-60760714D02*
X142629166Y-61427380D01*
X142307738Y-60760714D02*
X142629166Y-61427380D01*
X142754166Y-61665476D01*
X142807738Y-61713095D01*
X142908928Y-61760714D01*
X142010119Y-61427380D02*
X141926785Y-60760714D01*
X141950595Y-60951190D02*
X141891071Y-60855952D01*
X141837500Y-60808333D01*
X141736309Y-60760714D01*
X141641071Y-60760714D01*
X141402976Y-60760714D02*
X141248214Y-61427380D01*
X140926785Y-60760714D02*
X141248214Y-61427380D01*
X141373214Y-61665476D01*
X141426785Y-61713095D01*
X141527976Y-61760714D01*
X140545833Y-60760714D02*
X140629166Y-61427380D01*
X140557738Y-60855952D02*
X140504166Y-60808333D01*
X140402976Y-60760714D01*
X140260119Y-60760714D01*
X140170833Y-60808333D01*
X140135119Y-60903571D01*
X140200595Y-61427380D01*
X139337500Y-61379761D02*
X139438690Y-61427380D01*
X139629166Y-61427380D01*
X139718452Y-61379761D01*
X139754166Y-61284523D01*
X139706547Y-60903571D01*
X139647023Y-60808333D01*
X139545833Y-60760714D01*
X139355357Y-60760714D01*
X139266071Y-60808333D01*
X139230357Y-60903571D01*
X139242261Y-60998809D01*
X139730357Y-61094047D01*
X138783928Y-60760714D02*
X138867261Y-61427380D01*
X138795833Y-60855952D02*
X138742261Y-60808333D01*
X138641071Y-60760714D01*
X138498214Y-60760714D01*
X138408928Y-60808333D01*
X138373214Y-60903571D01*
X138438690Y-61427380D01*
D12*
X148190714Y-56253571D02*
X147333571Y-56253571D01*
X147949642Y-57753571D02*
X147762142Y-56253571D01*
X146949642Y-57182142D02*
X145806785Y-57182142D01*
X145181785Y-57325000D02*
X144467500Y-57325000D01*
X145378214Y-57753571D02*
X144690714Y-56253571D01*
X144378214Y-57753571D01*
X143878214Y-57753571D02*
X143690714Y-56253571D01*
X143163928Y-57753571D02*
X142976428Y-56253571D01*
X142610357Y-57325000D01*
X141976428Y-56253571D01*
X142163928Y-57753571D01*
X140324642Y-56753571D02*
X140092500Y-57753571D01*
X139610357Y-56753571D01*
X138690714Y-56253571D02*
X138547857Y-56253571D01*
X138413928Y-56325000D01*
X138351428Y-56396428D01*
X138297857Y-56539285D01*
X138262142Y-56825000D01*
X138306785Y-57182142D01*
X138413928Y-57467857D01*
X138503214Y-57610714D01*
X138583571Y-57682142D01*
X138735357Y-57753571D01*
X138878214Y-57753571D01*
X139012142Y-57682142D01*
X139074642Y-57610714D01*
X139128214Y-57467857D01*
X139163928Y-57182142D01*
X139119285Y-56825000D01*
X139012142Y-56539285D01*
X138922857Y-56396428D01*
X138842500Y-56325000D01*
X138690714Y-56253571D01*
X137717500Y-57610714D02*
X137655000Y-57682142D01*
X137735357Y-57753571D01*
X137797857Y-57682142D01*
X137717500Y-57610714D01*
X137735357Y-57753571D01*
X136976428Y-56253571D02*
X136047857Y-56253571D01*
X136619285Y-56825000D01*
X136405000Y-56825000D01*
X136271071Y-56896428D01*
X136208571Y-56967857D01*
X136155000Y-57110714D01*
X136199642Y-57467857D01*
X136288928Y-57610714D01*
X136369285Y-57682142D01*
X136521071Y-57753571D01*
X136949642Y-57753571D01*
X137083571Y-57682142D01*
X137146071Y-57610714D01*
M02*
