G04 #@! TF.GenerationSoftware,KiCad,Pcbnew,(2017-02-22 revision 4c83b0a94)-master*
G04 #@! TF.CreationDate,2017-05-12T13:52:34+03:00*
G04 #@! TF.ProjectId,T-AIM,542D41494D2E6B696361645F70636200,rev?*
G04 #@! TF.FileFunction,Soldermask,Bot*
G04 #@! TF.FilePolarity,Negative*
%FSLAX46Y46*%
G04 Gerber Fmt 4.6, Leading zero omitted, Abs format (unit mm)*
G04 Created by KiCad (PCBNEW (2017-02-22 revision 4c83b0a94)-master) date Fri May 12 13:52:34 2017*
%MOMM*%
%LPD*%
G01*
G04 APERTURE LIST*
%ADD10C,0.100000*%
%ADD11C,3.000000*%
%ADD12C,3.400000*%
%ADD13O,1.600000X1.600000*%
%ADD14O,2.000000X1.600000*%
%ADD15R,2.100000X2.100000*%
%ADD16O,2.100000X2.100000*%
%ADD17C,1.850000*%
%ADD18C,1.700000*%
G04 APERTURE END LIST*
D10*
D11*
X202843986Y-113843828D02*
G75*
G03X202843986Y-113843828I-2000000J0D01*
G01*
X129343986Y-113843828D02*
G75*
G03X129343986Y-113843828I-2000000J0D01*
G01*
X129343986Y-59343828D02*
G75*
G03X129343986Y-59343828I-2000000J0D01*
G01*
X202843986Y-59343828D02*
G75*
G03X202843986Y-59343828I-2000000J0D01*
G01*
D12*
X200843986Y-113843828D03*
X127343986Y-113843828D03*
X127343986Y-59343828D03*
X200843986Y-59343828D03*
D13*
X162615000Y-109610000D03*
X160075000Y-112150000D03*
D14*
X157535000Y-109610000D03*
D15*
X156525000Y-100275000D03*
X168450000Y-72685000D03*
D16*
X168450000Y-75225000D03*
X168450000Y-77765000D03*
D17*
X179723986Y-109413828D03*
X186223986Y-109413828D03*
D16*
X175950000Y-72660000D03*
X175950000Y-75200000D03*
D15*
X175950000Y-77740000D03*
D16*
X186100000Y-85825000D03*
X186100000Y-83285000D03*
X186100000Y-80745000D03*
X186100000Y-78205000D03*
X186100000Y-75665000D03*
X186100000Y-73125000D03*
X186100000Y-70585000D03*
X186100000Y-68045000D03*
D15*
X186100000Y-65505000D03*
D16*
X133245000Y-79875000D03*
X135785000Y-79875000D03*
X138325000Y-79875000D03*
X140865000Y-79875000D03*
X143405000Y-79875000D03*
D15*
X145945000Y-79875000D03*
X149425000Y-100300000D03*
D16*
X171075000Y-70300000D03*
D15*
X173615000Y-70300000D03*
D18*
X153725000Y-103975000D03*
X152275000Y-104000000D03*
X170249990Y-95825002D03*
X175075000Y-114050000D03*
X183900000Y-100025006D03*
X164250000Y-62750000D03*
X180450000Y-73450000D03*
X150275000Y-61525000D03*
X152050000Y-65575000D03*
X149900000Y-65575000D03*
X153475000Y-115975000D03*
X139650000Y-75750000D03*
X175100000Y-100050000D03*
X132250000Y-99000000D03*
X150268986Y-59593828D03*
X191900000Y-109500000D03*
X132275000Y-92025000D03*
X201100000Y-95400000D03*
X157500000Y-97000000D03*
X154150000Y-69600000D03*
X154150000Y-68050004D03*
X155500000Y-69600000D03*
X155500000Y-68050000D03*
X170700000Y-75200000D03*
X174325002Y-90200000D03*
X165000000Y-85275000D03*
X165000000Y-88775000D03*
X174324999Y-82700000D03*
X174325000Y-85200000D03*
X180250000Y-82700000D03*
X180250000Y-85850000D03*
X170675000Y-82750000D03*
X158650000Y-64975000D03*
X158650000Y-61675000D03*
X155650000Y-88750000D03*
X155650000Y-93550000D03*
X169150000Y-81250000D03*
X178875000Y-76875000D03*
X178850000Y-81250000D03*
X169150000Y-90100000D03*
X138325000Y-82800000D03*
X160250000Y-89450000D03*
X160400000Y-82800002D03*
X135774996Y-84175000D03*
X161750000Y-84200000D03*
X161750000Y-89000000D03*
X166625000Y-84000000D03*
X177250000Y-84025000D03*
X166625000Y-89525000D03*
X164275000Y-102825000D03*
X164243986Y-112043828D03*
X156950000Y-77800000D03*
X156950000Y-91675000D03*
X158675000Y-79675000D03*
X158625000Y-90625000D03*
X155600000Y-63725000D03*
X155568986Y-66168828D03*
X171325002Y-109050000D03*
X171275000Y-93250000D03*
X172500000Y-103175000D03*
X172525000Y-94225000D03*
X165925000Y-102824998D03*
X165875000Y-105325000D03*
X131100000Y-105600000D03*
X168050000Y-102800002D03*
X168050000Y-106475000D03*
X137112689Y-106625010D03*
X134800000Y-85425000D03*
X126650000Y-85450000D03*
X134750000Y-107775000D03*
X169699998Y-107800000D03*
X169525000Y-101000000D03*
X126675000Y-65975000D03*
X127746824Y-87064577D03*
X171356466Y-91702131D03*
X171375000Y-87075000D03*
X163449998Y-87075000D03*
M02*
