G04 #@! TF.GenerationSoftware,KiCad,Pcbnew,(2017-02-22 revision 4c83b0a94)-master*
G04 #@! TF.CreationDate,2017-05-12T13:52:34+03:00*
G04 #@! TF.ProjectId,T-AIM,542D41494D2E6B696361645F70636200,rev?*
G04 #@! TF.FileFunction,Glue,Top*
G04 #@! TF.FilePolarity,Positive*
%FSLAX46Y46*%
G04 Gerber Fmt 4.6, Leading zero omitted, Abs format (unit mm)*
G04 Created by KiCad (PCBNEW (2017-02-22 revision 4c83b0a94)-master) date Fri May 12 13:52:34 2017*
%MOMM*%
%LPD*%
G01*
G04 APERTURE LIST*
%ADD10C,0.100000*%
%ADD11C,0.250000*%
%ADD12C,0.125000*%
%ADD13C,0.200000*%
G04 APERTURE END LIST*
D10*
D11*
X136613616Y-110278571D02*
X136750520Y-110326190D01*
X136792187Y-110373809D01*
X136827901Y-110469047D01*
X136810044Y-110611904D01*
X136750520Y-110707142D01*
X136696949Y-110754761D01*
X136595758Y-110802380D01*
X136214806Y-110802380D01*
X136339806Y-109802380D01*
X136673139Y-109802380D01*
X136762425Y-109850000D01*
X136804092Y-109897619D01*
X136839806Y-109992857D01*
X136827901Y-110088095D01*
X136768377Y-110183333D01*
X136714806Y-110230952D01*
X136613616Y-110278571D01*
X136280282Y-110278571D01*
X137357663Y-110802380D02*
X137268377Y-110754761D01*
X137232663Y-110659523D01*
X137339806Y-109802380D01*
X138250520Y-110135714D02*
X138167187Y-110802380D01*
X137821949Y-110135714D02*
X137756473Y-110659523D01*
X137792187Y-110754761D01*
X137881473Y-110802380D01*
X138024330Y-110802380D01*
X138125520Y-110754761D01*
X138179092Y-110707142D01*
X139030282Y-110754761D02*
X138929092Y-110802380D01*
X138738616Y-110802380D01*
X138649330Y-110754761D01*
X138613616Y-110659523D01*
X138661235Y-110278571D01*
X138720758Y-110183333D01*
X138821949Y-110135714D01*
X139012425Y-110135714D01*
X139101711Y-110183333D01*
X139137425Y-110278571D01*
X139125520Y-110373809D01*
X138637425Y-110469047D01*
X139440997Y-110135714D02*
X139821949Y-110135714D01*
X139625520Y-109802380D02*
X139518377Y-110659523D01*
X139554092Y-110754761D01*
X139643377Y-110802380D01*
X139738616Y-110802380D01*
X140214806Y-110802380D02*
X140125520Y-110754761D01*
X140083854Y-110707142D01*
X140048139Y-110611904D01*
X140083854Y-110326190D01*
X140143377Y-110230952D01*
X140196949Y-110183333D01*
X140298139Y-110135714D01*
X140440997Y-110135714D01*
X140530282Y-110183333D01*
X140571949Y-110230952D01*
X140607663Y-110326190D01*
X140571949Y-110611904D01*
X140512425Y-110707142D01*
X140458854Y-110754761D01*
X140357663Y-110802380D01*
X140214806Y-110802380D01*
X141119568Y-110802380D02*
X141030282Y-110754761D01*
X140988616Y-110707142D01*
X140952901Y-110611904D01*
X140988616Y-110326190D01*
X141048139Y-110230952D01*
X141101711Y-110183333D01*
X141202901Y-110135714D01*
X141345758Y-110135714D01*
X141435044Y-110183333D01*
X141476711Y-110230952D01*
X141512425Y-110326190D01*
X141476711Y-110611904D01*
X141417187Y-110707142D01*
X141363616Y-110754761D01*
X141262425Y-110802380D01*
X141119568Y-110802380D01*
X141821949Y-110135714D02*
X142202901Y-110135714D01*
X142006473Y-109802380D02*
X141899330Y-110659523D01*
X141935044Y-110754761D01*
X142024330Y-110802380D01*
X142119568Y-110802380D01*
X142452901Y-110802380D02*
X142577901Y-109802380D01*
X142881473Y-110802380D02*
X142946949Y-110278571D01*
X142911235Y-110183333D01*
X142821949Y-110135714D01*
X142679092Y-110135714D01*
X142577901Y-110183333D01*
X142524330Y-110230952D01*
X137167187Y-112552380D02*
X137292187Y-111552380D01*
X137536235Y-112266666D01*
X137958854Y-111552380D01*
X137833854Y-112552380D01*
X138452901Y-112552380D02*
X138363616Y-112504761D01*
X138321949Y-112457142D01*
X138286235Y-112361904D01*
X138321949Y-112076190D01*
X138381473Y-111980952D01*
X138435044Y-111933333D01*
X138536235Y-111885714D01*
X138679092Y-111885714D01*
X138768377Y-111933333D01*
X138810044Y-111980952D01*
X138845758Y-112076190D01*
X138810044Y-112361904D01*
X138750520Y-112457142D01*
X138696949Y-112504761D01*
X138595758Y-112552380D01*
X138452901Y-112552380D01*
X139643377Y-112552380D02*
X139768377Y-111552380D01*
X139649330Y-112504761D02*
X139548139Y-112552380D01*
X139357663Y-112552380D01*
X139268377Y-112504761D01*
X139226711Y-112457142D01*
X139190997Y-112361904D01*
X139226711Y-112076190D01*
X139286235Y-111980952D01*
X139339806Y-111933333D01*
X139440997Y-111885714D01*
X139631473Y-111885714D01*
X139720758Y-111933333D01*
X140631473Y-111885714D02*
X140548139Y-112552380D01*
X140202901Y-111885714D02*
X140137425Y-112409523D01*
X140173139Y-112504761D01*
X140262425Y-112552380D01*
X140405282Y-112552380D01*
X140506473Y-112504761D01*
X140560044Y-112457142D01*
X141167187Y-112552380D02*
X141077901Y-112504761D01*
X141042187Y-112409523D01*
X141149330Y-111552380D01*
X141935044Y-112504761D02*
X141833854Y-112552380D01*
X141643377Y-112552380D01*
X141554092Y-112504761D01*
X141518377Y-112409523D01*
X141565997Y-112028571D01*
X141625520Y-111933333D01*
X141726711Y-111885714D01*
X141917187Y-111885714D01*
X142006473Y-111933333D01*
X142042187Y-112028571D01*
X142030282Y-112123809D01*
X141542187Y-112219047D01*
X137190997Y-114302380D02*
X137315997Y-113302380D01*
X137256473Y-113778571D02*
X137827901Y-113778571D01*
X137762425Y-114302380D02*
X137887425Y-113302380D01*
X138821949Y-114207142D02*
X138768377Y-114254761D01*
X138619568Y-114302380D01*
X138524330Y-114302380D01*
X138387425Y-114254761D01*
X138304092Y-114159523D01*
X138268377Y-114064285D01*
X138244568Y-113873809D01*
X138262425Y-113730952D01*
X138333854Y-113540476D01*
X138393377Y-113445238D01*
X138500520Y-113350000D01*
X138649330Y-113302380D01*
X138744568Y-113302380D01*
X138881473Y-113350000D01*
X138923139Y-113397619D01*
X139286235Y-113921428D02*
X140048139Y-113921428D01*
X140792187Y-113302380D02*
X140887425Y-113302380D01*
X140976711Y-113350000D01*
X141018377Y-113397619D01*
X141054092Y-113492857D01*
X141077901Y-113683333D01*
X141048139Y-113921428D01*
X140976711Y-114111904D01*
X140917187Y-114207142D01*
X140863616Y-114254761D01*
X140762425Y-114302380D01*
X140667187Y-114302380D01*
X140577901Y-114254761D01*
X140536235Y-114207142D01*
X140500520Y-114111904D01*
X140476711Y-113921428D01*
X140506473Y-113683333D01*
X140577901Y-113492857D01*
X140637425Y-113397619D01*
X140690997Y-113350000D01*
X140792187Y-113302380D01*
X142030282Y-113302380D02*
X141554092Y-113302380D01*
X141446949Y-113778571D01*
X141500520Y-113730952D01*
X141601711Y-113683333D01*
X141839806Y-113683333D01*
X141929092Y-113730952D01*
X141970758Y-113778571D01*
X142006473Y-113873809D01*
X141976711Y-114111904D01*
X141917187Y-114207142D01*
X141863616Y-114254761D01*
X141762425Y-114302380D01*
X141524330Y-114302380D01*
X141435044Y-114254761D01*
X141393377Y-114207142D01*
D12*
X151277641Y-74901190D02*
X151563355Y-74901190D01*
X151357998Y-75401190D02*
X151420498Y-74901190D01*
X151667522Y-75401190D02*
X151730022Y-74901190D01*
X151920498Y-74901190D01*
X151965141Y-74925000D01*
X151985974Y-74948809D01*
X152003831Y-74996428D01*
X151994903Y-75067857D01*
X151965141Y-75115476D01*
X151938355Y-75139285D01*
X151887760Y-75163095D01*
X151697284Y-75163095D01*
X152146688Y-75377380D02*
X152215141Y-75401190D01*
X152334188Y-75401190D01*
X152384784Y-75377380D01*
X152411569Y-75353571D01*
X152441331Y-75305952D01*
X152447284Y-75258333D01*
X152429427Y-75210714D01*
X152408593Y-75186904D01*
X152363950Y-75163095D01*
X152271688Y-75139285D01*
X152227046Y-75115476D01*
X152206212Y-75091666D01*
X152188355Y-75044047D01*
X152194308Y-74996428D01*
X152224069Y-74948809D01*
X152250855Y-74925000D01*
X152301450Y-74901190D01*
X152420498Y-74901190D01*
X152488950Y-74925000D01*
X152920498Y-74901190D02*
X152825260Y-74901190D01*
X152774665Y-74925000D01*
X152747879Y-74948809D01*
X152691331Y-75020238D01*
X152655617Y-75115476D01*
X152631808Y-75305952D01*
X152649665Y-75353571D01*
X152670498Y-75377380D01*
X152715141Y-75401190D01*
X152810379Y-75401190D01*
X152860974Y-75377380D01*
X152887760Y-75353571D01*
X152917522Y-75305952D01*
X152932403Y-75186904D01*
X152914546Y-75139285D01*
X152893712Y-75115476D01*
X152849069Y-75091666D01*
X152753831Y-75091666D01*
X152703236Y-75115476D01*
X152676450Y-75139285D01*
X152646688Y-75186904D01*
X153381808Y-75401190D02*
X153096093Y-75401190D01*
X153238950Y-75401190D02*
X153301450Y-74901190D01*
X153244903Y-74972619D01*
X153191331Y-75020238D01*
X153140736Y-75044047D01*
X153628831Y-74948809D02*
X153655617Y-74925000D01*
X153706212Y-74901190D01*
X153825260Y-74901190D01*
X153869903Y-74925000D01*
X153890736Y-74948809D01*
X153908593Y-74996428D01*
X153902641Y-75044047D01*
X153869903Y-75115476D01*
X153548474Y-75401190D01*
X153857998Y-75401190D01*
X154230022Y-74901190D02*
X154277641Y-74901190D01*
X154322284Y-74925000D01*
X154343117Y-74948809D01*
X154360974Y-74996428D01*
X154372879Y-75091666D01*
X154357998Y-75210714D01*
X154322284Y-75305952D01*
X154292522Y-75353571D01*
X154265736Y-75377380D01*
X154215141Y-75401190D01*
X154167522Y-75401190D01*
X154122879Y-75377380D01*
X154102046Y-75353571D01*
X154084188Y-75305952D01*
X154072284Y-75210714D01*
X154087165Y-75091666D01*
X154122879Y-74996428D01*
X154152641Y-74948809D01*
X154179427Y-74925000D01*
X154230022Y-74901190D01*
X154706212Y-74901190D02*
X154753831Y-74901190D01*
X154798474Y-74925000D01*
X154819308Y-74948809D01*
X154837165Y-74996428D01*
X154849069Y-75091666D01*
X154834188Y-75210714D01*
X154798474Y-75305952D01*
X154768712Y-75353571D01*
X154741927Y-75377380D01*
X154691331Y-75401190D01*
X154643712Y-75401190D01*
X154599069Y-75377380D01*
X154578236Y-75353571D01*
X154560379Y-75305952D01*
X154548474Y-75210714D01*
X154563355Y-75091666D01*
X154599069Y-74996428D01*
X154628831Y-74948809D01*
X154655617Y-74925000D01*
X154706212Y-74901190D01*
X151765736Y-75776190D02*
X151869903Y-76276190D01*
X152099069Y-75776190D01*
X152274665Y-76276190D02*
X152230022Y-76252380D01*
X152209188Y-76228571D01*
X152191331Y-76180952D01*
X152209188Y-76038095D01*
X152238950Y-75990476D01*
X152265736Y-75966666D01*
X152316331Y-75942857D01*
X152387760Y-75942857D01*
X152432403Y-75966666D01*
X152453236Y-75990476D01*
X152471093Y-76038095D01*
X152453236Y-76180952D01*
X152423474Y-76228571D01*
X152396688Y-76252380D01*
X152346093Y-76276190D01*
X152274665Y-76276190D01*
X152727046Y-76276190D02*
X152682403Y-76252380D01*
X152664546Y-76204761D01*
X152718117Y-75776190D01*
X152887760Y-75942857D02*
X153078236Y-75942857D01*
X152980022Y-75776190D02*
X152926450Y-76204761D01*
X152944308Y-76252380D01*
X152988950Y-76276190D01*
X153036569Y-76276190D01*
X153417522Y-76276190D02*
X153450260Y-76014285D01*
X153432403Y-75966666D01*
X153387760Y-75942857D01*
X153292522Y-75942857D01*
X153241927Y-75966666D01*
X153420498Y-76252380D02*
X153369903Y-76276190D01*
X153250855Y-76276190D01*
X153206212Y-76252380D01*
X153188355Y-76204761D01*
X153194308Y-76157142D01*
X153224069Y-76109523D01*
X153274665Y-76085714D01*
X153393712Y-76085714D01*
X153444308Y-76061904D01*
X153911569Y-75942857D02*
X153860974Y-76347619D01*
X153831212Y-76395238D01*
X153804427Y-76419047D01*
X153753831Y-76442857D01*
X153682403Y-76442857D01*
X153637760Y-76419047D01*
X153872879Y-76252380D02*
X153822284Y-76276190D01*
X153727046Y-76276190D01*
X153682403Y-76252380D01*
X153661569Y-76228571D01*
X153643712Y-76180952D01*
X153661569Y-76038095D01*
X153691331Y-75990476D01*
X153718117Y-75966666D01*
X153768712Y-75942857D01*
X153863950Y-75942857D01*
X153908593Y-75966666D01*
X154301450Y-76252380D02*
X154250855Y-76276190D01*
X154155617Y-76276190D01*
X154110974Y-76252380D01*
X154093117Y-76204761D01*
X154116927Y-76014285D01*
X154146688Y-75966666D01*
X154197284Y-75942857D01*
X154292522Y-75942857D01*
X154337165Y-75966666D01*
X154355022Y-76014285D01*
X154349069Y-76061904D01*
X154105022Y-76109523D01*
X151643712Y-77151190D02*
X151506808Y-76913095D01*
X151357998Y-77151190D02*
X151420498Y-76651190D01*
X151610974Y-76651190D01*
X151655617Y-76675000D01*
X151676450Y-76698809D01*
X151694308Y-76746428D01*
X151685379Y-76817857D01*
X151655617Y-76865476D01*
X151628831Y-76889285D01*
X151578236Y-76913095D01*
X151387760Y-76913095D01*
X152051450Y-77127380D02*
X152000855Y-77151190D01*
X151905617Y-77151190D01*
X151860974Y-77127380D01*
X151843117Y-77079761D01*
X151866927Y-76889285D01*
X151896688Y-76841666D01*
X151947284Y-76817857D01*
X152042522Y-76817857D01*
X152087165Y-76841666D01*
X152105022Y-76889285D01*
X152099069Y-76936904D01*
X151855022Y-76984523D01*
X152542522Y-76817857D02*
X152491927Y-77222619D01*
X152462165Y-77270238D01*
X152435379Y-77294047D01*
X152384784Y-77317857D01*
X152313355Y-77317857D01*
X152268712Y-77294047D01*
X152503831Y-77127380D02*
X152453236Y-77151190D01*
X152357998Y-77151190D01*
X152313355Y-77127380D01*
X152292522Y-77103571D01*
X152274665Y-77055952D01*
X152292522Y-76913095D01*
X152322284Y-76865476D01*
X152349069Y-76841666D01*
X152399665Y-76817857D01*
X152494903Y-76817857D01*
X152539546Y-76841666D01*
X152994903Y-76817857D02*
X152953236Y-77151190D01*
X152780617Y-76817857D02*
X152747879Y-77079761D01*
X152765736Y-77127380D01*
X152810379Y-77151190D01*
X152881808Y-77151190D01*
X152932403Y-77127380D01*
X152959188Y-77103571D01*
X153262760Y-77151190D02*
X153218117Y-77127380D01*
X153200260Y-77079761D01*
X153253831Y-76651190D01*
X153667522Y-77151190D02*
X153700260Y-76889285D01*
X153682403Y-76841666D01*
X153637760Y-76817857D01*
X153542522Y-76817857D01*
X153491927Y-76841666D01*
X153670498Y-77127380D02*
X153619903Y-77151190D01*
X153500855Y-77151190D01*
X153456212Y-77127380D01*
X153438355Y-77079761D01*
X153444308Y-77032142D01*
X153474069Y-76984523D01*
X153524665Y-76960714D01*
X153643712Y-76960714D01*
X153694308Y-76936904D01*
X153875855Y-76817857D02*
X154066331Y-76817857D01*
X153968117Y-76651190D02*
X153914546Y-77079761D01*
X153932403Y-77127380D01*
X153977046Y-77151190D01*
X154024665Y-77151190D01*
X154262760Y-77151190D02*
X154218117Y-77127380D01*
X154197284Y-77103571D01*
X154179427Y-77055952D01*
X154197284Y-76913095D01*
X154227046Y-76865476D01*
X154253831Y-76841666D01*
X154304427Y-76817857D01*
X154375855Y-76817857D01*
X154420498Y-76841666D01*
X154441331Y-76865476D01*
X154459188Y-76913095D01*
X154441331Y-77055952D01*
X154411569Y-77103571D01*
X154384784Y-77127380D01*
X154334188Y-77151190D01*
X154262760Y-77151190D01*
X154643712Y-77151190D02*
X154685379Y-76817857D01*
X154673474Y-76913095D02*
X154703236Y-76865476D01*
X154730022Y-76841666D01*
X154780617Y-76817857D01*
X154828236Y-76817857D01*
D13*
X147497830Y-78772602D02*
X147367250Y-78772602D01*
X147497830Y-79822602D02*
X147497830Y-78772602D01*
X131743986Y-78793828D02*
X131518986Y-78793828D01*
X131518986Y-78793828D02*
X131518986Y-79721863D01*
X177722878Y-112260885D02*
G75*
G03X179043986Y-113943828I5321108J2817057D01*
G01*
X180226929Y-104122720D02*
G75*
G03X178543986Y-105443828I2817057J-5321108D01*
G01*
X156040819Y-112226517D02*
G75*
G03X157343986Y-113568828I4003167J2582689D01*
G01*
X161386599Y-114247076D02*
G75*
G03X163093986Y-113343828I-1342613J4603248D01*
G01*
X147518986Y-116393828D02*
X147518986Y-115393828D01*
X166681116Y-58411396D02*
X166681116Y-59424785D01*
X167694505Y-58411396D02*
X166681116Y-58411396D01*
X183850000Y-86600000D02*
G75*
G03X184850000Y-87600000I1000000J0D01*
G01*
X200875000Y-87550000D02*
G75*
G03X201875000Y-86550000I0J1000000D01*
G01*
X184825000Y-63375000D02*
G75*
G03X183825000Y-64375000I0J-1000000D01*
G01*
D12*
X170245498Y-63777380D02*
X170313950Y-63801190D01*
X170432998Y-63801190D01*
X170483593Y-63777380D01*
X170510379Y-63753571D01*
X170540141Y-63705952D01*
X170546093Y-63658333D01*
X170528236Y-63610714D01*
X170507403Y-63586904D01*
X170462760Y-63563095D01*
X170370498Y-63539285D01*
X170325855Y-63515476D01*
X170305022Y-63491666D01*
X170287165Y-63444047D01*
X170293117Y-63396428D01*
X170322879Y-63348809D01*
X170349665Y-63325000D01*
X170400260Y-63301190D01*
X170519308Y-63301190D01*
X170587760Y-63325000D01*
X170784188Y-63467857D02*
X170721688Y-63967857D01*
X170781212Y-63491666D02*
X170831808Y-63467857D01*
X170927046Y-63467857D01*
X170971688Y-63491666D01*
X170992522Y-63515476D01*
X171010379Y-63563095D01*
X170992522Y-63705952D01*
X170962760Y-63753571D01*
X170935974Y-63777380D01*
X170885379Y-63801190D01*
X170790141Y-63801190D01*
X170745498Y-63777380D01*
X171409188Y-63801190D02*
X171441927Y-63539285D01*
X171424069Y-63491666D01*
X171379427Y-63467857D01*
X171284188Y-63467857D01*
X171233593Y-63491666D01*
X171412165Y-63777380D02*
X171361569Y-63801190D01*
X171242522Y-63801190D01*
X171197879Y-63777380D01*
X171180022Y-63729761D01*
X171185974Y-63682142D01*
X171215736Y-63634523D01*
X171266331Y-63610714D01*
X171385379Y-63610714D01*
X171435974Y-63586904D01*
X171647284Y-63801190D02*
X171688950Y-63467857D01*
X171677046Y-63563095D02*
X171706808Y-63515476D01*
X171733593Y-63491666D01*
X171784188Y-63467857D01*
X171831808Y-63467857D01*
X171956808Y-63801190D02*
X172019308Y-63301190D01*
X172028236Y-63610714D02*
X172147284Y-63801190D01*
X172188950Y-63467857D02*
X171974665Y-63658333D01*
X172560974Y-63539285D02*
X172394308Y-63539285D01*
X172361569Y-63801190D02*
X172424069Y-63301190D01*
X172662165Y-63301190D01*
X173046093Y-63467857D02*
X173004427Y-63801190D01*
X172831808Y-63467857D02*
X172799069Y-63729761D01*
X172816927Y-63777380D01*
X172861569Y-63801190D01*
X172932998Y-63801190D01*
X172983593Y-63777380D01*
X173010379Y-63753571D01*
X173284188Y-63467857D02*
X173242522Y-63801190D01*
X173278236Y-63515476D02*
X173305022Y-63491666D01*
X173355617Y-63467857D01*
X173427046Y-63467857D01*
X173471688Y-63491666D01*
X173489546Y-63539285D01*
X173456808Y-63801190D01*
X171421093Y-64676190D02*
X171182998Y-64676190D01*
X171245498Y-64176190D01*
X171587760Y-64676190D02*
X171629427Y-64342857D01*
X171650260Y-64176190D02*
X171623474Y-64200000D01*
X171644308Y-64223809D01*
X171671093Y-64200000D01*
X171650260Y-64176190D01*
X171644308Y-64223809D01*
X171825855Y-64676190D02*
X171888355Y-64176190D01*
X172078831Y-64176190D01*
X172123474Y-64200000D01*
X172144308Y-64223809D01*
X172162165Y-64271428D01*
X172153236Y-64342857D01*
X172123474Y-64390476D01*
X172096688Y-64414285D01*
X172046093Y-64438095D01*
X171855617Y-64438095D01*
X172397284Y-64676190D02*
X172352641Y-64652380D01*
X172331808Y-64628571D01*
X172313950Y-64580952D01*
X172331808Y-64438095D01*
X172361569Y-64390476D01*
X172388355Y-64366666D01*
X172438950Y-64342857D01*
X172510379Y-64342857D01*
X172555022Y-64366666D01*
X172575855Y-64390476D01*
X172593712Y-64438095D01*
X172575855Y-64580952D01*
X172546093Y-64628571D01*
X172519308Y-64652380D01*
X172468712Y-64676190D01*
X172397284Y-64676190D01*
X170060974Y-65289285D02*
X169894308Y-65289285D01*
X169861569Y-65551190D02*
X169924069Y-65051190D01*
X170162165Y-65051190D01*
X170546093Y-65217857D02*
X170504427Y-65551190D01*
X170331808Y-65217857D02*
X170299069Y-65479761D01*
X170316927Y-65527380D01*
X170361569Y-65551190D01*
X170432998Y-65551190D01*
X170483593Y-65527380D01*
X170510379Y-65503571D01*
X170935974Y-65527380D02*
X170885379Y-65551190D01*
X170790141Y-65551190D01*
X170745498Y-65527380D01*
X170727641Y-65479761D01*
X170751450Y-65289285D01*
X170781212Y-65241666D01*
X170831808Y-65217857D01*
X170927046Y-65217857D01*
X170971688Y-65241666D01*
X170989546Y-65289285D01*
X170983593Y-65336904D01*
X170739546Y-65384523D01*
X171242522Y-65551190D02*
X171197879Y-65527380D01*
X171180022Y-65479761D01*
X171233593Y-65051190D01*
X172135379Y-65075000D02*
X172090736Y-65051190D01*
X172019308Y-65051190D01*
X171944903Y-65075000D01*
X171891331Y-65122619D01*
X171861569Y-65170238D01*
X171825855Y-65265476D01*
X171816927Y-65336904D01*
X171828831Y-65432142D01*
X171846688Y-65479761D01*
X171888355Y-65527380D01*
X171956808Y-65551190D01*
X172004427Y-65551190D01*
X172078831Y-65527380D01*
X172105617Y-65503571D01*
X172126450Y-65336904D01*
X172031212Y-65336904D01*
X172528236Y-65551190D02*
X172560974Y-65289285D01*
X172543117Y-65241666D01*
X172498474Y-65217857D01*
X172403236Y-65217857D01*
X172352641Y-65241666D01*
X172531212Y-65527380D02*
X172480617Y-65551190D01*
X172361569Y-65551190D01*
X172316927Y-65527380D01*
X172299069Y-65479761D01*
X172305022Y-65432142D01*
X172334784Y-65384523D01*
X172385379Y-65360714D01*
X172504427Y-65360714D01*
X172555022Y-65336904D01*
X173022284Y-65217857D02*
X172980617Y-65551190D01*
X172807998Y-65217857D02*
X172775260Y-65479761D01*
X172793117Y-65527380D01*
X172837760Y-65551190D01*
X172909188Y-65551190D01*
X172959784Y-65527380D01*
X172986569Y-65503571D01*
X173474665Y-65217857D02*
X173424069Y-65622619D01*
X173394308Y-65670238D01*
X173367522Y-65694047D01*
X173316927Y-65717857D01*
X173245498Y-65717857D01*
X173200855Y-65694047D01*
X173435974Y-65527380D02*
X173385379Y-65551190D01*
X173290141Y-65551190D01*
X173245498Y-65527380D01*
X173224665Y-65503571D01*
X173206808Y-65455952D01*
X173224665Y-65313095D01*
X173254427Y-65265476D01*
X173281212Y-65241666D01*
X173331808Y-65217857D01*
X173427046Y-65217857D01*
X173471688Y-65241666D01*
X173864546Y-65527380D02*
X173813950Y-65551190D01*
X173718712Y-65551190D01*
X173674069Y-65527380D01*
X173656212Y-65479761D01*
X173680022Y-65289285D01*
X173709784Y-65241666D01*
X173760379Y-65217857D01*
X173855617Y-65217857D01*
X173900260Y-65241666D01*
X173918117Y-65289285D01*
X173912165Y-65336904D01*
X173668117Y-65384523D01*
D10*
X144491666Y-74053571D02*
X144467857Y-74077380D01*
X144396428Y-74101190D01*
X144348809Y-74101190D01*
X144277380Y-74077380D01*
X144229761Y-74029761D01*
X144205952Y-73982142D01*
X144182142Y-73886904D01*
X144182142Y-73815476D01*
X144205952Y-73720238D01*
X144229761Y-73672619D01*
X144277380Y-73625000D01*
X144348809Y-73601190D01*
X144396428Y-73601190D01*
X144467857Y-73625000D01*
X144491666Y-73648809D01*
X144729761Y-74101190D02*
X144825000Y-74101190D01*
X144872619Y-74077380D01*
X144896428Y-74053571D01*
X144944047Y-73982142D01*
X144967857Y-73886904D01*
X144967857Y-73696428D01*
X144944047Y-73648809D01*
X144920238Y-73625000D01*
X144872619Y-73601190D01*
X144777380Y-73601190D01*
X144729761Y-73625000D01*
X144705952Y-73648809D01*
X144682142Y-73696428D01*
X144682142Y-73815476D01*
X144705952Y-73863095D01*
X144729761Y-73886904D01*
X144777380Y-73910714D01*
X144872619Y-73910714D01*
X144920238Y-73886904D01*
X144944047Y-73863095D01*
X144967857Y-73815476D01*
X173602199Y-110625522D02*
X173364104Y-110792189D01*
X173602199Y-110911236D02*
X173102199Y-110911236D01*
X173102199Y-110720760D01*
X173126009Y-110673141D01*
X173149818Y-110649331D01*
X173197437Y-110625522D01*
X173268866Y-110625522D01*
X173316485Y-110649331D01*
X173340294Y-110673141D01*
X173364104Y-110720760D01*
X173364104Y-110911236D01*
X173316485Y-110339808D02*
X173292675Y-110387427D01*
X173268866Y-110411236D01*
X173221247Y-110435046D01*
X173197437Y-110435046D01*
X173149818Y-110411236D01*
X173126009Y-110387427D01*
X173102199Y-110339808D01*
X173102199Y-110244569D01*
X173126009Y-110196950D01*
X173149818Y-110173141D01*
X173197437Y-110149331D01*
X173221247Y-110149331D01*
X173268866Y-110173141D01*
X173292675Y-110196950D01*
X173316485Y-110244569D01*
X173316485Y-110339808D01*
X173340294Y-110387427D01*
X173364104Y-110411236D01*
X173411723Y-110435046D01*
X173506961Y-110435046D01*
X173554580Y-110411236D01*
X173578389Y-110387427D01*
X173602199Y-110339808D01*
X173602199Y-110244569D01*
X173578389Y-110196950D01*
X173554580Y-110173141D01*
X173506961Y-110149331D01*
X173411723Y-110149331D01*
X173364104Y-110173141D01*
X173340294Y-110196950D01*
X173316485Y-110244569D01*
X168258333Y-70226190D02*
X168258333Y-70583333D01*
X168234523Y-70654761D01*
X168186904Y-70702380D01*
X168115476Y-70726190D01*
X168067857Y-70726190D01*
X168758333Y-70726190D02*
X168472619Y-70726190D01*
X168615476Y-70726190D02*
X168615476Y-70226190D01*
X168567857Y-70297619D01*
X168520238Y-70345238D01*
X168472619Y-70369047D01*
X182378571Y-69346428D02*
X182402380Y-69370238D01*
X182426190Y-69441666D01*
X182426190Y-69489285D01*
X182402380Y-69560714D01*
X182354761Y-69608333D01*
X182307142Y-69632142D01*
X182211904Y-69655952D01*
X182140476Y-69655952D01*
X182045238Y-69632142D01*
X181997619Y-69608333D01*
X181950000Y-69560714D01*
X181926190Y-69489285D01*
X181926190Y-69441666D01*
X181950000Y-69370238D01*
X181973809Y-69346428D01*
X182426190Y-68870238D02*
X182426190Y-69155952D01*
X182426190Y-69013095D02*
X181926190Y-69013095D01*
X181997619Y-69060714D01*
X182045238Y-69108333D01*
X182069047Y-69155952D01*
X182426190Y-68394047D02*
X182426190Y-68679761D01*
X182426190Y-68536904D02*
X181926190Y-68536904D01*
X181997619Y-68584523D01*
X182045238Y-68632142D01*
X182069047Y-68679761D01*
X179583509Y-107749542D02*
X179964462Y-107749542D01*
X179773986Y-107940018D02*
X179773986Y-107559066D01*
X159801190Y-69030952D02*
X160205952Y-69030952D01*
X160253571Y-69007142D01*
X160277380Y-68983333D01*
X160301190Y-68935714D01*
X160301190Y-68840476D01*
X160277380Y-68792857D01*
X160253571Y-68769047D01*
X160205952Y-68745238D01*
X159801190Y-68745238D01*
X160301190Y-68245238D02*
X160301190Y-68530952D01*
X160301190Y-68388095D02*
X159801190Y-68388095D01*
X159872619Y-68435714D01*
X159920238Y-68483333D01*
X159944047Y-68530952D01*
X194996366Y-94010494D02*
X195020176Y-93939066D01*
X195020176Y-93820018D01*
X194996366Y-93772399D01*
X194972557Y-93748589D01*
X194924938Y-93724780D01*
X194877319Y-93724780D01*
X194829700Y-93748589D01*
X194805890Y-93772399D01*
X194782081Y-93820018D01*
X194758271Y-93915256D01*
X194734462Y-93962875D01*
X194710652Y-93986685D01*
X194663033Y-94010494D01*
X194615414Y-94010494D01*
X194567795Y-93986685D01*
X194543986Y-93962875D01*
X194520176Y-93915256D01*
X194520176Y-93796208D01*
X194543986Y-93724780D01*
X194520176Y-93558113D02*
X195020176Y-93439066D01*
X194663033Y-93343828D01*
X195020176Y-93248589D01*
X194520176Y-93129542D01*
X194567795Y-92962875D02*
X194543986Y-92939066D01*
X194520176Y-92891447D01*
X194520176Y-92772399D01*
X194543986Y-92724780D01*
X194567795Y-92700970D01*
X194615414Y-92677161D01*
X194663033Y-92677161D01*
X194734462Y-92700970D01*
X195020176Y-92986685D01*
X195020176Y-92677161D01*
X194996366Y-104685494D02*
X195020176Y-104614066D01*
X195020176Y-104495018D01*
X194996366Y-104447399D01*
X194972557Y-104423589D01*
X194924938Y-104399780D01*
X194877319Y-104399780D01*
X194829700Y-104423589D01*
X194805890Y-104447399D01*
X194782081Y-104495018D01*
X194758271Y-104590256D01*
X194734462Y-104637875D01*
X194710652Y-104661685D01*
X194663033Y-104685494D01*
X194615414Y-104685494D01*
X194567795Y-104661685D01*
X194543986Y-104637875D01*
X194520176Y-104590256D01*
X194520176Y-104471208D01*
X194543986Y-104399780D01*
X194520176Y-104233113D02*
X195020176Y-104114066D01*
X194663033Y-104018828D01*
X195020176Y-103923589D01*
X194520176Y-103804542D01*
X195020176Y-103352161D02*
X195020176Y-103637875D01*
X195020176Y-103495018D02*
X194520176Y-103495018D01*
X194591605Y-103542637D01*
X194639224Y-103590256D01*
X194663033Y-103637875D01*
X164141666Y-71428571D02*
X164117857Y-71452380D01*
X164046428Y-71476190D01*
X163998809Y-71476190D01*
X163927380Y-71452380D01*
X163879761Y-71404761D01*
X163855952Y-71357142D01*
X163832142Y-71261904D01*
X163832142Y-71190476D01*
X163855952Y-71095238D01*
X163879761Y-71047619D01*
X163927380Y-71000000D01*
X163998809Y-70976190D01*
X164046428Y-70976190D01*
X164117857Y-71000000D01*
X164141666Y-71023809D01*
X164617857Y-71476190D02*
X164332142Y-71476190D01*
X164475000Y-71476190D02*
X164475000Y-70976190D01*
X164427380Y-71047619D01*
X164379761Y-71095238D01*
X164332142Y-71119047D01*
X175703571Y-97908333D02*
X175727380Y-97932142D01*
X175751190Y-98003571D01*
X175751190Y-98051190D01*
X175727380Y-98122619D01*
X175679761Y-98170238D01*
X175632142Y-98194047D01*
X175536904Y-98217857D01*
X175465476Y-98217857D01*
X175370238Y-98194047D01*
X175322619Y-98170238D01*
X175275000Y-98122619D01*
X175251190Y-98051190D01*
X175251190Y-98003571D01*
X175275000Y-97932142D01*
X175298809Y-97908333D01*
X175298809Y-97717857D02*
X175275000Y-97694047D01*
X175251190Y-97646428D01*
X175251190Y-97527380D01*
X175275000Y-97479761D01*
X175298809Y-97455952D01*
X175346428Y-97432142D01*
X175394047Y-97432142D01*
X175465476Y-97455952D01*
X175751190Y-97741666D01*
X175751190Y-97432142D01*
X179445714Y-94635476D02*
X179445714Y-94254523D01*
X179636190Y-94445000D02*
X179255238Y-94445000D01*
X185328571Y-97958333D02*
X185352380Y-97982142D01*
X185376190Y-98053571D01*
X185376190Y-98101190D01*
X185352380Y-98172619D01*
X185304761Y-98220238D01*
X185257142Y-98244047D01*
X185161904Y-98267857D01*
X185090476Y-98267857D01*
X184995238Y-98244047D01*
X184947619Y-98220238D01*
X184900000Y-98172619D01*
X184876190Y-98101190D01*
X184876190Y-98053571D01*
X184900000Y-97982142D01*
X184923809Y-97958333D01*
X184876190Y-97791666D02*
X184876190Y-97482142D01*
X185066666Y-97648809D01*
X185066666Y-97577380D01*
X185090476Y-97529761D01*
X185114285Y-97505952D01*
X185161904Y-97482142D01*
X185280952Y-97482142D01*
X185328571Y-97505952D01*
X185352380Y-97529761D01*
X185376190Y-97577380D01*
X185376190Y-97720238D01*
X185352380Y-97767857D01*
X185328571Y-97791666D01*
X161741666Y-71378571D02*
X161717857Y-71402380D01*
X161646428Y-71426190D01*
X161598809Y-71426190D01*
X161527380Y-71402380D01*
X161479761Y-71354761D01*
X161455952Y-71307142D01*
X161432142Y-71211904D01*
X161432142Y-71140476D01*
X161455952Y-71045238D01*
X161479761Y-70997619D01*
X161527380Y-70950000D01*
X161598809Y-70926190D01*
X161646428Y-70926190D01*
X161717857Y-70950000D01*
X161741666Y-70973809D01*
X162170238Y-71092857D02*
X162170238Y-71426190D01*
X162051190Y-70902380D02*
X161932142Y-71259523D01*
X162241666Y-71259523D01*
X152016666Y-74078571D02*
X151992857Y-74102380D01*
X151921428Y-74126190D01*
X151873809Y-74126190D01*
X151802380Y-74102380D01*
X151754761Y-74054761D01*
X151730952Y-74007142D01*
X151707142Y-73911904D01*
X151707142Y-73840476D01*
X151730952Y-73745238D01*
X151754761Y-73697619D01*
X151802380Y-73650000D01*
X151873809Y-73626190D01*
X151921428Y-73626190D01*
X151992857Y-73650000D01*
X152016666Y-73673809D01*
X152469047Y-73626190D02*
X152230952Y-73626190D01*
X152207142Y-73864285D01*
X152230952Y-73840476D01*
X152278571Y-73816666D01*
X152397619Y-73816666D01*
X152445238Y-73840476D01*
X152469047Y-73864285D01*
X152492857Y-73911904D01*
X152492857Y-74030952D01*
X152469047Y-74078571D01*
X152445238Y-74102380D01*
X152397619Y-74126190D01*
X152278571Y-74126190D01*
X152230952Y-74102380D01*
X152207142Y-74078571D01*
X150541666Y-103128571D02*
X150517857Y-103152380D01*
X150446428Y-103176190D01*
X150398809Y-103176190D01*
X150327380Y-103152380D01*
X150279761Y-103104761D01*
X150255952Y-103057142D01*
X150232142Y-102961904D01*
X150232142Y-102890476D01*
X150255952Y-102795238D01*
X150279761Y-102747619D01*
X150327380Y-102700000D01*
X150398809Y-102676190D01*
X150446428Y-102676190D01*
X150517857Y-102700000D01*
X150541666Y-102723809D01*
X150970238Y-102676190D02*
X150875000Y-102676190D01*
X150827380Y-102700000D01*
X150803571Y-102723809D01*
X150755952Y-102795238D01*
X150732142Y-102890476D01*
X150732142Y-103080952D01*
X150755952Y-103128571D01*
X150779761Y-103152380D01*
X150827380Y-103176190D01*
X150922619Y-103176190D01*
X150970238Y-103152380D01*
X150994047Y-103128571D01*
X151017857Y-103080952D01*
X151017857Y-102961904D01*
X150994047Y-102914285D01*
X150970238Y-102890476D01*
X150922619Y-102866666D01*
X150827380Y-102866666D01*
X150779761Y-102890476D01*
X150755952Y-102914285D01*
X150732142Y-102961904D01*
X149866666Y-74053571D02*
X149842857Y-74077380D01*
X149771428Y-74101190D01*
X149723809Y-74101190D01*
X149652380Y-74077380D01*
X149604761Y-74029761D01*
X149580952Y-73982142D01*
X149557142Y-73886904D01*
X149557142Y-73815476D01*
X149580952Y-73720238D01*
X149604761Y-73672619D01*
X149652380Y-73625000D01*
X149723809Y-73601190D01*
X149771428Y-73601190D01*
X149842857Y-73625000D01*
X149866666Y-73648809D01*
X150152380Y-73815476D02*
X150104761Y-73791666D01*
X150080952Y-73767857D01*
X150057142Y-73720238D01*
X150057142Y-73696428D01*
X150080952Y-73648809D01*
X150104761Y-73625000D01*
X150152380Y-73601190D01*
X150247619Y-73601190D01*
X150295238Y-73625000D01*
X150319047Y-73648809D01*
X150342857Y-73696428D01*
X150342857Y-73720238D01*
X150319047Y-73767857D01*
X150295238Y-73791666D01*
X150247619Y-73815476D01*
X150152380Y-73815476D01*
X150104761Y-73839285D01*
X150080952Y-73863095D01*
X150057142Y-73910714D01*
X150057142Y-74005952D01*
X150080952Y-74053571D01*
X150104761Y-74077380D01*
X150152380Y-74101190D01*
X150247619Y-74101190D01*
X150295238Y-74077380D01*
X150319047Y-74053571D01*
X150342857Y-74005952D01*
X150342857Y-73910714D01*
X150319047Y-73863095D01*
X150295238Y-73839285D01*
X150247619Y-73815476D01*
X151728571Y-111896428D02*
X151752380Y-111920238D01*
X151776190Y-111991666D01*
X151776190Y-112039285D01*
X151752380Y-112110714D01*
X151704761Y-112158333D01*
X151657142Y-112182142D01*
X151561904Y-112205952D01*
X151490476Y-112205952D01*
X151395238Y-112182142D01*
X151347619Y-112158333D01*
X151300000Y-112110714D01*
X151276190Y-112039285D01*
X151276190Y-111991666D01*
X151300000Y-111920238D01*
X151323809Y-111896428D01*
X151776190Y-111420238D02*
X151776190Y-111705952D01*
X151776190Y-111563095D02*
X151276190Y-111563095D01*
X151347619Y-111610714D01*
X151395238Y-111658333D01*
X151419047Y-111705952D01*
X151276190Y-111110714D02*
X151276190Y-111063095D01*
X151300000Y-111015476D01*
X151323809Y-110991666D01*
X151371428Y-110967857D01*
X151466666Y-110944047D01*
X151585714Y-110944047D01*
X151680952Y-110967857D01*
X151728571Y-110991666D01*
X151752380Y-111015476D01*
X151776190Y-111063095D01*
X151776190Y-111110714D01*
X151752380Y-111158333D01*
X151728571Y-111182142D01*
X151680952Y-111205952D01*
X151585714Y-111229761D01*
X151466666Y-111229761D01*
X151371428Y-111205952D01*
X151323809Y-111182142D01*
X151300000Y-111158333D01*
X151276190Y-111110714D01*
X176058333Y-70226190D02*
X176058333Y-70583333D01*
X176034523Y-70654761D01*
X175986904Y-70702380D01*
X175915476Y-70726190D01*
X175867857Y-70726190D01*
X176248809Y-70226190D02*
X176558333Y-70226190D01*
X176391666Y-70416666D01*
X176463095Y-70416666D01*
X176510714Y-70440476D01*
X176534523Y-70464285D01*
X176558333Y-70511904D01*
X176558333Y-70630952D01*
X176534523Y-70678571D01*
X176510714Y-70702380D01*
X176463095Y-70726190D01*
X176320238Y-70726190D01*
X176272619Y-70702380D01*
X176248809Y-70678571D01*
X185933333Y-63226190D02*
X185933333Y-63583333D01*
X185909523Y-63654761D01*
X185861904Y-63702380D01*
X185790476Y-63726190D01*
X185742857Y-63726190D01*
X186385714Y-63392857D02*
X186385714Y-63726190D01*
X186266666Y-63202380D02*
X186147619Y-63559523D01*
X186457142Y-63559523D01*
X148001190Y-80041666D02*
X148358333Y-80041666D01*
X148429761Y-80065476D01*
X148477380Y-80113095D01*
X148501190Y-80184523D01*
X148501190Y-80232142D01*
X148001190Y-79589285D02*
X148001190Y-79684523D01*
X148025000Y-79732142D01*
X148048809Y-79755952D01*
X148120238Y-79803571D01*
X148215476Y-79827380D01*
X148405952Y-79827380D01*
X148453571Y-79803571D01*
X148477380Y-79779761D01*
X148501190Y-79732142D01*
X148501190Y-79636904D01*
X148477380Y-79589285D01*
X148453571Y-79565476D01*
X148405952Y-79541666D01*
X148286904Y-79541666D01*
X148239285Y-79565476D01*
X148215476Y-79589285D01*
X148191666Y-79636904D01*
X148191666Y-79732142D01*
X148215476Y-79779761D01*
X148239285Y-79803571D01*
X148286904Y-79827380D01*
X160481133Y-72251015D02*
X160312774Y-72082656D01*
X160666328Y-71729103D01*
X160784179Y-72554061D02*
X160582148Y-72352030D01*
X160683164Y-72453045D02*
X161036717Y-72099492D01*
X160952538Y-72116328D01*
X160885194Y-72116328D01*
X160834687Y-72099492D01*
X163141666Y-59851190D02*
X162975000Y-59613095D01*
X162855952Y-59851190D02*
X162855952Y-59351190D01*
X163046428Y-59351190D01*
X163094047Y-59375000D01*
X163117857Y-59398809D01*
X163141666Y-59446428D01*
X163141666Y-59517857D01*
X163117857Y-59565476D01*
X163094047Y-59589285D01*
X163046428Y-59613095D01*
X162855952Y-59613095D01*
X163617857Y-59851190D02*
X163332142Y-59851190D01*
X163475000Y-59851190D02*
X163475000Y-59351190D01*
X163427380Y-59422619D01*
X163379761Y-59470238D01*
X163332142Y-59494047D01*
X145891666Y-72626190D02*
X145725000Y-72388095D01*
X145605952Y-72626190D02*
X145605952Y-72126190D01*
X145796428Y-72126190D01*
X145844047Y-72150000D01*
X145867857Y-72173809D01*
X145891666Y-72221428D01*
X145891666Y-72292857D01*
X145867857Y-72340476D01*
X145844047Y-72364285D01*
X145796428Y-72388095D01*
X145605952Y-72388095D01*
X146320238Y-72292857D02*
X146320238Y-72626190D01*
X146201190Y-72102380D02*
X146082142Y-72459523D01*
X146391666Y-72459523D01*
X143366666Y-72601190D02*
X143200000Y-72363095D01*
X143080952Y-72601190D02*
X143080952Y-72101190D01*
X143271428Y-72101190D01*
X143319047Y-72125000D01*
X143342857Y-72148809D01*
X143366666Y-72196428D01*
X143366666Y-72267857D01*
X143342857Y-72315476D01*
X143319047Y-72339285D01*
X143271428Y-72363095D01*
X143080952Y-72363095D01*
X143819047Y-72101190D02*
X143580952Y-72101190D01*
X143557142Y-72339285D01*
X143580952Y-72315476D01*
X143628571Y-72291666D01*
X143747619Y-72291666D01*
X143795238Y-72315476D01*
X143819047Y-72339285D01*
X143842857Y-72386904D01*
X143842857Y-72505952D01*
X143819047Y-72553571D01*
X143795238Y-72577380D01*
X143747619Y-72601190D01*
X143628571Y-72601190D01*
X143580952Y-72577380D01*
X143557142Y-72553571D01*
X183666666Y-88776190D02*
X183500000Y-88538095D01*
X183380952Y-88776190D02*
X183380952Y-88276190D01*
X183571428Y-88276190D01*
X183619047Y-88300000D01*
X183642857Y-88323809D01*
X183666666Y-88371428D01*
X183666666Y-88442857D01*
X183642857Y-88490476D01*
X183619047Y-88514285D01*
X183571428Y-88538095D01*
X183380952Y-88538095D01*
X184095238Y-88276190D02*
X184000000Y-88276190D01*
X183952380Y-88300000D01*
X183928571Y-88323809D01*
X183880952Y-88395238D01*
X183857142Y-88490476D01*
X183857142Y-88680952D01*
X183880952Y-88728571D01*
X183904761Y-88752380D01*
X183952380Y-88776190D01*
X184047619Y-88776190D01*
X184095238Y-88752380D01*
X184119047Y-88728571D01*
X184142857Y-88680952D01*
X184142857Y-88561904D01*
X184119047Y-88514285D01*
X184095238Y-88490476D01*
X184047619Y-88466666D01*
X183952380Y-88466666D01*
X183904761Y-88490476D01*
X183880952Y-88514285D01*
X183857142Y-88561904D01*
X183641666Y-91251190D02*
X183475000Y-91013095D01*
X183355952Y-91251190D02*
X183355952Y-90751190D01*
X183546428Y-90751190D01*
X183594047Y-90775000D01*
X183617857Y-90798809D01*
X183641666Y-90846428D01*
X183641666Y-90917857D01*
X183617857Y-90965476D01*
X183594047Y-90989285D01*
X183546428Y-91013095D01*
X183355952Y-91013095D01*
X183808333Y-90751190D02*
X184141666Y-90751190D01*
X183927380Y-91251190D01*
X190226190Y-95196428D02*
X189988095Y-95363095D01*
X190226190Y-95482142D02*
X189726190Y-95482142D01*
X189726190Y-95291666D01*
X189750000Y-95244047D01*
X189773809Y-95220238D01*
X189821428Y-95196428D01*
X189892857Y-95196428D01*
X189940476Y-95220238D01*
X189964285Y-95244047D01*
X189988095Y-95291666D01*
X189988095Y-95482142D01*
X190226190Y-94720238D02*
X190226190Y-95005952D01*
X190226190Y-94863095D02*
X189726190Y-94863095D01*
X189797619Y-94910714D01*
X189845238Y-94958333D01*
X189869047Y-95005952D01*
X189773809Y-94529761D02*
X189750000Y-94505952D01*
X189726190Y-94458333D01*
X189726190Y-94339285D01*
X189750000Y-94291666D01*
X189773809Y-94267857D01*
X189821428Y-94244047D01*
X189869047Y-94244047D01*
X189940476Y-94267857D01*
X190226190Y-94553571D01*
X190226190Y-94244047D01*
X148794047Y-102026190D02*
X149079761Y-102026190D01*
X148936904Y-102526190D02*
X148936904Y-102026190D01*
X149246428Y-102526190D02*
X149246428Y-102026190D01*
X149436904Y-102026190D01*
X149484523Y-102050000D01*
X149508333Y-102073809D01*
X149532142Y-102121428D01*
X149532142Y-102192857D01*
X149508333Y-102240476D01*
X149484523Y-102264285D01*
X149436904Y-102288095D01*
X149246428Y-102288095D01*
X150008333Y-102526190D02*
X149722619Y-102526190D01*
X149865476Y-102526190D02*
X149865476Y-102026190D01*
X149817857Y-102097619D01*
X149770238Y-102145238D01*
X149722619Y-102169047D01*
X172083333Y-67801190D02*
X172083333Y-68158333D01*
X172059523Y-68229761D01*
X172011904Y-68277380D01*
X171940476Y-68301190D01*
X171892857Y-68301190D01*
X172297619Y-67848809D02*
X172321428Y-67825000D01*
X172369047Y-67801190D01*
X172488095Y-67801190D01*
X172535714Y-67825000D01*
X172559523Y-67848809D01*
X172583333Y-67896428D01*
X172583333Y-67944047D01*
X172559523Y-68015476D01*
X172273809Y-68301190D01*
X172583333Y-68301190D01*
M02*
